<svg width="30" height="30" viewBox="0 0 30 30" fill="none" xmlns="http://www.w3.org/2000/svg">
<path d="M25 28.125H12.5C11.6715 28.124 10.8772 27.7944 10.2914 27.2086C9.70555 26.6228 9.37599 25.8285 9.375 25V5C9.37599 4.1715 9.70555 3.37722 10.2914 2.79139C10.8772 2.20555 11.6715 1.87599 12.5 1.875H25C25.8285 1.87599 26.6228 2.20555 27.2086 2.79139C27.7944 3.37722 28.124 4.1715 28.125 5V25C28.124 25.8285 27.7944 26.6228 27.2086 27.2086C26.6228 27.7944 25.8285 28.124 25 28.125ZM12.5 3.125C12.0027 3.125 11.5258 3.32254 11.1742 3.67417C10.8225 4.02581 10.625 4.50272 10.625 5V25C10.625 25.4973 10.8225 25.9742 11.1742 26.3258C11.5258 26.6775 12.0027 26.875 12.5 26.875H25C25.4973 26.875 25.9742 26.6775 26.3258 26.3258C26.6775 25.9742 26.875 25.4973 26.875 25V5C26.875 4.50272 26.6775 4.02581 26.3258 3.67417C25.9742 3.32254 25.4973 3.125 25 3.125H12.5Z" fill="black"/>
<path d="M9.99993 25.4436C9.88299 25.444 9.76829 25.4116 9.66885 25.3501C9.56941 25.2885 9.48924 25.2003 9.43743 25.0955L2.54993 11.158C2.36786 10.7907 2.26002 10.3911 2.23258 9.98207C2.20514 9.57304 2.25864 9.16262 2.39001 8.7743C2.52139 8.38598 2.72806 8.02738 2.9982 7.71904C3.26834 7.41069 3.59664 7.15865 3.96431 6.97735L9.74556 4.1211C9.81921 4.08413 9.89944 4.0621 9.98163 4.05626C10.0638 4.05042 10.1464 4.06089 10.2245 4.08707C10.3026 4.11326 10.3748 4.15463 10.4369 4.20882C10.499 4.263 10.5497 4.32893 10.5862 4.40281C10.6228 4.47668 10.6443 4.55705 10.6496 4.63928C10.6549 4.72151 10.644 4.80398 10.6173 4.88195C10.5906 4.95992 10.5488 5.03185 10.4942 5.09359C10.4397 5.15534 10.3734 5.20568 10.2993 5.24172L4.51806 8.09797C4.29757 8.20649 4.10068 8.35748 3.93868 8.54227C3.77667 8.72706 3.65275 8.94201 3.57401 9.1748C3.49527 9.40759 3.46327 9.65364 3.47984 9.89883C3.4964 10.144 3.56122 10.3835 3.67056 10.6036L10.5624 24.5417C10.6358 24.6903 10.6472 24.8618 10.5941 25.0188C10.541 25.1757 10.4278 25.3051 10.2793 25.3786C10.1926 25.4219 10.0969 25.4442 9.99993 25.4436Z" fill="black"/>
<path d="M20.625 13.125C21.3154 13.125 21.875 12.5654 21.875 11.875C21.875 11.1846 21.3154 10.625 20.625 10.625C19.9346 10.625 19.375 11.1846 19.375 11.875C19.375 12.5654 19.9346 13.125 20.625 13.125Z" fill="#E2251D"/>
<path d="M13.1251 16.6433C13.0046 16.6433 12.8866 16.6085 12.7854 16.543C12.6842 16.4775 12.6041 16.3841 12.5548 16.2741C12.5054 16.1641 12.4889 16.0422 12.5073 15.9231C12.5256 15.804 12.5781 15.6927 12.6582 15.6027L14.4145 13.6283C14.6475 13.3665 14.9315 13.155 15.249 13.0066C15.5666 12.8582 15.911 12.776 16.2613 12.7652C16.6099 12.7583 16.9564 12.8211 17.2804 12.9499C17.6044 13.0787 17.8994 13.2709 18.1482 13.5152L19.2482 14.6152C19.4719 14.8422 19.7706 14.9801 20.0884 15.0031C20.4063 15.0261 20.7217 14.9326 20.9757 14.7402C21.4145 14.4091 21.9481 14.2278 22.4977 14.2232C23.0474 14.2186 23.584 14.3908 24.0282 14.7145L24.7457 15.2433C24.8758 15.3428 24.9617 15.4894 24.9848 15.6516C25.0079 15.8138 24.9664 15.9785 24.8692 16.1104C24.7721 16.2423 24.627 16.3308 24.4653 16.3568C24.3036 16.3828 24.1381 16.3443 24.0045 16.2495L23.2926 15.7245C23.0643 15.5591 22.7889 15.4713 22.507 15.474C22.2251 15.4767 21.9515 15.5698 21.7263 15.7395C21.2326 16.1149 20.6191 16.2976 20.0004 16.2537C19.3818 16.2098 18.8002 15.9421 18.3645 15.5008L17.2645 14.4008C17.1372 14.2742 16.9853 14.1751 16.8183 14.1093C16.6513 14.0436 16.4726 14.0127 16.2932 14.0186C16.1138 14.0244 15.9375 14.0669 15.7751 14.1434C15.6127 14.2198 15.4676 14.3287 15.3488 14.4633L13.592 16.4383C13.5331 16.5035 13.461 16.5555 13.3805 16.5909C13.3001 16.6262 13.213 16.6441 13.1251 16.6433Z" fill="#E2251D"/>
<path d="M21.875 19.375H15.625C14.7965 19.374 14.0022 19.0444 13.4164 18.4586C12.8306 17.8728 12.501 17.0785 12.5 16.25V11.25C12.501 10.4215 12.8306 9.62722 13.4164 9.04139C14.0022 8.45555 14.7965 8.12599 15.625 8.125H21.875C22.7035 8.12599 23.4978 8.45555 24.0836 9.04139C24.6694 9.62722 24.999 10.4215 25 11.25V16.25C24.999 17.0785 24.6694 17.8728 24.0836 18.4586C23.4978 19.0444 22.7035 19.374 21.875 19.375ZM15.625 9.375C15.1277 9.375 14.6508 9.57254 14.2992 9.92417C13.9475 10.2758 13.75 10.7527 13.75 11.25V16.25C13.75 16.7473 13.9475 17.2242 14.2992 17.5758C14.6508 17.9275 15.1277 18.125 15.625 18.125H21.875C22.3723 18.125 22.8492 17.9275 23.2008 17.5758C23.5525 17.2242 23.75 16.7473 23.75 16.25V11.25C23.75 10.7527 23.5525 10.2758 23.2008 9.92417C22.8492 9.57254 22.3723 9.375 21.875 9.375H15.625Z" fill="#E2251D"/>
<path d="M23.75 6.25H13.75C13.5842 6.25 13.4253 6.18415 13.3081 6.06694C13.1908 5.94973 13.125 5.79076 13.125 5.625C13.125 5.45924 13.1908 5.30027 13.3081 5.18306C13.4253 5.06585 13.5842 5 13.75 5H23.75C23.9158 5 24.0747 5.06585 24.1919 5.18306C24.3092 5.30027 24.375 5.45924 24.375 5.625C24.375 5.79076 24.3092 5.94973 24.1919 6.06694C24.0747 6.18415 23.9158 6.25 23.75 6.25Z" fill="black"/>
<path d="M23.75 22.5H13.75C13.5842 22.5 13.4253 22.4342 13.3081 22.3169C13.1908 22.1997 13.125 22.0408 13.125 21.875C13.125 21.7092 13.1908 21.5503 13.3081 21.4331C13.4253 21.3158 13.5842 21.25 13.75 21.25H23.75C23.9158 21.25 24.0747 21.3158 24.1919 21.4331C24.3092 21.5503 24.375 21.7092 24.375 21.875C24.375 22.0408 24.3092 22.1997 24.1919 22.3169C24.0747 22.4342 23.9158 22.5 23.75 22.5Z" fill="black"/>
<path d="M23.75 25H13.75C13.5842 25 13.4253 24.9342 13.3081 24.8169C13.1908 24.6997 13.125 24.5408 13.125 24.375C13.125 24.2092 13.1908 24.0503 13.3081 23.9331C13.4253 23.8158 13.5842 23.75 13.75 23.75H23.75C23.9158 23.75 24.0747 23.8158 24.1919 23.9331C24.3092 24.0503 24.375 24.2092 24.375 24.375C24.375 24.5408 24.3092 24.6997 24.1919 24.8169C24.0747 24.9342 23.9158 25 23.75 25Z" fill="black"/>
</svg>
