<svg width="40" height="40" viewBox="0 0 40 40" fill="none" xmlns="http://www.w3.org/2000/svg">
<rect width="40" height="40" fill="#E2251D"/>
<path d="M24.7299 27.5366C22.3556 25.1624 19.9813 22.8346 17.6071 20.4604C17.4674 20.3207 17.3743 20.2276 17.2346 20.0879C19.3761 17.9464 21.5176 15.8049 23.7057 13.6168C24.0316 13.291 24.404 12.9185 24.7299 12.5926C25.5679 11.7547 24.2643 10.4046 23.4264 11.2891L16.3035 18.412L15.2793 19.4362C14.9069 19.8086 14.9069 20.4138 15.2793 20.7397C17.6536 23.114 19.9813 25.4882 22.3556 27.8625C22.6815 28.1884 23.0539 28.5608 23.3798 28.8867C24.2178 29.7247 25.5679 28.4212 24.7299 27.5366Z" fill="white"/>
</svg>
