<svg width="80" height="80" viewBox="0 0 80 80" fill="none" xmlns="http://www.w3.org/2000/svg">
<path d="M77.4194 67.0968V49.0323H74.8387V0H61.9355V25.8065H56.7742V33.5484H54.1936V49.0323H51.6129V38.7097H49.0323V15.4839C50.4555 15.4839 51.6129 14.3265 51.6129 12.9032V10.3226C51.6129 8.89935 50.4555 7.74194 49.0323 7.74194H36.129C34.7058 7.74194 33.5484 8.89935 33.5484 10.3226V12.9032C33.5484 14.3265 34.7058 15.4839 36.129 15.4839V38.7097H33.5484V33.5484V25.8065V20.6452C33.5484 17.0994 26.191 15.4839 19.3548 15.4839C12.5187 15.4839 5.16129 17.0994 5.16129 20.6452V25.8065V33.5484V55.0929L2.16774 59.5832C0.749677 61.711 0 64.1858 0 66.7419V67.0968C0 74.2116 5.78839 80 12.9032 80H80V67.0968H77.4194ZM72.2581 67.0968V54.1936H56.7742V67.0968H54.1936V54.1936H28.3871V67.0968H25.8065V66.7419C25.8065 64.1871 25.0568 61.7123 23.6387 59.5845L18.3252 51.6129H74.8387V67.0968H72.2581ZM69.6774 67.0968H59.3548V56.7742H69.6774V67.0968ZM30.9677 67.0968V56.7742H36.129V67.0968H30.9677ZM38.7097 56.7742H43.871V67.0968H38.7097V56.7742ZM46.4516 56.7742H51.6129V67.0968H46.4516V56.7742ZM33.5484 49.0323H30.9677V46.4516H33.5484V49.0323ZM43.871 49.0323H41.2903V46.4516H43.871V49.0323ZM64.5161 2.58065H72.2581V49.0323H69.6774V33.5484H67.0968V25.8065H64.5161V2.58065ZM59.3548 28.3871H64.5161V33.5484H59.3548V28.3871ZM56.7742 36.129H67.0968V49.0323H56.7742V36.129ZM46.4516 49.0323V43.871H38.7097V49.0323H36.129V43.871H28.3871V49.0323H25.8065V41.2903H49.0323V49.0323H46.4516ZM36.129 10.3226H49.0323L49.0336 12.9032H36.129V10.3226ZM38.7097 15.4839H46.4516V38.7097H38.7097V15.4839ZM30.9677 30.9677H7.74194V28.3871H30.9677V30.9677ZM7.74065 20.6645C7.93677 19.9484 11.8052 18.0645 19.3548 18.0645C26.9045 18.0645 30.7729 19.9484 30.9677 20.6452V25.8065H7.74065V20.6645ZM7.74065 33.5484H30.9677V38.7097H23.2258V49.0323H16.6039L15.9819 48.0994C15.2942 47.0684 14.1432 46.4516 12.9032 46.4516C11.6632 46.4516 10.5123 47.0684 9.82323 48.0994L7.74194 51.2232L7.74065 33.5484ZM2.58065 67.0968V66.7419C2.58065 64.6968 3.18065 62.7174 4.31484 61.0155L11.9716 49.5316C12.3884 48.9071 13.4194 48.9071 13.8361 49.5316L21.4929 61.0155C22.6258 62.7161 23.2258 64.6968 23.2258 66.7419V67.0968C23.2258 72.7884 18.5948 77.4194 12.9032 77.4194C7.21161 77.4194 2.58065 72.7884 2.58065 67.0968ZM77.4194 77.4194H20.6116C23.0994 75.5574 24.9032 72.8297 25.5458 69.6774H77.4194V77.4194Z" fill="black"/>
<path d="M41.2903 23.2256H43.8709V25.8062H41.2903V23.2256Z" fill="#E2251D"/>
<path d="M41.2903 18.0645H43.8709V20.6451H41.2903V18.0645Z" fill="black"/>
<path d="M41.2903 28.3867H43.8709V30.9674H41.2903V28.3867Z" fill="black"/>
<path d="M41.2903 33.5488H43.8709V36.1295H41.2903V33.5488Z" fill="#E2251D"/>
<path d="M60.6451 38.71H63.2258V41.2906H60.6451V38.71Z" fill="black"/>
<path d="M60.6451 43.8711H63.2258V46.4517H60.6451V43.8711Z" fill="#E2251D"/>
<path d="M67.0968 20.6455H69.6774V23.2262H67.0968V20.6455Z" fill="black"/>
<path d="M67.0968 10.3223H69.6774V12.9029H67.0968V10.3223Z" fill="black"/>
<path d="M67.0968 15.4834H69.6774V18.064H67.0968V15.4834Z" fill="#E2251D"/>
<path d="M67.0968 5.16113H69.6774V7.74178H67.0968V5.16113Z" fill="#E2251D"/>
<path d="M7.7419 67.0967H5.16125C5.16125 71.3664 8.63351 74.8386 12.9032 74.8386V72.258C10.0567 72.258 7.7419 69.9431 7.7419 67.0967Z" fill="#E2251D"/>
</svg>
