<svg width="80" height="80" viewBox="0 0 80 80" fill="none" xmlns="http://www.w3.org/2000/svg">
<path d="M78.4375 39.035H76.3125V36.3003C76.3125 34.0981 75.733 31.9073 74.6444 29.9927L72.1722 25.6403C71.41 24.3006 70.9767 22.777 70.9191 21.2347L70.5056 10.0998H70.9931C71.9575 10.0998 72.7084 9.19359 72.5281 8.24547L71.7356 4.07828C71.4223 2.46719 69.9417 1.29719 68.3148 1.29719H61.6656C60.0398 1.29719 58.5084 2.51047 58.2334 4.13578L57.5139 8.26937C57.3498 9.21078 58.0986 10.0998 59.0533 10.0998H59.3737L58.8064 21.5713C58.7387 22.93 58.3925 24.2363 57.7777 25.4522L55.3495 30.2461C54.4463 32.0295 53.9717 34.0181 53.9717 36.0161V39.0352H51.2452V36.3005C51.2452 34.0984 50.6672 31.9072 49.5784 29.9923L47.1055 25.6414C46.3439 24.3003 45.9109 22.7764 45.8534 21.2345L45.44 10.0997H45.927C46.8914 10.0997 47.6423 9.19344 47.462 8.24531L46.6695 4.07812C46.3563 2.46703 44.8756 1.29703 43.2487 1.29703H36.5995C34.9736 1.29703 33.4422 2.51031 33.1672 4.13578L32.4478 8.26937C32.2837 9.21078 33.0325 10.0998 33.9872 10.0998H34.3064L33.7391 21.5727C33.6728 22.9305 33.3267 24.2356 32.7105 25.4522L30.2817 30.2472C29.3814 32.0284 28.9044 34.0206 28.9044 36.0161V39.0352H26.1797V36.3005C26.1797 34.0983 25.6002 31.9078 24.513 29.9923L22.04 25.6414C21.277 24.2978 20.8442 22.7744 20.788 21.2345L20.3747 10.0997H20.8611C21.8255 10.0997 22.5764 9.19344 22.3961 8.24531L21.6038 4.07812C21.2891 2.46703 19.8109 1.29688 18.183 1.29688H11.5336C9.90766 1.29688 8.37641 2.51016 8.10141 4.13562L7.38203 8.26922C7.21797 9.21063 7.96672 10.0997 8.92141 10.0997H9.24109L8.67391 21.5711C8.60609 22.9328 8.26016 24.2384 7.64516 25.452L5.21703 30.2459C4.31359 32.0297 3.83906 34.0178 3.83906 36.0159V39.035H1.5625C0.699688 39.035 0 39.7345 0 40.5975V73.4759C0 76.358 2.34469 78.7027 5.22656 78.7027H33.6756C34.5384 78.7027 35.2381 78.0031 35.2381 77.1402C35.2381 76.2772 34.5384 75.5777 33.6756 75.5777H5.22656C4.06781 75.5777 3.125 74.6348 3.125 73.4759V42.16H76.875V73.4759C76.875 74.6348 75.9322 75.5777 74.7734 75.5777H47.4206C46.5578 75.5777 45.8581 76.2772 45.8581 77.1402C45.8581 78.0031 46.5578 78.7027 47.4206 78.7027H74.7734C77.6553 78.7027 80 76.358 80 73.4759V40.5975C80 39.7345 79.3003 39.035 78.4375 39.035ZM11.1747 4.70359C11.215 4.53953 11.3638 4.42188 11.5338 4.42188H18.1831C18.3523 4.42188 18.4972 4.53375 18.5403 4.69594L18.9734 6.97453H10.7792L11.1747 4.70359ZM8.00469 31.6578L10.4327 26.8642C11.2469 25.2573 11.7053 23.5286 11.795 21.7259L12.3698 10.1003H17.2475L17.6652 21.3495C17.7395 23.3881 18.3127 25.4058 19.3228 27.185L21.7956 31.5356C21.9325 31.7769 22.0578 32.0241 22.173 32.2753H7.72219C7.80984 32.0664 7.9025 31.8597 8.00469 31.6578ZM23.0547 39.0347H6.96406V36.0159C6.96406 35.8105 6.97203 35.6052 6.98516 35.4003H23.0117C23.04 35.6991 23.0545 36.0003 23.0545 36.3003L23.0547 39.0347ZM36.2406 4.70359C36.2809 4.53953 36.4297 4.42188 36.5998 4.42188H43.2491C43.4183 4.42188 43.5631 4.53375 43.6062 4.69594L44.0395 6.97453H35.8453L36.2406 4.70359ZM33.0703 31.6578L35.4983 26.8642C36.3145 25.2534 36.7728 23.5244 36.8606 21.7259L37.4355 10.1003H42.3131L42.7308 21.3508C42.8069 23.3919 43.38 25.4091 44.3884 27.1848L46.8619 31.5366C46.9987 31.7775 47.1239 32.0242 47.2392 32.2753H32.7883C32.8758 32.0664 32.9683 31.8598 33.0703 31.6578ZM48.1203 39.0347H32.0297V36.0159C32.0297 35.8106 32.0377 35.6052 32.0509 35.4003H48.0775C48.1055 35.6991 48.1202 36.0002 48.1202 36.3003L48.1203 39.0347ZM61.3069 4.70359C61.3472 4.53953 61.4959 4.42188 61.6659 4.42188H68.3152C68.4844 4.42188 68.6292 4.53375 68.6723 4.69594L69.1056 6.97453H60.9116L61.3069 4.70359ZM58.1375 31.6578L60.5661 26.863C61.3802 25.253 61.8383 23.5248 61.9278 21.7259L62.5028 10.1003H67.3788L67.7964 21.3508C67.8727 23.3934 68.4466 25.4109 69.4555 27.1845L71.9275 31.5366C72.0645 31.7775 72.1897 32.0244 72.305 32.2753H57.855C57.9427 32.0664 58.0352 31.8597 58.1375 31.6578ZM73.1873 39.0347H57.0969V36.0159C57.0969 35.8105 57.1047 35.6053 57.1181 35.4003H73.1445C73.1733 35.6989 73.1873 36.0003 73.1873 36.3003V39.0347Z" fill="black"/>
<path d="M51.9578 52.2511C51.9578 49.0648 49.3656 46.4727 46.1793 46.4727H34.6832C31.4968 46.4727 28.9048 49.0648 28.9048 52.2511C28.9048 55.4373 31.497 58.0295 34.6832 58.0295H46.1793C49.3656 58.0295 51.9578 55.4373 51.9578 52.2511ZM32.0296 52.2511C32.0296 50.788 33.2199 49.5977 34.6831 49.5977H46.1792C47.6423 49.5977 48.8326 50.788 48.8326 52.2511C48.8326 53.7142 47.6423 54.9045 46.1792 54.9045H34.6831C33.2199 54.9045 32.0296 53.7142 32.0296 52.2511Z" fill="#E2251D"/>
<path d="M41.4547 75.8401C40.2801 75.0575 38.6951 76.1939 39.0825 77.5564C39.265 78.1981 39.842 78.6661 40.5111 78.7006C41.1776 78.735 41.8036 78.3206 42.0436 77.7015C42.3053 77.0267 42.054 76.2437 41.4547 75.8401Z" fill="#E2251D"/>
</svg>
