<svg width="359" height="359" viewBox="0 0 359 359" fill="none" xmlns="http://www.w3.org/2000/svg">
<path fill-rule="evenodd" clip-rule="evenodd" d="M308.491 245.958C310.776 235.609 310.248 224.567 306.774 214.554C333.257 203.926 351.961 178.015 351.961 147.732C351.961 107.98 319.735 75.7549 279.983 75.7549C277.931 75.7549 275.901 75.8458 273.894 76.014C255.332 53.5821 227.281 39.2883 195.891 39.2883C173.814 39.2883 153.39 46.3627 136.757 58.3639C118.248 38.0332 91.5744 25.2676 61.9133 25.2676C59.7748 25.2676 57.6538 25.3415 55.5477 25.4724C65.606 37.7981 72.8177 52.5375 76.1796 68.689C37.7427 70.1792 7.03906 101.804 7.03906 140.606C7.03906 168.293 22.6753 192.325 45.5964 204.365C40.9582 215.447 38.3952 227.612 38.3952 240.377C38.3952 291.936 80.1927 333.734 131.752 333.734C170.009 333.734 202.885 310.719 217.306 277.783C227.055 285.586 239.419 290.257 252.876 290.262C278.779 290.274 302.888 271.32 308.491 245.958Z" fill="white"/>
<path fill-rule="evenodd" clip-rule="evenodd" d="M255.654 248.161C151.476 248.161 63.8146 177.506 37.9356 81.5059C19.2627 94.5073 7.03906 116.127 7.03906 140.606C7.03906 168.293 22.6753 192.325 45.5964 204.365C40.9582 215.447 38.3952 227.612 38.3952 240.377C38.3952 291.936 80.1927 333.734 131.752 333.734C170.009 333.734 202.885 310.719 217.306 277.782C227.055 285.585 239.419 290.257 252.876 290.262C278.779 290.274 302.888 271.32 308.491 245.958C308.8 244.561 309.052 243.151 309.258 241.732C292.075 245.923 274.127 248.161 255.654 248.161Z" fill="#F0EDED"/>
<path d="M90.1136 102.355H65.5763C61.6893 102.355 58.5371 105.507 58.5371 109.395C58.5371 113.282 61.6893 116.434 65.5763 116.434H70.8058V165.479C70.8058 169.367 73.9579 172.518 77.845 172.518C81.732 172.518 84.8842 169.367 84.8842 165.479V116.434H90.1136C94.0007 116.434 97.1528 113.282 97.1528 109.395C97.1528 105.507 94.0007 102.355 90.1136 102.355Z" fill="#E2251D"/>
<path d="M244.347 172.52C241.727 172.52 239.264 171.052 238.053 168.628L223.345 139.213V165.479C223.345 169.367 220.193 172.519 216.306 172.519C212.418 172.519 209.267 169.367 209.267 165.479V109.394C209.267 106.13 211.511 103.294 214.688 102.544C217.866 101.793 221.142 103.327 222.602 106.246L237.309 135.661V109.395C237.309 105.507 240.462 102.356 244.349 102.356C248.236 102.356 251.388 105.507 251.388 109.395V165.48C251.388 168.745 249.143 171.581 245.966 172.331C245.426 172.459 244.883 172.52 244.347 172.52Z" fill="#E2251D"/>
<path d="M191.769 172.519C187.882 172.519 184.73 169.367 184.73 165.48V151.486H170.766V165.48C170.766 169.367 167.614 172.519 163.726 172.519C159.839 172.519 156.687 169.367 156.687 165.48V145.111C156.667 144.892 156.656 144.671 156.656 144.447C156.656 144.223 156.667 144.002 156.687 143.783V123.416C156.687 111.804 166.135 102.355 177.748 102.355C189.36 102.355 198.808 111.803 198.808 123.416V144.149C198.813 144.249 198.815 144.347 198.815 144.447C198.815 144.547 198.813 144.646 198.808 144.745V165.48C198.808 169.367 195.656 172.519 191.769 172.519ZM170.766 137.408H184.73V123.416C184.73 119.566 181.598 116.434 177.748 116.434C173.897 116.434 170.766 119.566 170.766 123.416V137.408Z" fill="#E2251D"/>
<path d="M146.249 137.438C146.249 137.3 146.236 137.165 146.228 137.03V109.396C146.228 105.508 143.077 102.356 139.189 102.356C135.302 102.356 132.15 105.508 132.15 109.396V130.399H118.185V109.396C118.185 105.508 115.033 102.356 111.146 102.356C107.259 102.356 104.106 105.508 104.106 109.396V165.481C104.106 169.368 107.259 172.52 111.146 172.52C115.033 172.52 118.185 169.368 118.185 165.481V144.478H132.15V165.481C132.15 169.368 135.302 172.52 139.189 172.52C143.077 172.52 146.228 169.368 146.228 165.481V137.847C146.236 137.71 146.249 137.576 146.249 137.438Z" fill="#E2251D"/>
<path d="M288.366 132.034L299.503 112.942C301.462 109.583 300.328 105.273 296.97 103.315C293.61 101.356 289.301 102.49 287.342 105.848L275.924 125.422V109.394C275.924 105.507 272.773 102.355 268.885 102.355C264.998 102.355 261.846 105.507 261.846 109.394V165.479C261.846 169.367 264.998 172.519 268.885 172.519C272.773 172.519 275.924 169.367 275.924 165.479V153.363L279.22 147.712L286.834 167.957C287.896 170.78 290.576 172.521 293.424 172.521C294.247 172.521 295.083 172.375 295.9 172.068C299.539 170.7 301.379 166.641 300.012 163.002L288.366 132.034Z" fill="#E2251D"/>
<path d="M179.5 256.646C167.887 256.646 158.439 247.198 158.439 235.585V207.542C158.439 195.93 167.887 186.482 179.5 186.482C191.113 186.482 200.561 195.93 200.561 207.542V235.585C200.561 247.198 191.113 256.646 179.5 256.646ZM179.5 200.561C175.65 200.561 172.518 203.693 172.518 207.542V235.585C172.518 239.435 175.65 242.567 179.5 242.567C183.351 242.567 186.482 239.435 186.482 235.585V207.542C186.482 203.693 183.351 200.561 179.5 200.561Z" fill="#E2251D"/>
<path d="M232.078 256.646C220.466 256.646 211.019 247.198 211.019 235.585V193.522C211.019 189.634 214.171 186.482 218.058 186.482C221.945 186.482 225.097 189.634 225.097 193.522V235.585C225.097 239.435 228.229 242.567 232.078 242.567C235.929 242.567 239.061 239.435 239.061 235.585V193.522C239.061 189.634 242.212 186.482 246.1 186.482C249.987 186.482 253.139 189.634 253.139 193.522V235.585C253.139 247.198 243.691 256.646 232.078 256.646Z" fill="#E2251D"/>
<path d="M140.942 186.482C137.055 186.482 133.902 189.634 133.902 193.522V214.553C133.902 218.402 130.771 221.535 126.92 221.535C123.071 221.535 119.939 218.402 119.939 214.553V193.522C119.939 189.634 116.787 186.482 112.9 186.482C109.013 186.482 105.86 189.634 105.86 193.522V214.553C105.86 223.697 111.72 231.496 119.881 234.399V249.607C119.881 253.494 123.033 256.646 126.92 256.646C130.807 256.646 133.959 253.494 133.959 249.607V234.399C142.12 231.495 147.981 223.697 147.981 214.553V193.522C147.981 189.634 144.829 186.482 140.942 186.482Z" fill="#E2251D"/>
<path d="M131.752 340.772C76.3931 340.772 31.3562 295.735 31.3562 240.376C31.3562 229.056 33.2117 218.012 36.8792 207.459C13.9813 193.037 0 167.96 0 140.606C0 120.043 7.85858 100.568 22.1292 85.7698C34.3521 73.0943 50.1671 64.9879 67.3435 62.4503C63.8091 50.642 57.925 39.52 50.0939 29.9228C48.4256 27.8779 48.0405 25.0713 49.0978 22.6527C50.1551 20.234 52.4766 18.6107 55.1107 18.4467C57.4414 18.3017 59.7299 18.2285 61.9134 18.2285C90.2582 18.2285 117.545 29.4497 137.706 49.2095C155.08 38.0939 175.068 32.2492 195.891 32.2492C227.046 32.2492 256.388 45.5167 276.963 68.775C277.978 68.7356 278.987 68.7159 279.983 68.7159C323.553 68.7159 359 104.163 359 147.732C359 163.821 354.192 179.305 345.095 192.508C337.432 203.631 327.188 212.515 315.219 218.475C317.398 227.861 317.469 237.948 315.365 247.476C309.089 275.884 282.237 297.301 252.901 297.301C252.889 297.301 252.885 297.301 252.873 297.301C241.297 297.295 229.905 294.112 220.033 288.219C202.584 320.401 168.795 340.772 131.752 340.772ZM69.2342 32.5941C75.8081 43.2529 80.5258 55.0267 83.0705 67.2545C83.4928 69.2818 83.0001 71.3922 81.7253 73.0239C80.4505 74.6556 78.521 75.6425 76.4522 75.7234C41.4765 77.0792 14.0784 105.58 14.0784 140.606C14.0784 164.818 27.4093 186.861 48.8705 198.133C52.1015 199.83 53.4994 203.716 52.0902 207.083C47.6745 217.635 45.4346 228.837 45.4346 240.377C45.4346 287.973 84.1566 326.695 131.752 326.695C166.047 326.695 197.097 306.387 210.858 274.959C211.736 272.954 213.497 271.471 215.622 270.948C217.747 270.424 219.995 270.918 221.705 272.286C230.638 279.436 241.418 283.218 252.88 283.223C252.887 283.223 252.894 283.223 252.9 283.223C275.791 283.223 296.732 266.554 301.617 244.44C303.643 235.271 303.113 225.478 300.124 216.863C298.892 213.313 300.666 209.422 304.153 208.022C328.919 198.083 344.922 174.418 344.922 147.732C344.922 111.925 315.79 82.7943 279.983 82.7943C278.188 82.7943 276.337 82.8732 274.482 83.0287C272.183 83.2181 269.94 82.2769 268.471 80.5016C250.5 58.7836 224.046 46.3277 195.892 46.3277C175.99 46.3277 156.965 52.4637 140.877 64.0721C137.974 66.167 133.962 65.7489 131.552 63.1028C115.386 45.3457 92.993 34.4595 69.2342 32.5941Z" fill="#E2251D"/>
</svg>
