<svg width="29" height="29" viewBox="0 0 29 29" fill="none" xmlns="http://www.w3.org/2000/svg">
<rect width="29" height="29" fill="white"/>
<g clip-path="url(#clip0_194_710)">
<path d="M21.9375 21.4061V12.9927C21.9375 12.3589 21.4222 11.8436 20.7884 11.8436H17.6875V7.98458C17.6875 7.93889 17.6774 7.36461 17.178 7.02992C16.6787 6.69577 16.1437 6.90508 16.1012 6.92208L8.30509 10.1324C7.87319 10.3104 7.59375 10.7269 7.59375 11.1949V21.4061H7.0625C6.76925 21.4061 6.53125 21.6441 6.53125 21.9373C6.53125 22.2306 6.76925 22.4686 7.0625 22.4686H8.125H17.1562H21.4062H21.9375C22.2308 22.4686 22.4688 22.2306 22.4688 21.9373C22.4688 21.6441 22.2308 21.4061 21.9375 21.4061ZM8.65625 11.1949C8.65625 11.1599 8.6775 11.1285 8.70991 11.1152L16.506 7.90542C16.5352 7.89374 16.5618 7.89639 16.5868 7.91339C16.6122 7.92986 16.625 7.95377 16.625 7.98458V12.3748V21.4061H8.65625V11.1949ZM17.6875 21.4061V12.9061H20.7884C20.8362 12.9061 20.875 12.9449 20.875 12.9927V21.4061H17.6875Z" fill="black"/>
<path d="M13.9688 18.75H11.3125C11.0193 18.75 10.7812 18.988 10.7812 19.2812C10.7812 19.5745 11.0193 19.8125 11.3125 19.8125H13.9688C14.262 19.8125 14.5 19.5745 14.5 19.2812C14.5 18.988 14.262 18.75 13.9688 18.75Z" fill="black"/>
<path d="M13.9688 16.625H11.3125C11.0193 16.625 10.7812 16.863 10.7812 17.1562C10.7812 17.4495 11.0193 17.6875 11.3125 17.6875H13.9688C14.262 17.6875 14.5 17.4495 14.5 17.1562C14.5 16.863 14.262 16.625 13.9688 16.625Z" fill="black"/>
<path d="M13.9688 14.5H11.3125C11.0193 14.5 10.7812 14.738 10.7812 15.0312C10.7812 15.3245 11.0193 15.5625 11.3125 15.5625H13.9688C14.262 15.5625 14.5 15.3245 14.5 15.0312C14.5 14.738 14.262 14.5 13.9688 14.5Z" fill="black"/>
<path d="M13.9688 12.375H11.3125C11.0193 12.375 10.7812 12.613 10.7812 12.9062C10.7812 13.1995 11.0193 13.4375 11.3125 13.4375H13.9688C14.262 13.4375 14.5 13.1995 14.5 12.9062C14.5 12.613 14.262 12.375 13.9688 12.375Z" fill="black"/>
</g>
<defs>
<clipPath id="clip0_194_710">
<rect width="17" height="17" fill="white" transform="translate(6 6)"/>
</clipPath>
</defs>
</svg>
