<svg width="29" height="29" viewBox="0 0 29 29" fill="none" xmlns="http://www.w3.org/2000/svg">
<rect width="29" height="29" fill="white"/>
<path d="M21.5059 8.52344H7.49414C6.66861 8.52344 6 9.1962 6 10.0176V18.9824C6 19.8087 6.67353 20.4766 7.49414 20.4766H21.5059C22.3245 20.4766 23 19.8115 23 18.9824V10.0176C23 9.19766 22.334 8.52344 21.5059 8.52344ZM21.2966 9.51953C20.9913 9.82317 15.7379 15.0489 15.5565 15.2294C15.2743 15.5116 14.8991 15.667 14.5 15.667C14.1009 15.667 13.7257 15.5116 13.4425 15.2284C13.3206 15.1071 8.1251 9.93902 7.70339 9.51953H21.2966ZM6.99609 18.7797V10.2209L11.3005 14.5027L6.99609 18.7797ZM7.70402 19.4805L12.0067 15.2051L12.7391 15.9337C13.2095 16.4041 13.8348 16.6631 14.5 16.6631C15.1652 16.6631 15.7905 16.4041 16.2599 15.9346L16.9933 15.2051L21.296 19.4805H7.70402ZM22.0039 18.7797L17.6995 14.5027L22.0039 10.2209V18.7797Z" fill="black"/>
</svg>
