<svg width="29" height="29" viewBox="0 0 29 29" fill="none" xmlns="http://www.w3.org/2000/svg">
<rect width="29" height="29" fill="white"/>
<g clip-path="url(#clip0_194_724)">
<path d="M19.4354 16.531C19.0874 16.1686 18.6676 15.9748 18.2227 15.9748C17.7814 15.9748 17.358 16.165 16.9956 16.5274L15.8618 17.6576C15.7685 17.6074 15.6753 17.5607 15.5856 17.5141C15.4564 17.4495 15.3344 17.3885 15.2303 17.3239C14.1683 16.6494 13.2031 15.7703 12.2775 14.6329C11.829 14.066 11.5276 13.5888 11.3087 13.1045C11.6029 12.8354 11.8756 12.5555 12.1411 12.2864C12.2416 12.1859 12.342 12.0819 12.4425 11.9814C13.196 11.228 13.196 10.252 12.4425 9.49856L11.463 8.51905C11.3518 8.40782 11.2369 8.29301 11.1293 8.17819C10.914 7.95574 10.688 7.72611 10.4548 7.51083C10.1067 7.16638 9.69053 6.9834 9.2528 6.9834C8.81507 6.9834 8.39169 7.16638 8.03289 7.51083C8.0293 7.51442 8.0293 7.51442 8.02571 7.51801L6.8058 8.74868C6.34654 9.20794 6.08462 9.76766 6.02722 10.4171C5.9411 11.4648 6.24967 12.4407 6.48647 13.0794C7.06773 14.6473 7.93601 16.1004 9.23127 17.6576C10.8028 19.5341 12.6937 21.0159 14.8536 22.06C15.6788 22.4511 16.7804 22.914 18.011 22.9929C18.0864 22.9965 18.1653 23.0001 18.2371 23.0001C19.0659 23.0001 19.762 22.7023 20.3073 22.1103C20.3109 22.1031 20.3181 22.0995 20.3217 22.0923C20.5082 21.8663 20.7235 21.6618 20.9496 21.4429C21.1039 21.2958 21.2617 21.1415 21.416 20.9801C21.7712 20.6105 21.9578 20.1799 21.9578 19.7386C21.9578 19.2937 21.7676 18.8667 21.4052 18.5079L19.4354 16.531ZM20.7199 20.3091C20.7164 20.3091 20.7164 20.3127 20.7199 20.3091C20.58 20.4598 20.4365 20.5961 20.2822 20.7468C20.049 20.9693 19.8122 21.2025 19.5897 21.4644C19.2273 21.8519 18.8004 22.0349 18.2407 22.0349C18.1868 22.0349 18.1294 22.0349 18.0756 22.0313C17.01 21.9632 16.0197 21.547 15.277 21.1917C13.2462 20.2086 11.463 18.8129 9.98115 17.0441C8.75766 15.5694 7.9396 14.206 7.39782 12.7421C7.06414 11.8487 6.94215 11.1526 6.99597 10.496C7.03185 10.0762 7.1933 9.72819 7.49111 9.43039L8.7146 8.20689C8.89041 8.04185 9.07699 7.95215 9.25997 7.95215C9.48601 7.95215 9.669 8.08849 9.78382 8.20331C9.7874 8.20689 9.79099 8.21048 9.79458 8.21407C10.0134 8.41859 10.2215 8.63028 10.4404 8.85632C10.5516 8.97113 10.6665 9.08595 10.7813 9.20435L11.7608 10.1839C12.1411 10.5642 12.1411 10.9158 11.7608 11.2961C11.6567 11.4002 11.5563 11.5042 11.4522 11.6047C11.1508 11.9133 10.8638 12.2003 10.5516 12.4802C10.5445 12.4873 10.5373 12.4909 10.5337 12.4981C10.2251 12.8067 10.2825 13.1081 10.3471 13.3126C10.3507 13.3233 10.3543 13.3341 10.3579 13.3449C10.6126 13.962 10.9714 14.5432 11.5168 15.2357L11.5204 15.2393C12.5107 16.4592 13.5548 17.41 14.7065 18.1384C14.8536 18.2317 15.0043 18.307 15.1478 18.3788C15.277 18.4434 15.399 18.5044 15.503 18.5689C15.5174 18.5761 15.5317 18.5869 15.5461 18.5941C15.6681 18.6551 15.7829 18.6838 15.9013 18.6838C16.1991 18.6838 16.3857 18.4972 16.4467 18.4362L17.6738 17.2091C17.7957 17.0871 17.9895 16.94 18.2155 16.94C18.438 16.94 18.621 17.0799 18.7322 17.2019C18.7358 17.2055 18.7358 17.2055 18.7394 17.2091L20.7163 19.1861C21.0859 19.552 21.0859 19.9288 20.7199 20.3091Z" fill="black"/>
<path d="M15.1873 10.0439C16.1273 10.2018 16.9813 10.6467 17.663 11.3284C18.3447 12.0101 18.786 12.864 18.9475 13.8041C18.9869 14.0409 19.1914 14.2059 19.4247 14.2059C19.4534 14.2059 19.4785 14.2023 19.5072 14.1988C19.7727 14.1557 19.9485 13.9045 19.9055 13.639C19.7117 12.5016 19.1735 11.4647 18.3519 10.6431C17.5302 9.82144 16.4933 9.28324 15.3559 9.08949C15.0904 9.04644 14.8428 9.22225 14.7962 9.48417C14.7495 9.74609 14.9218 10.0008 15.1873 10.0439Z" fill="black"/>
<path d="M22.9803 13.4991C22.661 11.6261 21.7783 9.92186 20.4221 8.5656C19.0658 7.20935 17.3616 6.32671 15.4886 6.00738C15.2267 5.96074 14.9792 6.14014 14.9325 6.40206C14.8895 6.66757 15.0653 6.91514 15.3308 6.96178C17.0028 7.24523 18.5276 8.03817 19.7404 9.24732C20.9531 10.4601 21.7425 11.9849 22.0259 13.6569C22.0654 13.8937 22.2699 14.0588 22.5031 14.0588C22.5318 14.0588 22.5569 14.0552 22.5856 14.0516C22.8476 14.0121 23.027 13.761 22.9803 13.4991Z" fill="black"/>
</g>
<defs>
<clipPath id="clip0_194_724">
<rect width="17" height="17" fill="white" transform="translate(6 6)"/>
</clipPath>
</defs>
</svg>
