<svg width="80" height="80" viewBox="0 0 80 80" fill="none" xmlns="http://www.w3.org/2000/svg">
<g clip-path="url(#clip0_237_786)">
<path d="M36.25 8.125C35.1875 8.125 34.375 8.9375 34.375 10V71.25C34.375 72.3125 35.1875 73.125 36.25 73.125C37.3125 73.125 38.125 72.3125 38.125 71.25V10C38.125 8.9375 37.3125 8.125 36.25 8.125Z" fill="#E2251D"/>
<path d="M19.5 71.9374C19.5625 72.0624 19.625 72.1874 19.6875 72.2499C19.75 72.3749 19.8125 72.4374 19.9375 72.5624C20.3125 72.9374 20.75 73.1249 21.25 73.1249C21.75 73.1249 22.25 72.9374 22.5625 72.5624C22.9375 72.1874 23.125 71.7499 23.125 71.2499C23.125 71.1249 23.125 70.9999 23.0625 70.8749C23.0625 70.7499 23 70.6249 22.9375 70.4999C22.875 70.3749 22.8125 70.3124 22.75 70.1874C22.6875 70.0624 22.625 69.9999 22.5 69.8749C22.4375 69.8124 22.3125 69.6874 22.25 69.6249C22.125 69.5624 22.0625 69.4999 21.9375 69.4374C21.8125 69.3749 21.6875 69.3749 21.5625 69.3124C20.9375 69.1874 20.3125 69.3749 19.875 69.8124C19.8125 69.8749 19.6875 69.9999 19.625 70.1249C19.5625 70.2499 19.5 70.3124 19.4375 70.4374C19.375 70.5624 19.375 70.6874 19.3125 70.8124C19.3125 70.9374 19.25 71.0624 19.25 71.1874C19.25 71.3124 19.25 71.4374 19.3125 71.5624C19.4375 71.7499 19.4375 71.8749 19.5 71.9374Z" fill="black"/>
<path d="M21.25 44.375C22.2855 44.375 23.125 43.5355 23.125 42.5C23.125 41.4645 22.2855 40.625 21.25 40.625C20.2145 40.625 19.375 41.4645 19.375 42.5C19.375 43.5355 20.2145 44.375 21.25 44.375Z" fill="#E2251D"/>
<path d="M21.25 37.1875C22.2855 37.1875 23.125 36.348 23.125 35.3125C23.125 34.277 22.2855 33.4375 21.25 33.4375C20.2145 33.4375 19.375 34.277 19.375 35.3125C19.375 36.348 20.2145 37.1875 21.25 37.1875Z" fill="#E2251D"/>
<path d="M21.25 65.9375C22.2855 65.9375 23.125 65.098 23.125 64.0625C23.125 63.027 22.2855 62.1875 21.25 62.1875C20.2145 62.1875 19.375 63.027 19.375 64.0625C19.375 65.098 20.2145 65.9375 21.25 65.9375Z" fill="black"/>
<path d="M21.25 58.75C22.2855 58.75 23.125 57.9105 23.125 56.875C23.125 55.8395 22.2855 55 21.25 55C20.2145 55 19.375 55.8395 19.375 56.875C19.375 57.9105 20.2145 58.75 21.25 58.75Z" fill="black"/>
<path d="M21.25 51.5625C22.2855 51.5625 23.125 50.723 23.125 49.6875C23.125 48.652 22.2855 47.8125 21.25 47.8125C20.2145 47.8125 19.375 48.652 19.375 49.6875C19.375 50.723 20.2145 51.5625 21.25 51.5625Z" fill="black"/>
<path d="M21.25 30C21.75 30 22.25 29.8125 22.5625 29.4375C22.9375 29.0625 23.125 28.625 23.125 28.125C23.125 27.625 22.9375 27.125 22.5625 26.8125C22.5 26.75 22.375 26.625 22.3125 26.5625C22.1875 26.5 22.125 26.4375 22 26.375C21.875 26.3125 21.75 26.3125 21.625 26.25C21.375 26.1875 21.125 26.1875 20.875 26.25C20.75 26.25 20.625 26.3125 20.5 26.375C20.375 26.4375 20.3125 26.5 20.1875 26.5625C20.0625 26.625 20 26.6875 19.9375 26.8125C19.875 26.9375 19.75 27 19.6875 27.125C19.625 27.25 19.5625 27.3125 19.5 27.4375C19.4375 27.5625 19.4375 27.6875 19.375 27.8125C19.375 27.9375 19.3125 28.0625 19.3125 28.1875C19.3125 28.6875 19.5 29.1875 19.875 29.5C20.25 29.8125 20.75 30 21.25 30Z" fill="#E2251D"/>
<path d="M43.75 8.125C42.6875 8.125 41.875 8.9375 41.875 10V71.25C41.875 72.3125 42.6875 73.125 43.75 73.125C44.8125 73.125 45.625 72.3125 45.625 71.25V10C45.625 8.9375 44.8125 8.125 43.75 8.125Z" fill="#E2251D"/>
<path d="M58.125 65.625C59.1605 65.625 60 64.7855 60 63.75C60 62.7145 59.1605 61.875 58.125 61.875C57.0895 61.875 56.25 62.7145 56.25 63.75C56.25 64.7855 57.0895 65.625 58.125 65.625Z" fill="#E2251D"/>
<path d="M58.125 69.375C57.0625 69.375 56.25 70.1875 56.25 71.25C56.25 72.25 57.0625 73.125 58.125 73.125C59.1875 73.125 60 72.25 60 71.25C60 70.1875 59.1875 69.375 58.125 69.375Z" fill="#E2251D"/>
<path d="M58.125 58.125C59.1605 58.125 60 57.2855 60 56.25C60 55.2145 59.1605 54.375 58.125 54.375C57.0895 54.375 56.25 55.2145 56.25 56.25C56.25 57.2855 57.0895 58.125 58.125 58.125Z" fill="#E2251D"/>
<path d="M58.125 43.125C59.1605 43.125 60 42.2855 60 41.25C60 40.2145 59.1605 39.375 58.125 39.375C57.0895 39.375 56.25 40.2145 56.25 41.25C56.25 42.2855 57.0895 43.125 58.125 43.125Z" fill="black"/>
<path d="M58.125 35.625C59.1605 35.625 60 34.7855 60 33.75C60 32.7145 59.1605 31.875 58.125 31.875C57.0895 31.875 56.25 32.7145 56.25 33.75C56.25 34.7855 57.0895 35.625 58.125 35.625Z" fill="black"/>
<path d="M58.125 50.625C59.1605 50.625 60 49.7855 60 48.75C60 47.7145 59.1605 46.875 58.125 46.875C57.0895 46.875 56.25 47.7145 56.25 48.75C56.25 49.7855 57.0895 50.625 58.125 50.625Z" fill="black"/>
<path d="M77.5 75.625H75V33.75C75 32.6875 74.1875 31.875 73.125 31.875H67.5V21.25C67.5 20.1875 66.6875 19.375 65.625 19.375H60V13.75C60 12.6875 59.1875 11.875 58.125 11.875H52.5V2.5C52.5 1.4375 51.6875 0.625 50.625 0.625H28.75C27.6875 0.625 26.875 1.4375 26.875 2.5V11.875H21.25C20.1875 11.875 19.375 12.6875 19.375 13.75V19.375H13.75C12.6875 19.375 11.875 20.1875 11.875 21.25V31.875H6.25C5.1875 31.875 4.375 32.6875 4.375 33.75V75.625H2.5C1.4375 75.625 0.625 76.4375 0.625 77.5C0.625 78.5625 1.4375 79.375 2.5 79.375H28.75H50.625H77.5C78.5625 79.375 79.375 78.5625 79.375 77.5C79.375 76.4375 78.5625 75.625 77.5 75.625ZM71.25 35.625V75.625H67.5V35.625H71.25ZM63.75 75.625H52.5V23.125H63.75V75.625ZM56.25 15.625V19.375H52.5V15.625H56.25ZM23.125 15.625H26.875V19.375H23.125V15.625ZM15.625 23.125H26.875V75.625H15.625V23.125ZM8.125 35.625H11.875V75.625H8.125V35.625ZM30.625 75.625V4.375H48.75V75.625H30.625Z" fill="black"/>
</g>
<defs>
<clipPath id="clip0_237_786">
<rect width="80" height="80" fill="white"/>
</clipPath>
</defs>
</svg>
