<svg width="80" height="80" viewBox="0 0 80 80" fill="none" xmlns="http://www.w3.org/2000/svg">
<g clip-path="url(#clip0_247_729)">
<path d="M29.3333 49.3333C29.3333 50.0692 29.9306 50.6666 30.6665 50.6666H36C36.7359 50.6666 37.3333 50.0692 37.3333 49.3333V41.3333C37.3333 40.5973 36.7359 40 36 40H30.6667C29.9308 40 29.3334 40.5973 29.3334 41.3333L29.3333 49.3333ZM32 42.6667H34.6667V48H32V42.6667Z" fill="black"/>
<path d="M30.6667 34.6666H36C36.7359 34.6666 37.3333 34.0692 37.3333 33.3333V25.3333C37.3333 24.5973 36.7359 24 36 24H30.6667C29.9308 24 29.3334 24.5973 29.3334 25.3333V33.3333C29.3333 34.0692 29.9306 34.6666 30.6667 34.6666ZM32 26.6666H34.6667V31.9998H32V26.6666Z" fill="black"/>
<path d="M20.6867 25.1427L40 13.5547L59.3133 25.1427C59.528 25.272 59.7653 25.3333 59.9986 25.3333C60.4519 25.3333 60.8933 25.1027 61.1427 24.6866C61.5227 24.0545 61.3174 23.2359 60.6867 22.8572L41.3333 11.2453V2.66672H48V5.33344H44C43.2641 5.33344 42.6667 5.93078 42.6667 6.66672C42.6667 7.40266 43.2641 8 44 8H49.3333C50.0692 8 50.6666 7.40266 50.6666 6.66672V1.33328C50.6666 0.597344 50.0692 0 49.3333 0H40C39.2641 0 38.6667 0.597344 38.6667 1.33328V11.2453L19.3135 22.8573C18.6828 23.2359 18.4775 24.0547 18.8575 24.6867C19.2347 25.3173 20.056 25.5227 20.6867 25.1427Z" fill="black"/>
<path d="M14.6667 50.6666C15.4027 50.6666 16 50.0692 16 49.3333V41.3333C16 40.5973 15.4027 40 14.6667 40H9.33328C8.59734 40 8 40.5973 8 41.3333V43.9998C8 44.7358 8.59734 45.3331 9.33328 45.3331C10.0692 45.3331 10.6666 44.7358 10.6666 43.9998V42.6666H13.3333V49.3333C13.3333 50.0692 13.9306 50.6666 14.6667 50.6666Z" fill="black"/>
<path d="M24 68V29.3333C24 28.5973 23.4027 28 22.6667 28C21.9308 28 21.3334 28.5973 21.3334 29.3333V68C21.3334 68.7359 21.9308 69.3333 22.6667 69.3333C23.4027 69.3333 24 68.7359 24 68Z" fill="black"/>
<path d="M17.3333 74.6664H62.6666C63.4025 74.6664 63.9998 74.0691 63.9998 73.3331C63.9998 72.5972 63.4025 71.9998 62.6666 71.9998H50.6666V58.6666H51.9998C52.7358 58.6666 53.3331 58.0692 53.3331 57.3333C53.3331 56.5973 52.7358 56 51.9998 56H28C27.2641 56 26.6667 56.5973 26.6667 57.3333C26.6667 58.0692 27.2641 58.6666 28 58.6666H29.3333V71.9997H17.3333C16.5973 71.9997 16 72.597 16 73.333C16 74.0689 16.5973 74.6664 17.3333 74.6664ZM41.3333 66.6664C42.0692 66.6664 42.6666 66.0691 42.6666 65.3331C42.6666 64.5972 42.0692 63.9998 41.3333 63.9998V58.6666H48V71.9997H41.3333V66.6664ZM32 58.6664H38.6667V63.9997C37.9308 63.9997 37.3334 64.597 37.3334 65.333C37.3334 66.0689 37.9308 66.6662 38.6667 66.6662V71.9997H32V58.6664Z" fill="black"/>
<path d="M70.6667 57.333H65.3335C64.5975 57.333 64.0002 57.9303 64.0002 58.6663V66.6663C64.0002 67.4022 64.5975 67.9996 65.3335 67.9996H70.6667C71.4027 67.9996 72 67.4022 72 66.6663V58.6663C72 57.9303 71.4027 57.333 70.6667 57.333ZM69.3333 65.333H66.6666V59.9997H69.3333V65.333Z" fill="#E2251D"/>
<path d="M70.6667 41.333H65.3335C64.5975 41.333 64.0002 41.9304 64.0002 42.6663V50.6663C64.0002 51.4022 64.5975 51.9996 65.3335 51.9996H70.6667C71.4027 51.9996 72 51.4022 72 50.6663V42.6663C72 41.9304 71.4027 41.333 70.6667 41.333ZM69.3333 49.333H66.6666V43.9997H69.3333V49.333Z" fill="#E2251D"/>
<path d="M68 77.333H12C11.2641 77.333 10.6667 77.9303 10.6667 78.6663C10.6667 79.4022 11.2641 79.9997 12 79.9997H68C68.736 79.9997 69.3333 79.4024 69.3333 78.6664C69.3333 77.9305 68.736 77.333 68 77.333Z" fill="black"/>
<path d="M78.6667 29.333C77.9308 29.333 77.3334 29.9304 77.3334 30.6663V31.9996H62.6667C61.9308 31.9996 61.3334 32.5969 61.3334 33.3329C61.3334 34.0688 61.9308 34.6661 62.6667 34.6661H77.3334V78.6661C77.3334 79.4021 77.9308 79.9994 78.6667 79.9994C79.4027 79.9994 80 79.4021 80 78.6661V30.6661C80 29.9304 79.4027 29.333 78.6667 29.333Z" fill="black"/>
<path d="M42.6667 49.3333C42.6667 50.0692 43.2641 50.6666 44 50.6666H49.3333C50.0693 50.6666 50.6666 50.0692 50.6666 49.3333V41.3333C50.6666 40.5973 50.0693 40 49.3333 40H44C43.2641 40 42.6667 40.5973 42.6667 41.3333V49.3333ZM45.3333 42.6667H48V48H45.3333V42.6667Z" fill="black"/>
<path d="M13.3333 65.3333C13.3333 65.16 13.2573 48 6.66656 48C0.0759375 48 0 65.16 0 65.3333C0 68.5533 2.29469 71.2453 5.33328 71.8653V78.6667C5.33328 79.4027 5.93062 80 6.66656 80C7.4025 80 7.99984 79.4027 7.99984 78.6667V71.8653C11.0386 71.2453 13.3333 68.5533 13.3333 65.3333ZM6.66672 69.3333C4.46141 69.3333 2.66672 67.5386 2.66672 65.3333C2.66672 58.6906 4.45078 50.6666 6.66672 50.6666C8.88266 50.6666 10.6667 58.6906 10.6667 65.3333C10.6667 67.5386 8.87203 69.3333 6.66672 69.3333Z" fill="#E2251D"/>
<path d="M58.6667 68.0003V28.0003C58.6667 27.2643 58.0694 26.667 57.3335 26.667C56.5975 26.667 56.0002 27.2643 56.0002 28.0003V68.0003C56.0002 68.7362 56.5975 69.3335 57.3335 69.3335C58.0694 69.3335 58.6667 68.7362 58.6667 68.0003Z" fill="black"/>
<path d="M44 34.6666H49.3333C50.0693 34.6666 50.6666 34.0692 50.6666 33.3333V25.3333C50.6666 24.5973 50.0693 24 49.3333 24H44C43.2641 24 42.6667 24.5973 42.6667 25.3333V33.3333C42.6667 34.0692 43.2641 34.6666 44 34.6666ZM45.3333 26.6666H48V31.9998H45.3333V26.6666Z" fill="black"/>
<path d="M1.33328 46.6671C2.06922 46.6671 2.66656 46.0698 2.66656 45.3338V34.6671H17.3333C18.0692 34.6671 18.6666 34.0698 18.6666 33.3338C18.6666 32.5979 18.0692 32.0005 17.3333 32.0005H2.66672V30.6673C2.66672 29.9313 2.06938 29.334 1.33344 29.334C0.5975 29.334 0 29.931 0 30.6671V45.3338C0 46.0698 0.597344 46.6671 1.33328 46.6671Z" fill="black"/>
</g>
<defs>
<clipPath id="clip0_247_729">
<rect width="80" height="80" fill="white"/>
</clipPath>
</defs>
</svg>
