<svg width="80" height="80" viewBox="0 0 80 80" fill="none" xmlns="http://www.w3.org/2000/svg">
<g clip-path="url(#clip0_237_831)">
<g clip-path="url(#clip1_237_831)">
<path d="M39.9598 53.1317C45.833 53.1317 50.5942 48.3705 50.5942 42.4972C50.5942 36.624 45.833 31.8628 39.9598 31.8628C34.0865 31.8628 29.3253 36.624 29.3253 42.4972C29.3253 48.3705 34.0865 53.1317 39.9598 53.1317Z" fill="#E2251D"/>
<path d="M62.9204 75.9314L54.2195 68.6L56.3142 66.1025L62.7593 71.5809L68.3182 66.022L62.2759 58.8518L63.001 57.8045C64.854 55.0653 66.2236 52.0039 67.0292 48.7813L67.2709 47.6534L76.858 46.8478V39.0331L67.5126 38.2274L67.2709 37.019C66.6264 33.7158 65.4179 30.6544 63.7261 27.7541L63.0816 26.7873L69.285 19.456L63.7261 13.8971L56.5559 20.1005L55.5891 19.456C52.85 17.6031 49.7885 16.2335 46.566 15.4278L45.4381 15.1861L44.5519 5.59902H36.7372L35.9315 14.9444L34.7231 15.1861C31.4199 15.8306 28.3585 17.0391 25.4582 18.7309L24.572 19.2949L17.2407 13.0915L11.6818 18.6504L17.7241 25.8206L16.999 26.8679C15.146 29.6071 13.7764 32.6685 12.9708 35.8911L12.8097 37.019L3.22256 37.8246V45.6393L12.568 46.4449L12.8097 47.6534C13.4542 50.9565 14.6626 54.018 16.3545 56.9183L16.999 57.885L10.7956 65.2163L16.3545 70.7753L22.5579 65.5386L24.6526 68.0361L16.1128 75.0451L6.36455 65.2969L12.9708 57.4822C11.5206 54.9042 10.4733 52.2455 9.8288 49.3452L0 48.5396V34.8437L10.2316 33.9575C11.0373 31.1378 12.1652 28.4792 13.7764 25.9817L7.33132 18.4893L17.0796 8.74102L24.8943 15.3473C27.4723 13.8971 30.1309 12.8498 33.0312 12.2053L33.8369 2.37646H47.5327L48.4189 12.6081C51.2387 13.4137 53.8973 14.5416 56.3948 16.1529L63.9678 9.78835L73.716 19.5366L67.1098 27.3513C68.5599 29.9293 69.6073 32.5879 70.2518 35.4882L80.0806 36.2939V49.9898L69.7684 50.7148C68.9627 53.5346 67.8348 56.1932 66.2236 58.6907L72.5881 66.2637L62.9204 75.9314Z" fill="black"/>
<path d="M19.8993 42.5781H16.6768C16.6768 42.0141 16.6768 41.4502 16.7573 40.8862L19.9799 41.1279C19.8993 41.6113 19.8993 42.0947 19.8993 42.5781Z" fill="black"/>
<path d="M20.3827 38.2274L17.2407 37.5024C17.4824 36.455 17.8047 35.3271 18.2075 34.3604L21.1884 35.4883C20.8661 36.3745 20.6244 37.3412 20.3827 38.2274ZM59.6174 38.2274C59.3757 37.2607 59.134 36.3745 58.8117 35.4883L61.7926 34.3604C62.1954 35.4077 62.5177 36.455 62.7594 37.5024L59.6174 38.2274ZM22.3968 32.9102L19.5771 31.3795C20.141 30.4127 20.705 29.446 21.3495 28.5598L23.9275 30.4933C23.3636 31.299 22.8802 32.1046 22.3968 32.9102ZM57.6033 32.9102C57.1199 32.1046 56.6365 31.299 56.0725 30.4933L58.6506 28.5598C59.2951 29.446 59.9396 30.3322 60.423 31.299L57.6033 32.9102ZM25.7805 28.3986L23.5247 26.1429C24.3304 25.3372 25.136 24.6121 26.0222 23.9676L27.9557 26.5457C27.2307 27.0291 26.5056 27.6736 25.7805 28.3986ZM54.139 28.3181C53.4945 27.6736 52.7694 27.0291 51.9638 26.4651L53.8973 23.8871C54.7835 24.5316 55.5892 25.2567 56.3948 26.0623L54.139 28.3181ZM30.3726 24.9344L28.8419 22.1147C29.8087 21.5507 30.856 21.1479 31.8228 20.7451L32.9507 23.7259C32.0645 24.1288 31.2589 24.451 30.3726 24.9344ZM49.5469 24.9344C48.7412 24.451 47.855 24.0482 46.9688 23.7259L48.0967 20.7451C49.144 21.1479 50.1108 21.6313 51.0776 22.1147L49.5469 24.9344ZM35.6899 22.9203L35.0454 19.7783C36.0927 19.5366 37.2206 19.3755 38.3485 19.2949L38.5902 22.5175C37.6234 22.598 36.6566 22.7592 35.6899 22.9203ZM44.2296 22.9203C43.3434 22.7592 42.3767 22.598 41.4099 22.5175L41.6516 19.2949C42.7795 19.3755 43.8268 19.5366 44.9547 19.7783L44.2296 22.9203Z" fill="black"/>
<path d="M63.2427 42.5781H60.0201C60.0201 42.0947 60.0201 41.6113 59.9396 41.0474L63.1621 40.8057C63.2427 41.3696 63.2427 42.0141 63.2427 42.5781Z" fill="black"/>
<path d="M39.9597 27.6737C48.0161 27.6737 54.5417 34.1994 54.5417 42.2558C54.5417 42.3364 54.3 49.7482 48.0966 57.7241C47.291 58.7714 46.6465 60.2216 46.3242 61.8328H33.6757C33.2729 60.141 32.7089 58.7714 31.9033 57.7241C25.6998 49.7482 25.4582 42.2558 25.4582 42.2558C25.3776 34.28 31.9033 27.6737 39.9597 27.6737ZM39.9597 24.4512C30.1309 24.4512 22.155 32.427 22.155 42.2558C22.155 42.8198 22.5579 51.0373 29.3252 59.7382C30.3726 61.1883 30.7754 63.4441 30.8559 65.136H49.0634C49.2245 63.4441 49.5468 61.1883 50.6747 59.7382C57.3615 51.1178 57.8449 42.9003 57.8449 42.2558C57.7643 32.427 49.7885 24.4512 39.9597 24.4512Z" fill="black"/>
<path d="M33.5637 45.7202L36.7702 45.3818L38.8342 64.9412L35.6278 65.2795L33.5637 45.7202Z" fill="black"/>
<path d="M41.1882 64.9385L43.2523 45.3792L46.4587 45.7175L44.3947 65.2768L41.1882 64.9385Z" fill="black"/>
<path d="M28.439 63.7666H51.6414V66.9892H28.439V63.7666Z" fill="black"/>
<path d="M28.439 69.084H51.6414V72.3065H28.439V69.084Z" fill="black"/>
<path d="M32.3866 74.4009H47.5326V77.6234H32.3866V74.4009Z" fill="black"/>
<path d="M30.292 65.6196H33.5146V71.1785H30.292V65.6196Z" fill="black"/>
</g>
</g>
<defs>
<clipPath id="clip0_237_831">
<rect width="80" height="80" fill="white"/>
</clipPath>
<clipPath id="clip1_237_831">
<rect width="80" height="80" fill="white"/>
</clipPath>
</defs>
</svg>
