<svg width="80" height="80" viewBox="0 0 80 80" fill="none" xmlns="http://www.w3.org/2000/svg">
<path d="M52.3366 21.5317H14.0258C13.3758 21.5317 12.8489 22.0586 12.8489 22.7086C12.8489 23.3586 13.3758 23.8855 14.0258 23.8855H52.3367C52.9867 23.8855 53.5136 23.3586 53.5136 22.7086C53.5136 22.0586 52.9866 21.5317 52.3366 21.5317Z" fill="black"/>
<path d="M14.0258 15.7219H33.1811C33.8311 15.7219 34.358 15.195 34.358 14.545C34.358 13.895 33.8311 13.3682 33.1811 13.3682H14.0258C13.3758 13.3682 12.8489 13.895 12.8489 14.545C12.8489 15.1952 13.3758 15.7219 14.0258 15.7219Z" fill="black"/>
<path d="M52.3366 28.7651H14.0258C13.3758 28.7651 12.8489 29.292 12.8489 29.942C12.8489 30.592 13.3758 31.1189 14.0258 31.1189H52.3367C52.9867 31.1189 53.5136 30.592 53.5136 29.942C53.5135 29.292 52.9866 28.7651 52.3366 28.7651Z" fill="black"/>
<path d="M22.7528 71.8231H10.4924C8.48001 71.8231 6.84267 70.1859 6.84267 68.1736V6.00328C6.84267 3.99094 8.48001 2.35359 10.4924 2.35359H45.8136C45.9277 2.35359 46.04 2.36406 46.1511 2.37906V9.71875C46.1511 13.0291 48.8442 15.722 52.1544 15.722H59.4939C59.5091 15.8333 59.5194 15.9456 59.5194 16.0597V36.1005C59.5194 36.7505 60.0463 37.2773 60.6963 37.2773C61.3463 37.2773 61.8731 36.7505 61.8731 36.1005V16.0598C61.8731 14.7689 61.3703 13.5552 60.4575 12.6422L49.2309 1.41563C48.3181 0.502813 47.1045 0 45.8136 0H10.4924C7.18204 0 4.48907 2.69313 4.48907 6.00328V68.1736C4.48907 71.4837 7.1822 74.1767 10.4924 74.1767H22.7528C23.4028 74.1767 23.9297 73.6498 23.9297 72.9998C23.9297 72.3498 23.4028 71.8231 22.7528 71.8231ZM57.8552 13.3684H52.1545C50.1422 13.3684 48.5049 11.7311 48.5049 9.71875V4.01813L57.8552 13.3684Z" fill="black"/>
<path d="M75.1497 57.6141L65.1781 40.7828C64.4514 39.5556 62.8698 39.15 61.642 39.8774L59.2165 41.3144C57.3339 42.4297 56.5381 44.6867 57.1845 46.6869C56.3673 46.983 55.4714 46.9783 54.6464 46.6594C52.7314 46.0569 51.2755 44.8449 48.8709 45.453C44.7881 46.4925 44.9122 46.4405 44.5428 46.5671C42.1522 45.206 40.7151 44.801 38.1773 45.7827L35.9151 46.6572C34.8678 47.0619 33.7137 46.966 32.7459 46.3925L32.1286 46.0286C32.4298 44.2236 31.6294 42.3188 29.9344 41.3147C29.9344 41.3147 29.9344 41.3147 29.9342 41.3146L27.5089 39.8777C26.2845 39.1525 24.6983 39.5585 23.973 40.7828L14.0011 57.6142C13.2744 58.8411 13.6787 60.4231 14.9062 61.1502L17.3315 62.5871C18.0655 63.0219 18.872 63.2286 19.6689 63.2286C20.5575 63.2286 21.4336 62.9711 22.1826 62.4861L22.6881 62.7844L21.6209 64.2708C20.3492 66.0424 20.7533 68.5058 22.5251 69.7777C23.3445 70.3658 24.3739 70.6344 25.4384 70.4672C25.6073 71.4546 26.1483 72.3786 27.0242 73.0077C27.8469 73.5983 28.8715 73.8672 29.938 73.6992C30.1073 74.6858 30.648 75.6091 31.5234 76.2377C32.7 77.0822 34.1628 77.1799 35.3817 76.6592C35.6484 77.3521 36.112 77.9777 36.7587 78.4421C38.4475 79.6541 40.7737 79.338 42.0859 77.7677L44.9219 79.4477C46.7973 80.5591 49.2172 79.9414 50.3292 78.0638C50.6136 77.5838 50.79 77.0606 50.8545 76.523L50.8609 76.5269C52.7336 77.636 55.1589 77.015 56.2683 75.1428C56.5895 74.6005 56.7656 74.0122 56.8084 73.4227C58.4591 73.8377 60.258 73.1444 61.1689 71.6069C61.4678 71.1025 61.6411 70.5577 61.6981 70.0094C63.4672 70.7036 65.5348 70.0327 66.5339 68.3464C67.0712 67.4394 67.2233 66.3775 66.9619 65.3561C66.8123 64.7717 66.5373 64.2413 66.1598 63.7933L67.723 62.88C69.0453 63.4228 70.5544 63.336 71.819 62.5869L74.244 61.15C75.4715 60.4235 75.877 58.8417 75.1497 57.6141ZM18.5312 60.5622L16.1059 59.1252C15.9981 59.0613 15.9623 58.9216 16.0261 58.8138L25.998 41.9821C26.0622 41.8738 26.2023 41.8386 26.3095 41.9024L28.7347 43.3391C29.8123 43.9777 30.1495 45.3599 29.5226 46.4178L21.61 59.7741C20.9784 60.8403 19.5975 61.1936 18.5312 60.5622ZM23.8976 67.8656C23.183 67.3525 23.0195 66.3585 23.533 65.6435L25.1015 63.4585C25.6012 62.7624 26.597 62.5719 27.3237 63.0936C28.037 63.6056 28.2006 64.6024 27.6887 65.3157L26.12 67.5006C25.608 68.2142 24.6106 68.3774 23.8976 67.8656ZM28.3969 71.0958C27.6836 70.5836 27.52 69.5866 28.032 68.8735L29.6006 66.6886C29.6006 66.6886 29.6006 66.6886 29.6006 66.6885C29.6006 66.6885 29.6006 66.6883 29.6008 66.6883L31.3319 64.2771C31.58 63.9316 31.9476 63.7031 32.3673 63.6344C32.4545 63.62 32.5419 63.613 32.6286 63.613C32.9589 63.613 33.2803 63.7158 33.5541 63.9122C33.8994 64.1603 34.1278 64.5278 34.1966 64.9475C34.2655 65.3674 34.1669 65.7888 33.9187 66.1342L30.6189 70.7308C30.1061 71.4456 29.1119 71.6092 28.3969 71.0958ZM32.8961 74.3256C32.1831 73.8138 32.0194 72.8175 32.5305 72.1044C32.5306 72.1041 32.5309 72.1038 32.5311 72.1035L35.8309 67.5071C36.3426 66.7939 37.3401 66.6302 38.0531 67.1421C38.7664 67.6541 38.93 68.651 38.418 69.3642L36.9519 71.4066C36.9519 71.4066 36.9519 71.4066 36.9517 71.4067L35.1181 73.9608C34.6061 74.6741 33.6095 74.838 32.8961 74.3256ZM38.1314 76.53C37.4186 76.0181 37.2547 75.0224 37.7655 74.3091L38.8637 72.7794C39.3756 72.066 40.373 71.9028 41.0859 72.4146C41.7991 72.9264 41.9628 73.9235 41.4508 74.6367L40.3534 76.165C39.8416 76.8785 38.8444 77.0422 38.1314 76.53ZM64.5094 67.1469C64.0616 67.9027 63.0828 68.1533 62.3269 67.7056C61.0469 66.9474 52.79 62.0556 51.9097 61.5341C51.3503 61.2028 50.6286 61.3874 50.2973 61.9466C49.9661 62.5058 50.1506 63.2277 50.7098 63.5589L58.5853 68.2247L58.5855 68.2249C59.3415 68.6727 59.5937 69.6485 59.1442 70.4075C58.6962 71.1636 57.717 71.4138 56.9614 70.9664C54.0486 69.2408 51.6834 67.8396 49.0817 66.2981C48.5222 65.9669 47.8006 66.1514 47.4694 66.7106C47.1381 67.2699 47.3226 67.9917 47.8819 68.323L53.6847 71.7608L53.6859 71.7616C54.4425 72.2108 54.6922 73.1861 54.2436 73.9436C53.7956 74.6997 52.8167 74.9502 52.0606 74.5024L48.9464 72.6575C48.9461 72.6574 48.9456 72.6572 48.9453 72.6569C48.945 72.6567 48.9447 72.6566 48.9444 72.6564L46.6717 71.3099C46.1123 70.9785 45.3906 71.163 45.0594 71.7224C44.7281 72.2816 44.9126 73.0035 45.4719 73.3347L47.745 74.6814C47.7453 74.6816 47.7456 74.6819 47.7459 74.6821C48.502 75.1299 48.7542 76.1055 48.3047 76.8646C47.8567 77.6206 46.8778 77.8711 46.1217 77.4233L43.47 75.8525C44.6067 74.0985 44.1744 71.7347 42.4586 70.5031C41.9547 70.1416 41.3936 69.9164 40.8197 69.8197C41.4284 68.1921 40.9036 66.2917 39.4256 65.2308C38.5506 64.6024 37.503 64.3853 36.5142 64.5403C36.3383 63.5114 35.7756 62.6102 34.9267 62.001C33.3301 60.8552 31.1605 61.0753 29.8203 62.4311C29.548 61.9528 29.172 61.5238 28.6964 61.1824C27.3697 60.2302 25.6472 60.2213 24.3337 61.0233L23.7945 60.705L31.1961 48.2114L31.5484 48.4192C33.1047 49.3411 35.0037 49.5333 36.7637 48.8527L39.0259 47.9781C40.3205 47.4778 41.0344 47.4452 42.3148 48.0494C41.477 48.9906 40.9797 50.2264 40.9797 51.5583V56.7763C40.9797 58.1622 42.1064 59.2905 43.4912 59.2914H43.4947C44.8837 59.2914 46.19 58.7506 47.1726 57.7686C47.7455 57.1961 48.1683 56.5136 48.4217 55.7686C49.9412 56.6685 62.4955 64.1027 63.9509 64.965C64.317 65.1819 64.5767 65.5283 64.6822 65.9405C64.7876 66.3522 64.7262 66.7808 64.5094 67.1469ZM73.045 59.1252L70.6195 60.5622C69.5533 61.1935 68.1723 60.8399 67.5411 59.7742L63.8323 53.5141C63.5009 52.9549 62.7787 52.7703 62.22 53.1013C61.6608 53.4325 61.4761 54.1544 61.8072 54.7136L65.5159 60.9739C65.5858 61.0917 65.6615 61.2038 65.74 61.313L64.7089 61.9153C64.5005 62.0388 64.3 62.1747 64.1083 62.3224L48.1203 52.8544C47.337 52.3908 46.3439 52.956 46.3439 53.8669C46.3316 53.9372 46.4655 55.1469 45.5087 56.1033C44.9706 56.641 44.2553 56.9372 43.4945 56.9372C43.4939 56.9372 43.4933 56.9372 43.4926 56.9372C43.4047 56.9372 43.3331 56.8647 43.3331 56.7756V51.5577C43.3331 50.1946 44.2709 49.0446 45.5392 48.7235L49.448 47.7342C50.8662 47.3758 51.668 48.1331 53.7915 48.8519C55.2658 49.4222 56.8687 49.3871 58.2916 48.7794L59.0019 49.9785C59.3333 50.538 60.0551 50.7224 60.6142 50.3913C61.1734 50.06 61.3581 49.3381 61.027 48.7789L59.628 46.4175C58.995 45.3491 59.3476 43.9722 60.4159 43.3389L62.8412 41.9022C62.9472 41.8392 63.0873 41.8714 63.153 41.9821L73.1245 58.8135C73.1889 58.9221 73.1534 59.061 73.045 59.1252Z" fill="#E2251D"/>
</svg>
