<svg width="80" height="80" viewBox="0 0 80 80" fill="none" xmlns="http://www.w3.org/2000/svg">
<g clip-path="url(#clip0_194_281)">
<path d="M77.0569 65.5731V55.4169V55.4138V55.4108V45.8398C77.0569 45.1923 76.532 44.668 75.885 44.668C75.238 44.668 74.7131 45.1923 74.7131 45.8398V54.2419H58.3173V48.5431C63.4998 47.5928 67.3407 43.0298 67.3407 37.702C67.3407 31.6235 62.3956 26.6785 56.3171 26.6785C51.5137 26.6785 47.2577 29.8114 45.8124 34.3524H37.9218V23.8348H74.7131V40.4456C74.7131 41.0925 75.238 41.6174 75.885 41.6174C76.532 41.6174 77.0569 41.0925 77.0569 40.4456V22.666V22.663V22.6599V14.4617C78.7524 13.9886 80 12.431 80 10.5865C80 8.36792 78.1946 6.5625 75.976 6.5625H36.6589C34.4397 6.5625 32.6349 8.36792 32.6349 10.5865C32.6349 12.431 33.8824 13.9886 35.578 14.4623V22.6495C35.578 22.6538 35.5774 22.6587 35.5774 22.663C35.5774 22.6678 35.578 22.6721 35.578 22.677V34.3524H30.6659C30.0189 34.3524 29.494 34.8773 29.494 35.5243C29.494 36.1719 30.0189 36.6962 30.6659 36.6962H57.2363C58.1628 36.6962 58.9166 37.45 58.9166 38.3765C58.9166 39.303 58.1628 40.0568 57.2363 40.0568H4.02405C3.09753 40.0568 2.34375 39.303 2.34375 38.3765C2.34375 37.45 3.09753 36.6962 4.02405 36.6962H25.2716C25.9186 36.6962 26.4435 36.1719 26.4435 35.5243C26.4435 34.8773 25.9186 34.3524 25.2716 34.3524H22.5226L23.197 28.2239C23.3185 27.1143 22.9614 26.0016 22.2168 25.1709C21.4722 24.3396 20.4053 23.8629 19.2896 23.8629H15.2698C14.1534 23.8629 13.0865 24.3396 12.3419 25.1709C11.5973 26.0016 11.2402 27.1143 11.3623 28.2239L12.0361 34.3524H4.02405C1.80542 34.3524 0 36.1578 0 38.3765C0 40.2209 1.24756 41.7786 2.94312 42.2522V65.5731C1.24756 66.0468 0 67.6038 0 69.4482C0 71.6675 1.80542 73.4723 4.02405 73.4723H17.7716C18.4186 73.4723 18.9435 72.948 18.9435 72.3004C18.9435 71.6528 18.4186 71.1285 17.7716 71.1285H4.02405C3.09753 71.1285 2.34375 70.3748 2.34375 69.4482C2.34375 68.5217 3.09753 67.7679 4.02405 67.7679H57.2363C58.1628 67.7679 58.9166 68.5217 58.9166 69.4482C58.9166 70.3748 58.1628 71.1285 57.2363 71.1285H23.1659C22.5183 71.1285 21.994 71.6528 21.994 72.3004C21.994 72.948 22.5183 73.4723 23.1659 73.4723H75.976C78.1946 73.4723 80 71.6675 80 69.4482C80 67.6038 78.7524 66.0468 77.0569 65.5731ZM37.9218 21.4911V14.6106H74.7131V21.4911H37.9218ZM34.9786 10.5865C34.9786 9.66003 35.7324 8.90625 36.6583 8.90625H75.976C76.9025 8.90625 77.6562 9.66003 77.6562 10.5865C77.6562 11.5131 76.9025 12.2668 75.976 12.2668H36.6589C35.7324 12.2668 34.9786 11.5131 34.9786 10.5865ZM13.6914 27.9675C13.6414 27.5134 13.7823 27.0752 14.0869 26.7346C14.3921 26.394 14.812 26.2067 15.2692 26.2067H19.2889C19.7467 26.2067 20.166 26.394 20.4712 26.7346C20.7764 27.0752 20.9167 27.5128 20.8667 27.9675L20.1648 34.3524H14.3939L13.6914 27.9675ZM74.7131 56.5857V65.4242H58.3173V56.5857H74.7131ZM55.9735 65.4242H5.28687V42.4005H55.9735V65.4242ZM61.2604 38.3765C61.2604 36.1578 59.455 34.3524 57.2363 34.3524H48.3069C49.6399 31.1658 52.7905 29.0216 56.3171 29.0216C61.1035 29.0216 64.9969 32.9156 64.9969 37.7014C64.9969 41.7505 62.1808 45.238 58.3173 46.1487V42.2522C60.0128 41.7786 61.2604 40.2209 61.2604 38.3765ZM75.976 71.1285H60.8911C61.1279 70.6171 61.2604 70.0482 61.2604 69.4482C61.2604 68.8489 61.1279 68.28 60.8911 67.7679H75.976C76.9025 67.7679 77.6562 68.5217 77.6562 69.4482C77.6562 70.3748 76.9025 71.1285 75.976 71.1285Z" fill="black"/>
<path d="M18.5223 28.8125H16.0364C15.3888 28.8125 14.8645 29.3374 14.8645 29.9844C14.8645 30.632 15.3888 31.1562 16.0364 31.1562H18.5223C19.1693 31.1562 19.6942 30.632 19.6942 29.9844C19.6942 29.3374 19.1693 28.8125 18.5223 28.8125Z" fill="#E2251D"/>
<path d="M17.6501 58.9923C17.8955 59.071 18.0603 59.2804 18.0603 59.5123V59.5691C18.0603 61.1536 19.3494 62.4426 20.9338 62.4426H40.3217C41.9061 62.4426 43.1952 61.1536 43.1952 59.5691V59.5276C43.1952 59.2944 43.3612 59.0863 43.6084 59.0094C45.849 58.313 47.3541 56.2671 47.3541 53.9185C47.3541 51.6205 45.8905 49.5886 43.7128 48.8611C43.4033 48.7579 43.1952 48.4668 43.1952 48.1372C43.1952 46.5527 41.9061 45.2637 40.3217 45.2637H20.9338C19.3494 45.2637 18.0603 46.5527 18.0603 48.1372C18.0603 48.4735 17.8455 48.775 17.5269 48.8867C15.3912 49.6338 13.9563 51.6559 13.9563 53.9185C13.9569 56.2408 15.4413 58.28 17.6501 58.9923ZM18.3008 51.0992C19.5587 50.6592 20.4041 49.4684 20.4041 48.1372C20.4041 47.8448 20.6415 47.6074 20.9338 47.6074H40.3217C40.614 47.6074 40.8514 47.8448 40.8514 48.1372C40.8514 49.4769 41.7029 50.661 42.9706 51.0846C44.1907 51.4917 45.0104 52.6306 45.0104 53.9185C45.0104 55.235 44.1675 56.3812 42.912 56.7719C41.6797 57.1552 40.8514 58.2623 40.8514 59.5276V59.5691C40.8514 59.8615 40.614 60.0989 40.3217 60.0989H20.9338C20.6415 60.0989 20.4041 59.8615 20.4041 59.5691V59.5123C20.4041 58.2593 19.5862 57.1539 18.3698 56.7615C17.132 56.3629 16.3007 55.2203 16.3007 53.9191C16.3007 52.6508 17.1045 51.5173 18.3008 51.0992Z" fill="#E2251D"/>
</g>
<defs>
<clipPath id="clip0_194_281">
<rect width="80" height="80" fill="white"/>
</clipPath>
</defs>
</svg>
