<svg width="383" height="360" viewBox="0 0 383 360" fill="none" xmlns="http://www.w3.org/2000/svg">
<path d="M55.1329 100.642L56.7449 103.919L60.3487 104.445L57.7408 106.996L58.3569 110.598L55.1329 108.897L51.9088 110.598L52.5249 106.996L49.916 104.445L53.5208 103.919L55.1329 100.642Z" fill="#EBEBEB"/>
<path d="M377.785 254.929L379.397 258.206L383.001 258.732L380.393 261.283L381.009 264.885L377.785 263.184L374.561 264.885L375.176 261.283L372.568 258.732L376.173 258.206L377.785 254.929Z" fill="#F5F5F5"/>
<path d="M313.874 350.044L315.486 353.321L319.091 353.846L316.482 356.398L317.098 360L313.874 358.3L310.65 360L311.266 356.398L308.657 353.846L312.262 353.321L313.874 350.044Z" fill="#F5F5F5"/>
<path d="M167.675 42.5289L168.273 43.7453L169.611 43.9403C169.945 43.9894 170.078 44.4005 169.836 44.6376L168.868 45.5849L169.096 46.9223C169.153 47.2564 168.804 47.5105 168.506 47.3535L167.309 46.7223L166.111 47.3535C165.812 47.5115 165.463 47.2564 165.521 46.9223L165.75 45.5849L164.782 44.6376C164.54 44.4015 164.673 43.9894 165.007 43.9403L166.345 43.7453L166.943 42.5289C167.093 42.2248 167.525 42.2248 167.675 42.5289Z" fill="#EBEBEB"/>
<path d="M3.01636 334.481L3.61451 335.697L4.95237 335.892C5.28633 335.942 5.41992 336.353 5.17767 336.59L4.20967 337.537L4.43796 338.874C4.49478 339.209 4.14587 339.463 3.84779 339.306L2.6505 338.674L1.4532 339.306C1.15413 339.463 0.805212 339.209 0.863033 338.874L1.09133 337.537L0.123324 336.59C-0.117929 336.354 0.0146619 335.942 0.348628 335.892L1.68648 335.697L2.28463 334.481C2.43516 334.177 2.86683 334.177 3.01636 334.481Z" fill="#F5F5F5"/>
<path d="M29.9099 29.6714L30.5081 30.8878L31.8459 31.0829C32.1799 31.1319 32.3135 31.5431 32.0712 31.7801L31.1032 32.7275L31.3315 34.0649C31.3884 34.399 31.0394 34.6531 30.7404 34.4951L29.5431 33.8638L28.3468 34.4951C28.0477 34.6531 27.6988 34.398 27.7556 34.0649L27.9839 32.7275L27.0159 31.7801C26.7746 31.5441 26.9072 31.1319 27.2412 31.0829L28.5791 30.8878L29.1772 29.6714C29.3287 29.3673 29.7604 29.3673 29.9099 29.6714Z" fill="#EBEBEB"/>
<path d="M28.2929 270.771C28.2929 271.505 27.7006 272.099 26.9697 272.099C26.2388 272.099 25.6465 271.505 25.6465 270.771C25.6465 270.038 26.2388 269.443 26.9697 269.443C27.6996 269.443 28.2929 270.038 28.2929 270.771Z" fill="#EBEBEB"/>
<path d="M217.247 104.29C217.247 105.023 216.655 105.617 215.924 105.617C215.193 105.617 214.601 105.023 214.601 104.29C214.601 103.556 215.193 102.962 215.924 102.962C216.655 102.962 217.247 103.556 217.247 104.29Z" fill="#EBEBEB"/>
<path d="M148.497 30.7711C148.497 31.5046 147.905 32.0989 147.174 32.0989C146.443 32.0989 145.851 31.5046 145.851 30.7711C145.851 30.0377 146.443 29.4434 147.174 29.4434C147.905 29.4434 148.497 30.0387 148.497 30.7711Z" fill="#F5F5F5"/>
<path d="M150.624 354.977C154.561 354.044 156.999 350.085 156.069 346.135C155.14 342.184 151.194 339.737 147.257 340.67C143.32 341.603 140.882 345.562 141.811 349.513C142.741 353.464 146.686 355.91 150.624 354.977Z" fill="#F0F0F0"/>
<path d="M146.392 343.566C144.836 343.566 143.391 344.067 142.215 344.927C141.826 345.827 141.606 346.818 141.606 347.858C141.606 351.919 144.886 355.2 148.934 355.2C150.3 355.2 151.586 354.82 152.682 354.161C152.672 354.151 152.672 354.151 152.682 354.151C153.23 353.131 153.539 351.97 153.539 350.73C153.539 346.777 150.339 343.566 146.392 343.566Z" fill="#E6E6E6"/>
<path d="M89.6525 220.079H28.9854V192.595L89.6525 120.233H118.678V194.153H133.721V220.079H118.678V242.559H89.6525V220.079ZM89.6525 194.153V156.303L57.5957 194.153H89.6525Z" fill="#E2251D"/>
<path d="M144.106 181.929C144.106 159.067 148.207 143.07 156.411 133.935C164.615 124.801 177.109 120.233 193.899 120.233C201.965 120.233 208.589 121.233 213.767 123.228C218.945 125.225 223.17 127.823 226.439 131.022C229.709 134.222 232.285 137.585 234.166 141.113C236.047 144.641 237.559 148.757 238.703 153.462C240.938 162.432 242.055 171.785 242.055 181.52C242.055 203.342 238.375 219.315 231.017 229.432C223.658 239.551 210.985 244.609 192.998 244.609C182.913 244.609 174.764 242.995 168.552 239.769C162.337 236.542 157.24 231.811 153.262 225.576C150.371 221.146 148.123 215.088 146.517 207.404C144.909 199.719 144.106 191.228 144.106 181.929ZM177.138 182.011C177.138 197.326 178.487 207.787 181.185 213.394C183.883 219 187.794 221.803 192.917 221.803C196.297 221.803 199.227 220.613 201.707 218.233C204.187 215.855 206.013 212.095 207.186 206.954C208.357 201.813 208.944 193.799 208.944 182.914C208.944 166.945 207.595 156.21 204.897 150.714C202.199 145.216 198.152 142.468 192.755 142.468C187.249 142.468 183.27 145.272 180.817 150.878C178.364 156.484 177.138 166.862 177.138 182.011Z" fill="#E2251D"/>
<path d="M313.025 220.079H252.358V192.595L313.025 120.233H342.051V194.153H357.094V220.079H342.051V242.559H313.025V220.079ZM313.025 194.153V156.303L280.97 194.153H313.025Z" fill="#E2251D"/>
<g opacity="0.3">
<path d="M142.76 78.0047C142.76 79.0353 141.928 79.8708 140.901 79.8708C139.874 79.8708 139.041 79.0353 139.041 78.0047C139.041 76.9741 139.874 76.1387 140.901 76.1387C141.928 76.1387 142.76 76.9741 142.76 78.0047Z" fill="#E2251D"/>
<path d="M15.1679 149.863C15.8965 149.863 16.4871 149.271 16.4871 148.54C16.4871 147.808 15.8965 147.216 15.1679 147.216C14.4393 147.216 13.8486 147.808 13.8486 148.54C13.8486 149.271 14.4393 149.863 15.1679 149.863Z" fill="#E2251D"/>
<path d="M232.583 342.702C233.625 342.702 234.471 341.854 234.471 340.808C234.471 339.762 233.625 338.914 232.583 338.914C231.54 338.914 230.695 339.762 230.695 340.808C230.695 341.854 231.54 342.702 232.583 342.702Z" fill="#E2251D"/>
<path d="M277.887 265.773C278.615 265.773 279.206 265.18 279.206 264.449C279.206 263.718 278.615 263.125 277.887 263.125C277.158 263.125 276.567 263.718 276.567 264.449C276.567 265.18 277.158 265.773 277.887 265.773Z" fill="#E2251D"/>
<path d="M365.291 27.9888C365.291 28.7202 364.7 29.3126 363.972 29.3126C363.243 29.3126 362.652 28.7202 362.652 27.9888C362.652 27.2574 363.243 26.665 363.972 26.665C364.7 26.665 365.291 27.2574 365.291 27.9888Z" fill="#E2251D"/>
<path d="M114.648 1.32377C114.648 2.05519 114.058 2.64754 113.329 2.64754C112.6 2.64754 112.01 2.05519 112.01 1.32377C112.01 0.592341 112.6 0 113.329 0C114.058 0 114.648 0.592341 114.648 1.32377Z" fill="#E2251D"/>
<path d="M219.266 70.6505C219.994 70.6505 220.585 70.0578 220.585 69.3267C220.585 68.5956 219.994 68.0029 219.266 68.0029C218.537 68.0029 217.946 68.5956 217.946 69.3267C217.946 70.0578 218.537 70.6505 219.266 70.6505Z" fill="#E2251D"/>
</g>
<path d="M83.2242 70.655C95.2874 70.655 105.067 60.8423 105.067 48.7377C105.067 36.6331 95.2874 26.8203 83.2242 26.8203C71.161 26.8203 61.3818 36.6331 61.3818 48.7377C61.3818 60.8423 71.161 70.655 83.2242 70.655Z" fill="#E2251D"/>
<path opacity="0.7" d="M83.2242 70.655C95.2874 70.655 105.067 60.8423 105.067 48.7377C105.067 36.6331 95.2874 26.8203 83.2242 26.8203C71.161 26.8203 61.3818 36.6331 61.3818 48.7377C61.3818 60.8423 71.161 70.655 83.2242 70.655Z" fill="white"/>
<path opacity="0.2" d="M75.6965 32.2012C72.635 32.2012 69.7289 32.8364 67.0821 33.9718C63.5431 37.8661 61.3838 43.0528 61.3838 48.7387C61.3838 60.8398 71.1605 70.6501 83.2202 70.6501C86.2917 70.6501 89.2186 70.0149 91.8764 68.8695C91.8764 68.8695 91.8764 68.8695 91.8764 68.8595C95.3945 64.9642 97.5428 59.7984 97.5428 54.1235C97.5438 42.0115 87.7671 32.2012 75.6965 32.2012Z" fill="#E2251D"/>
<path opacity="0.2" d="M73.5259 37.9963C73.5259 39.103 72.6314 40.0005 71.5286 40.0005C70.4257 40.0005 69.5312 39.103 69.5312 37.9963C69.5312 36.8897 70.4257 35.9922 71.5286 35.9922C72.6314 35.9922 73.5259 36.8897 73.5259 37.9963Z" fill="#E2251D"/>
<path opacity="0.2" d="M97.0132 35.9924C97.0132 37.0991 96.1187 37.9966 95.0159 37.9966C93.913 37.9966 93.0186 37.0991 93.0186 35.9924C93.0186 34.8858 93.913 33.9883 95.0159 33.9883C96.1187 33.9893 97.0132 34.8858 97.0132 35.9924Z" fill="#E2251D"/>
<path opacity="0.2" d="M93.0182 50.2781C93.0182 52.0887 91.5557 53.5572 89.7503 53.5572C87.9459 53.5572 86.4824 52.0887 86.4824 50.2781C86.4824 48.4675 87.9449 46.999 89.7503 46.999C91.5547 46.999 93.0182 48.4675 93.0182 50.2781Z" fill="#E2251D"/>
<path opacity="0.2" d="M82.6344 59.6266C82.6344 62.0474 80.6784 64.0091 78.2669 64.0091C75.8544 64.0091 73.8994 62.0464 73.8994 59.6266C73.8994 57.2058 75.8554 55.2441 78.2669 55.2441C80.6784 55.2441 82.6344 57.2068 82.6344 59.6266Z" fill="#E2251D"/>
<path d="M342.099 313.168C344.532 302.831 338.152 292.472 327.851 290.031C317.549 287.591 307.226 293.992 304.793 304.329C302.361 314.666 308.74 325.025 319.042 327.466C329.343 329.906 339.667 323.505 342.099 313.168Z" fill="#E2251D"/>
<path opacity="0.3" d="M342.099 313.168C344.532 302.831 338.152 292.472 327.851 290.031C317.549 287.591 307.226 293.992 304.793 304.329C302.361 314.666 308.74 325.025 319.042 327.466C329.343 329.906 339.667 323.505 342.099 313.168Z" fill="white"/>
<path opacity="0.4" d="M335.546 293.798C333.802 293.266 331.945 292.985 330.025 292.985C319.439 292.985 310.855 301.598 310.855 312.22C310.855 318.24 313.606 323.603 317.924 327.133C319.667 327.664 321.524 327.945 323.445 327.945C334.032 327.945 342.614 319.332 342.614 308.711C342.614 302.692 339.864 297.318 335.546 293.798Z" fill="#E2251D"/>
<path d="M305.136 314.414C284.666 324.079 299.937 331.529 328.775 321.129C355.476 311.5 365.628 299.353 341.787 303.117C343.017 308.227 309.575 321.302 305.136 314.414Z" fill="#E2251D"/>
<path opacity="0.2" d="M335.309 120.23C308.502 138.407 273.8 162.375 264.219 220.074H262.176C271.497 163.075 304.933 138.477 331.75 120.23H335.309Z" fill="black"/>
<path d="M196.66 300.728C179.743 300.729 162.956 293.063 154.804 280.535C149.767 272.793 143.918 256.577 161.339 234.941L162.89 236.2C150.566 251.504 148.287 266.86 156.474 279.441C166.437 294.756 189.966 302.455 210.038 296.975C230.602 291.36 243.088 273.41 244.293 247.731C248.415 159.894 294.92 132.837 328.877 113.081C349.973 100.806 365.216 91.9374 361.866 73.2291C361.401 70.6332 360.369 68.8396 358.712 67.7463C354.373 64.8773 345.899 66.86 336.089 69.1547C316.842 73.6533 290.484 79.8153 274.781 53.0153L276.5 52.001C291.46 77.5326 315.955 71.8076 335.636 67.2051C345.894 64.8083 354.754 62.7366 359.809 66.0737C361.947 67.4862 363.262 69.7109 363.829 72.875C367.426 92.9637 350.856 102.605 329.877 114.811C296.317 134.337 250.355 161.078 246.284 247.824C245.035 274.429 232.015 293.047 210.56 298.905C206.039 300.139 201.343 300.727 196.66 300.728Z" fill="#E2251D"/>
<path opacity="0.2" d="M196.66 300.728C179.743 300.729 162.956 293.063 154.804 280.535C149.767 272.793 143.918 256.577 161.339 234.941L162.89 236.2C150.566 251.504 148.287 266.86 156.474 279.441C166.437 294.756 189.966 302.455 210.038 296.975C230.602 291.36 243.088 273.41 244.293 247.731C248.415 159.894 294.92 132.837 328.877 113.081C349.973 100.806 365.216 91.9374 361.866 73.2291C361.401 70.6332 360.369 68.8396 358.712 67.7463C354.373 64.8773 345.899 66.86 336.089 69.1547C316.842 73.6533 290.484 79.8153 274.781 53.0153L276.5 52.001C291.46 77.5326 315.955 71.8076 335.636 67.2051C345.894 64.8083 354.754 62.7366 359.809 66.0737C361.947 67.4862 363.262 69.7109 363.829 72.875C367.426 92.9637 350.856 102.605 329.877 114.811C296.317 134.337 250.355 161.078 246.284 247.824C245.035 274.429 232.015 293.047 210.56 298.905C206.039 300.139 201.343 300.727 196.66 300.728Z" fill="white"/>
<path d="M254.221 29.3185C261.055 29.1934 267.761 31.4532 267.761 31.4532C267.761 31.4532 278.692 50.2305 280.025 54.528C279.565 58.7694 272.433 65.7227 272.433 65.7227L254.221 29.3185Z" fill="#E2251D"/>
<path opacity="0.3" d="M254.221 29.3185C261.055 29.1934 267.761 31.4532 267.761 31.4532C267.761 31.4532 278.692 50.2305 280.025 54.528C279.565 58.7694 272.433 65.7227 272.433 65.7227L254.221 29.3185Z" fill="white"/>
<path d="M286.7 120.534C282.577 115.284 278.529 109.936 275.177 104.143C274.34 102.696 273.546 101.221 272.796 99.7266C272.369 98.8773 271.956 98.021 271.555 97.1587C271.205 96.4055 270.433 95.2961 270.355 94.4738C269.158 81.7976 273.482 72.4664 269.33 62.291L252.91 68.7302C252.91 68.7302 254.307 86.8583 257.494 97.7029C259.472 104.431 263.949 110.256 268.264 115.646C269.613 117.333 270.914 119.057 272.261 120.746C273.536 122.344 274.965 123.811 276.243 125.401C278.184 127.815 278.83 130.119 277.354 132.965C277.276 133.117 277.193 133.268 277.108 133.418C276.69 134.159 278.649 134.999 279.881 133.439C281.916 130.857 281.596 131.016 283.332 128.814C284.386 127.478 285.596 126.034 286.641 124.78C287.662 123.557 287.684 121.786 286.7 120.534Z" fill="#E2251D"/>
<path opacity="0.7" d="M286.7 120.534C282.577 115.284 278.529 109.936 275.177 104.143C274.34 102.696 273.546 101.221 272.796 99.7266C272.369 98.8773 271.956 98.021 271.555 97.1587C271.205 96.4055 270.433 95.2961 270.355 94.4738C269.158 81.7976 273.482 72.4664 269.33 62.291L252.91 68.7302C252.91 68.7302 254.307 86.8583 257.494 97.7029C259.472 104.431 263.949 110.256 268.264 115.646C269.613 117.333 270.914 119.057 272.261 120.746C273.536 122.344 274.965 123.811 276.243 125.401C278.184 127.815 278.83 130.119 277.354 132.965C277.276 133.117 277.193 133.268 277.108 133.418C276.69 134.159 278.649 134.999 279.881 133.439C281.916 130.857 281.596 131.016 283.332 128.814C284.386 127.478 285.596 126.034 286.641 124.78C287.662 123.557 287.684 121.786 286.7 120.534Z" fill="white"/>
<path opacity="0.3" d="M282.686 115.316C280.488 117.982 276.019 121.44 274.049 122.842C274.478 123.321 274.902 123.81 275.328 124.299C279.383 121.642 282.589 118.193 283.806 116.793C283.43 116.308 283.058 115.812 282.686 115.316Z" fill="#E2251D"/>
<path opacity="0.3" d="M286.696 120.536C286.658 120.484 286.618 120.442 286.58 120.391C285.888 121.114 285.401 122.267 285.319 123.562C285.253 124.456 285.403 125.274 285.695 125.913C286.027 125.527 286.337 125.145 286.641 124.782C287.666 123.558 287.68 121.788 286.696 120.536Z" fill="#E2251D"/>
<path d="M250.315 41.3248C248.597 43.8316 246.572 46.3025 243.959 48.5212C242.662 49.6366 241.182 50.6459 239.556 51.5022C238.736 51.9223 237.873 52.2865 236.981 52.5876L236.308 52.8046L236.091 52.8727C235.933 52.9207 235.775 52.9637 235.615 53.0017C235.314 53.0697 235.012 53.1157 234.745 53.1378C233.665 53.2198 232.883 53.0657 232.238 52.9047C230.965 52.5566 230.114 52.0914 229.31 51.6402C228.517 51.1811 227.821 50.7109 227.162 50.2258C225.864 49.2344 224.69 48.2391 223.595 47.1768C221.392 45.066 219.438 42.8773 217.624 40.4395C216.796 39.3281 217.024 37.7546 218.131 36.9253C218.986 36.2841 220.115 36.2741 220.966 36.8133L221.041 36.8623C223.394 38.3608 225.768 39.9413 228.084 41.3558C229.253 42.048 230.395 42.7443 231.519 43.2864C232.071 43.5665 232.612 43.8216 233.101 44.0027C233.577 44.1887 234.051 44.2948 234.175 44.2698C234.226 44.2668 234.165 44.1957 233.798 44.2087C233.709 44.2138 233.583 44.2258 233.456 44.2538C233.382 44.2678 233.31 44.2868 233.239 44.3098C233.17 44.3328 233.267 44.2908 233.273 44.2848L233.603 44.1157C234.042 43.8916 234.463 43.6116 234.889 43.3265C235.743 42.7473 236.555 42.012 237.385 41.2057C239.026 39.5702 240.605 37.5345 242.272 35.4178L242.293 35.3888C244 33.2201 247.136 32.8509 249.298 34.5635C251.367 36.2031 251.783 39.1731 250.315 41.3248Z" fill="#E2251D"/>
<path opacity="0.7" d="M250.315 41.3248C248.597 43.8316 246.572 46.3025 243.959 48.5212C242.662 49.6366 241.182 50.6459 239.556 51.5022C238.736 51.9223 237.873 52.2865 236.981 52.5876L236.308 52.8046L236.091 52.8727C235.933 52.9207 235.775 52.9637 235.615 53.0017C235.314 53.0697 235.012 53.1157 234.745 53.1378C233.665 53.2198 232.883 53.0657 232.238 52.9047C230.965 52.5566 230.114 52.0914 229.31 51.6402C228.517 51.1811 227.821 50.7109 227.162 50.2258C225.864 49.2344 224.69 48.2391 223.595 47.1768C221.392 45.066 219.438 42.8773 217.624 40.4395C216.796 39.3281 217.024 37.7546 218.131 36.9253C218.986 36.2841 220.115 36.2741 220.966 36.8133L221.041 36.8623C223.394 38.3608 225.768 39.9413 228.084 41.3558C229.253 42.048 230.395 42.7443 231.519 43.2864C232.071 43.5665 232.612 43.8216 233.101 44.0027C233.577 44.1887 234.051 44.2948 234.175 44.2698C234.226 44.2668 234.165 44.1957 233.798 44.2087C233.709 44.2138 233.583 44.2258 233.456 44.2538C233.382 44.2678 233.31 44.2868 233.239 44.3098C233.17 44.3328 233.267 44.2908 233.273 44.2848L233.603 44.1157C234.042 43.8916 234.463 43.6116 234.889 43.3265C235.743 42.7473 236.555 42.012 237.385 41.2057C239.026 39.5702 240.605 37.5345 242.272 35.4178L242.293 35.3888C244 33.2201 247.136 32.8509 249.298 34.5635C251.367 36.2031 251.783 39.1731 250.315 41.3248Z" fill="white"/>
<path d="M213.872 34.7875L215.04 36.7542C215.04 36.7542 215.932 39.3711 217.718 39.8552L222.557 38.2827L222.315 37.8746C222.317 37.8756 222.32 37.8756 222.322 37.8756C221.701 36.9282 221.768 35.1016 221.987 33.5821C222.204 32.0626 221.418 32.0086 220.838 32.3867C220.503 32.6048 220.266 33.298 219.994 34.0453C219.756 33.7162 219.5 33.3991 219.212 33.111L217.734 31.6335C217.096 30.9963 216.074 30.9672 215.401 31.5674L214.203 32.6358C213.593 33.18 213.454 34.0833 213.872 34.7875Z" fill="#E2251D"/>
<path opacity="0.7" d="M213.872 34.7875L215.04 36.7542C215.04 36.7542 215.932 39.3711 217.718 39.8552L222.557 38.2827L222.315 37.8746C222.317 37.8756 222.32 37.8756 222.322 37.8756C221.701 36.9282 221.768 35.1016 221.987 33.5821C222.204 32.0626 221.418 32.0086 220.838 32.3867C220.503 32.6048 220.266 33.298 219.994 34.0453C219.756 33.7162 219.5 33.3991 219.212 33.111L217.734 31.6335C217.096 30.9963 216.074 30.9672 215.401 31.5674L214.203 32.6358C213.593 33.18 213.454 34.0833 213.872 34.7875Z" fill="white"/>
<path d="M259.12 27.5927C254.486 28.7211 248.118 31.375 243.819 34.0629C242.294 35.0152 241.534 36.8238 241.892 38.5894C243.811 48.0326 248.187 60.6818 252.911 68.7285L274.954 59.5785C275.106 55.6771 269.754 43.0529 264.303 30.8518C263.324 28.6571 261.449 27.0265 259.12 27.5927Z" fill="#E2251D"/>
<path opacity="0.8" d="M259.12 27.5927C254.486 28.7211 248.118 31.375 243.819 34.0629C242.294 35.0152 241.534 36.8238 241.892 38.5894C243.811 48.0326 248.187 60.6818 252.911 68.7285L274.954 59.5785C275.106 55.6771 269.754 43.0529 264.303 30.8518C263.324 28.6571 261.449 27.0265 259.12 27.5927Z" fill="white"/>
<path opacity="0.3" d="M267.717 38.5867L263.343 37.1152C264.322 39.6831 267.862 42.9382 270.351 44.8498C269.531 42.8432 268.641 40.7455 267.717 38.5867Z" fill="#E2251D"/>
<path d="M257.669 17.6857C255.85 14.2036 251.913 12.451 247.186 12.8471C243.2 13.1812 239.665 17.2646 240.085 19.4713C240.503 21.6781 243.858 22.6124 244.465 23.3786L241.701 25.3893C240.325 26.3906 240.056 28.3373 241.107 29.6777C242.27 31.1602 243.801 32.7088 244.693 33.8021C252.334 33.6031 257.984 30.6781 260.02 27.8641C259.288 24.2839 259.479 21.1489 257.669 17.6857Z" fill="#E2251D"/>
<path opacity="0.8" d="M257.669 17.6857C255.85 14.2036 251.913 12.451 247.186 12.8471C243.2 13.1812 239.665 17.2646 240.085 19.4713C240.503 21.6781 243.858 22.6124 244.465 23.3786L241.701 25.3893C240.325 26.3906 240.056 28.3373 241.107 29.6777C242.27 31.1602 243.801 32.7088 244.693 33.8021C252.334 33.6031 257.984 30.6781 260.02 27.8641C259.288 24.2839 259.479 21.1489 257.669 17.6857Z" fill="white"/>
<path d="M253.924 19.8424C255.441 23.7397 253.524 28.1332 249.64 29.6557C245.756 31.1782 241.378 29.2545 239.861 25.3572C238.343 21.4609 240.26 17.0664 244.144 15.5439C248.027 14.0214 252.406 15.9461 253.924 19.8424Z" fill="#263238"/>
<path d="M318.652 109.993C318.541 106.703 318.399 107.032 318.304 104.227C318.246 102.524 318.239 100.637 318.228 99.0024C318.217 97.4068 317.093 96.0414 315.535 95.7243C314.214 95.4552 312.889 95.1991 311.571 94.917C309.85 94.5489 308.149 94.1527 306.459 93.6606C305.149 93.2785 303.85 92.8573 302.566 92.3932C301.191 91.896 299.834 91.3508 298.49 90.7726C296.919 90.0964 295.367 89.3761 293.827 88.6339C292.107 87.8056 290.4 86.9493 288.699 86.082C282.139 75.1834 281.997 68.002 274.956 59.5781L259.843 66.4384C259.843 66.4384 270.947 86.2101 278.51 94.5929C282.863 99.4175 289.693 101.592 295.784 103.171C300.179 104.309 304.635 105.18 309.096 106.003C310.831 106.322 312.716 106.446 314.208 107.485C315.384 108.304 315.992 109.581 316.339 110.938C316.41 111.215 316.469 111.496 316.523 111.778C316.683 112.615 318.719 111.983 318.652 109.993Z" fill="#E2251D"/>
<path opacity="0.8" d="M318.652 109.993C318.541 106.703 318.399 107.032 318.304 104.227C318.246 102.524 318.239 100.637 318.228 99.0024C318.217 97.4068 317.093 96.0414 315.535 95.7243C314.214 95.4552 312.889 95.1991 311.571 94.917C309.85 94.5489 308.149 94.1527 306.459 93.6606C305.149 93.2785 303.85 92.8573 302.566 92.3932C301.191 91.896 299.834 91.3508 298.49 90.7726C296.919 90.0964 295.367 89.3761 293.827 88.6339C292.107 87.8056 290.4 86.9493 288.699 86.082C282.139 75.1834 281.997 68.002 274.956 59.5781L259.843 66.4384C259.843 66.4384 270.947 86.2101 278.51 94.5929C282.863 99.4175 289.693 101.592 295.784 103.171C300.179 104.309 304.635 105.18 309.096 106.003C310.831 106.322 312.716 106.446 314.208 107.485C315.384 108.304 315.992 109.581 316.339 110.938C316.41 111.215 316.469 111.496 316.523 111.778C316.683 112.615 318.719 111.983 318.652 109.993Z" fill="white"/>
<path opacity="0.3" d="M310.987 94.7919C310.392 94.6609 309.788 94.5268 309.187 94.3838C309.234 97.8379 307.62 103.804 307.026 105.612C307.655 105.731 308.293 105.853 308.923 105.973C310.672 101.226 310.947 96.2014 310.987 94.7919Z" fill="#E2251D"/>
<path opacity="0.3" d="M318.226 99.0042C318.215 97.4042 317.095 96.0414 315.539 95.7213C315.226 95.6572 314.903 95.5892 314.588 95.5352C314.654 96.4757 315.236 97.5673 316.211 98.4338C316.85 99.0122 317.573 99.3964 318.237 99.5775C318.228 99.3784 318.227 99.1913 318.226 99.0042Z" fill="#E2251D"/>
<path d="M252.513 19.9064C252.917 21.4229 251.225 23.0174 249.871 21.706C248.773 20.6416 247.118 18.859 245.767 18.0117C244.379 17.1405 246.23 15.6239 248.409 16.2121C250.443 16.7623 252.109 18.3889 252.513 19.9064Z" fill="white"/>
<path d="M252.628 68.2427C251.925 68.5028 253.209 69.6992 253.209 69.6992C253.209 69.6992 267.136 64.9105 275.635 59.9799C275.707 58.9485 274.959 58.4014 274.959 58.4014C274.959 58.4014 264.619 63.8072 252.628 68.2427Z" fill="#E2251D"/>
<path opacity="0.5" d="M252.628 68.2427C251.925 68.5028 253.209 69.6992 253.209 69.6992C253.209 69.6992 267.136 64.9105 275.635 59.9799C275.707 58.9485 274.959 58.4014 274.959 58.4014C274.959 58.4014 264.619 63.8072 252.628 68.2427Z" fill="white"/>
<path d="M262.895 26.9317C265.644 28.3252 268.232 29.8007 270.817 31.4343C272.104 32.2475 273.385 33.0828 274.647 33.9841C275.919 34.8674 277.175 35.7987 278.434 36.8471L278.906 37.2352L279.495 37.7684C279.914 38.1385 280.221 38.4796 280.529 38.8197C280.852 39.1708 281.118 39.509 281.381 39.8461C281.653 40.1852 281.911 40.5223 282.143 40.8544C283.129 42.1829 283.933 43.5343 284.721 44.8748C286.253 47.5927 287.58 50.3066 288.675 53.2266C289.163 54.529 288.507 55.9815 287.208 56.4727C286.234 56.8408 285.173 56.5607 284.499 55.8465L284.45 55.7924C282.447 53.6637 280.526 51.418 278.593 49.3323C276.702 47.2526 274.693 45.1179 273.073 44.1895C270.81 42.7731 268.29 41.3666 265.786 39.9811L258.246 35.7817L258.227 35.7717C255.82 34.4313 254.951 31.3862 256.287 28.9704C257.592 26.6146 260.519 25.7313 262.895 26.9317Z" fill="#E2251D"/>
<path opacity="0.8" d="M262.895 26.9317C265.644 28.3252 268.232 29.8007 270.817 31.4343C272.104 32.2475 273.385 33.0828 274.647 33.9841C275.919 34.8674 277.175 35.7987 278.434 36.8471L278.906 37.2352L279.495 37.7684C279.914 38.1385 280.221 38.4796 280.529 38.8197C280.852 39.1708 281.118 39.509 281.381 39.8461C281.653 40.1852 281.911 40.5223 282.143 40.8544C283.129 42.1829 283.933 43.5343 284.721 44.8748C286.253 47.5927 287.58 50.3066 288.675 53.2266C289.163 54.529 288.507 55.9815 287.208 56.4727C286.234 56.8408 285.173 56.5607 284.499 55.8465L284.45 55.7924C282.447 53.6637 280.526 51.418 278.593 49.3323C276.702 47.2526 274.693 45.1179 273.073 44.1895C270.81 42.7731 268.29 41.3666 265.786 39.9811L258.246 35.7817L258.227 35.7717C255.82 34.4313 254.951 31.3862 256.287 28.9704C257.592 26.6146 260.519 25.7313 262.895 26.9317Z" fill="white"/>
<path d="M291.079 58.1167L290.233 55.991C290.233 55.991 289.76 53.2661 288.072 52.5068L283.048 53.2991L283.223 53.7403C283.221 53.7393 283.219 53.7383 283.216 53.7383C283.681 54.7706 283.329 56.5652 282.876 58.0307C282.424 59.4972 283.192 59.6742 283.824 59.3922C284.188 59.2291 284.531 58.5819 284.916 57.8866C285.101 58.2498 285.303 58.6029 285.542 58.932L286.771 60.6236C287.302 61.3528 288.307 61.5429 289.065 61.0557L290.415 60.1884C291.104 59.7473 291.383 58.878 291.079 58.1167Z" fill="#E2251D"/>
<path opacity="0.8" d="M291.079 58.1167L290.233 55.991C290.233 55.991 289.76 53.2661 288.072 52.5068L283.048 53.2991L283.223 53.7403C283.221 53.7393 283.219 53.7383 283.216 53.7383C283.681 54.7706 283.329 56.5652 282.876 58.0307C282.424 59.4972 283.192 59.6742 283.824 59.3922C284.188 59.2291 284.531 58.5819 284.916 57.8866C285.101 58.2498 285.303 58.6029 285.542 58.932L286.771 60.6236C287.302 61.3528 288.307 61.5429 289.065 61.0557L290.415 60.1884C291.104 59.7473 291.383 58.878 291.079 58.1167Z" fill="white"/>
<path opacity="0.3" d="M258.684 38.4297L257.469 38.5287L250.007 56.6188C250.445 56.6488 250.848 56.6118 251.221 56.5198C251.221 56.5198 260.951 52.8815 263.896 51.5481C261.914 47.4267 258.684 38.4297 258.684 38.4297Z" fill="#E2251D"/>
<path d="M245.058 43.1759C245.473 46.434 247.908 53.3583 250.007 56.6184C253.651 55.358 259.737 52.9802 262.682 51.6467C260.699 47.5263 258.612 41.8484 257.469 38.5293C254.33 38.7384 247.488 41.3242 245.058 43.1759Z" fill="white"/>
<path opacity="0.3" d="M252.468 47.0889C252.061 48.4544 250.628 49.2296 249.268 48.8205C247.908 48.4114 247.135 46.9739 247.542 45.6094C247.95 44.244 249.383 43.4687 250.743 43.8778C252.102 44.286 252.875 45.7235 252.468 47.0889Z" fill="#E2251D"/>
<path opacity="0.6" d="M254.373 43.6425C254.24 44.0895 253.77 44.3435 253.325 44.2095C252.879 44.0755 252.626 43.6045 252.759 43.1575C252.892 42.7105 253.362 42.4565 253.807 42.5905C254.254 42.7235 254.507 43.1945 254.373 43.6425Z" fill="#E2251D"/>
<path opacity="0.6" d="M256.598 42.7724C256.465 43.2194 255.995 43.4734 255.55 43.3394C255.104 43.2054 254.851 42.7344 254.985 42.2874C255.118 41.8404 255.588 41.5864 256.033 41.7204C256.479 41.8544 256.732 42.3254 256.598 42.7724Z" fill="#E2251D"/>
<path opacity="0.5" d="M259.736 50.5638L250.517 54.219L249.96 52.4004L259.178 48.7441L259.736 50.5638Z" fill="#E2251D"/>
<path opacity="0.2" d="M208.859 189.594C208.66 197.136 208.102 202.928 207.185 206.949C206.008 212.091 204.184 215.852 201.702 218.233C199.229 220.614 196.298 221.804 192.919 221.804C187.795 221.804 183.877 219.003 181.185 213.392C180.747 212.481 180.348 211.441 179.979 210.281C174.287 215.192 168.983 220.554 164.108 226.316L158.814 232.578C161.676 235.489 164.926 237.88 168.554 239.77C174.765 242.991 182.91 244.612 192.999 244.612C194.773 244.612 196.488 244.562 198.153 244.462C204.254 235.399 209.308 225.656 213.206 215.432L228.01 176.699L208.859 189.594Z" fill="black"/>
<path d="M75.4033 242.4C80.983 247.999 92.8513 259.908 92.8513 259.908L141.711 213.725C124.897 207.311 92.1225 225.624 75.4033 242.4Z" fill="#263238"/>
<path d="M136.25 303.454C130.67 297.855 118.802 285.946 118.802 285.946L164.826 236.92C171.218 253.791 152.969 286.678 136.25 303.454Z" fill="#263238"/>
<path d="M203.018 193.124L222.05 156.303L185.355 175.4C173.566 181.536 162.681 189.282 153.011 198.416L90.458 257.506L121.193 288.346L180.08 225.578C189.184 215.876 196.903 204.954 203.018 193.124Z" fill="#E2251D"/>
<path opacity="0.6" d="M203.018 193.124L222.05 156.303L185.355 175.4C173.566 181.536 162.681 189.282 153.011 198.416L90.458 257.506L121.193 288.346L180.08 225.578C189.184 215.876 196.903 204.954 203.018 193.124Z" fill="white"/>
<path d="M163.939 227.519C171.041 227.519 176.798 221.742 176.798 214.615C176.798 207.489 171.041 201.712 163.939 201.712C156.837 201.712 151.08 207.489 151.08 214.615C151.08 221.742 156.837 227.519 163.939 227.519Z" fill="white"/>
<path d="M163.938 222.903C168.5 222.903 172.198 219.192 172.198 214.615C172.198 210.038 168.5 206.327 163.938 206.327C159.377 206.327 155.679 210.038 155.679 214.615C155.679 219.192 159.377 222.903 163.938 222.903Z" fill="#E2251D"/>
<path opacity="0.3" d="M131.587 277.27L101.498 247.078L126.133 223.807L154.778 252.55L131.587 277.27Z" fill="#E2251D"/>
<path d="M82.2136 270.067C59.6784 271.907 52.2135 286.379 49.6674 305.618C48.3694 315.431 47.7932 325.358 39.5816 331.102C37.3027 332.696 38.4342 336.251 41.2116 336.164C71.4569 335.216 85.5642 320.354 87.3357 314.131C86.7256 318.066 85.8364 321.169 84.8514 323.609C83.8386 326.117 86.5831 328.438 88.868 327.002C97.3587 321.664 108.008 311.841 108.716 295.913C102.438 287.06 82.2136 270.067 82.2136 270.067Z" fill="#E2251D"/>
<path opacity="0.2" d="M82.2136 270.067C59.6784 271.907 52.2135 286.379 49.6674 305.618C48.3694 315.431 47.7932 325.358 39.5816 331.102C37.3027 332.696 38.4342 336.251 41.2116 336.164C71.4569 335.216 85.5642 320.354 87.3357 314.131C86.7256 318.066 85.8364 321.169 84.8514 323.609C83.8386 326.117 86.5831 328.438 88.868 327.002C97.3587 321.664 108.008 311.841 108.716 295.913C102.438 287.06 82.2136 270.067 82.2136 270.067Z" fill="white"/>
<path d="M112.176 302.762L76.0918 266.554L95.3153 262.382L116.335 283.473L112.176 302.762Z" fill="#E2251D"/>
</svg>
