<svg width="742" height="763" viewBox="0 0 742 763" fill="none" xmlns="http://www.w3.org/2000/svg">
<mask id="mask0_325_5" style="mask-type:alpha" maskUnits="userSpaceOnUse" x="0" y="0" width="742" height="763">
<rect width="742" height="763" fill="#D9D9D9"/>
</mask>
<g mask="url(#mask0_325_5)">
<path opacity="0.1" fill-rule="evenodd" clip-rule="evenodd" d="M124.342 -98.1235C212.404 -112.417 300.77 -82.8377 378.806 -39.5651C448.816 -0.743643 488.507 69.3263 538.743 131.669C596.238 203.019 697.972 259.268 693.355 350.787C688.739 442.293 578.346 484.653 517.482 553.11C460.518 617.18 429.348 709.994 348.544 738.611C265.729 767.94 171.827 743.684 93.8739 703.131C21.286 665.369 -22.2221 593.6 -64.6838 523.64C-105.811 455.878 -138.522 385.497 -146.76 306.659C-156.274 215.604 -166.088 116.661 -115.154 40.6115C-62.5191 -37.978 30.992 -82.9715 124.342 -98.1235Z" fill="#EA615D"/>
</g>
</svg>
