<svg width="80" height="80" viewBox="0 0 80 80" fill="none" xmlns="http://www.w3.org/2000/svg">
<path d="M30.625 33.75C31.4874 33.75 32.1875 33.0499 32.1875 32.1875C32.1875 31.3208 31.4801 30.625 30.625 30.625C29.7626 30.625 29.0625 31.3251 29.0625 32.1875C29.0625 33.0505 29.7626 33.75 30.625 33.75Z" fill="#E2251D"/>
<mask id="path-2-inside-1_378_658" fill="white">
<path d="M40 13.4375C40.863 13.4375 41.5625 12.738 41.5625 11.875V1.5625C41.5625 0.699463 40.863 0 40 0C39.137 0 38.4375 0.699463 38.4375 1.5625V11.875C38.4375 12.738 39.137 13.4375 40 13.4375Z"/>
</mask>
<path d="M40 13.4375C40.863 13.4375 41.5625 12.738 41.5625 11.875V1.5625C41.5625 0.699463 40.863 0 40 0C39.137 0 38.4375 0.699463 38.4375 1.5625V11.875C38.4375 12.738 39.137 13.4375 40 13.4375Z" fill="black"/>
<path d="M40 17.4375C43.0722 17.4375 45.5625 14.9472 45.5625 11.875H37.5625C37.5625 10.5289 38.6539 9.4375 40 9.4375V17.4375ZM45.5625 11.875V1.5625H37.5625V11.875H45.5625ZM45.5625 1.5625C45.5625 -1.50968 43.0722 -4 40 -4V4C38.6539 4 37.5625 2.9086 37.5625 1.5625H45.5625ZM40 -4C36.9278 -4 34.4375 -1.50968 34.4375 1.5625H42.4375C42.4375 2.9086 41.3461 4 40 4V-4ZM34.4375 1.5625V11.875H42.4375V1.5625H34.4375ZM34.4375 11.875C34.4375 14.9472 36.9278 17.4375 40 17.4375V9.4375C41.3461 9.4375 42.4375 10.5289 42.4375 11.875H34.4375Z" fill="black" mask="url(#path-2-inside-1_378_658)"/>
<mask id="path-4-inside-2_378_658" fill="white">
<path d="M38.4375 68.125V78.4375C38.4375 79.3005 39.137 80 40 80C40.863 80 41.5625 79.3005 41.5625 78.4375V68.125C41.5625 67.262 40.863 66.5625 40 66.5625C39.137 66.5625 38.4375 67.262 38.4375 68.125Z"/>
</mask>
<path d="M38.4375 68.125V78.4375C38.4375 79.3005 39.137 80 40 80C40.863 80 41.5625 79.3005 41.5625 78.4375V68.125C41.5625 67.262 40.863 66.5625 40 66.5625C39.137 66.5625 38.4375 67.262 38.4375 68.125Z" fill="black"/>
<path d="M34.4375 68.125V78.4375H42.4375V68.125H34.4375ZM34.4375 78.4375C34.4375 81.5097 36.9278 84 40 84V76C41.3461 76 42.4375 77.0914 42.4375 78.4375H34.4375ZM40 84C43.0722 84 45.5625 81.5097 45.5625 78.4375H37.5625C37.5625 77.0914 38.6539 76 40 76V84ZM45.5625 78.4375V68.125H37.5625V78.4375H45.5625ZM45.5625 68.125C45.5625 65.0528 43.0722 62.5625 40 62.5625V70.5625C38.6539 70.5625 37.5625 69.4711 37.5625 68.125H45.5625ZM40 62.5625C36.9278 62.5625 34.4375 65.0528 34.4375 68.125H42.4375C42.4375 69.4711 41.3461 70.5625 40 70.5625V62.5625Z" fill="black" mask="url(#path-4-inside-2_378_658)"/>
<mask id="path-6-inside-3_378_658" fill="white">
<path d="M15.8826 21.2168C16.4929 21.8271 17.4817 21.8271 18.0927 21.2168C18.7024 20.6071 18.7024 19.6177 18.0927 19.0073L11.4624 12.3777C10.8527 11.7673 9.86328 11.7673 9.25293 12.3777C8.64258 12.988 8.64258 13.9774 9.25293 14.5872L15.8826 21.2168Z"/>
</mask>
<path d="M15.8826 21.2168C16.4929 21.8271 17.4817 21.8271 18.0927 21.2168C18.7024 20.6071 18.7024 19.6177 18.0927 19.0073L11.4624 12.3777C10.8527 11.7673 9.86328 11.7673 9.25293 12.3777C8.64258 12.988 8.64258 13.9774 9.25293 14.5872L15.8826 21.2168Z" fill="black"/>
<path d="M18.0927 21.2168L20.9197 24.0466L20.9211 24.0452L18.0927 21.2168ZM18.0927 19.0073L20.9225 16.1803L20.9209 16.1788L18.0927 19.0073ZM11.4624 12.3777L8.63256 15.2047L8.63411 15.2062L11.4624 12.3777ZM9.25293 14.5872L12.0814 11.7587L12.0799 11.7573L9.25293 14.5872ZM13.0541 24.0452C15.2274 26.2185 18.7477 26.2164 20.9197 24.0466L15.2656 18.387C16.2157 17.4379 17.7585 17.4358 18.711 18.3884L13.0541 24.0452ZM20.9211 24.0452C23.0937 21.8726 23.0917 18.3517 20.9225 16.1803L15.2628 21.8343C14.3131 20.8837 14.3111 19.3415 15.2642 18.3884L20.9211 24.0452ZM20.9209 16.1788L14.2907 9.54913L8.63411 15.2062L15.2644 21.8359L20.9209 16.1788ZM14.2922 9.55067C12.1193 7.37556 8.59617 7.37759 6.4245 9.54926L12.0814 15.2061C11.1304 16.1571 9.58602 16.1591 8.63256 15.2047L14.2922 9.55067ZM6.4245 9.54926C4.25284 11.7209 4.2508 15.2441 6.42592 17.417L12.0799 11.7573C13.0344 12.7108 13.0323 14.2551 12.0814 15.2061L6.4245 9.54926ZM6.4245 17.4156L13.0541 24.0452L18.711 18.3884L12.0814 11.7587L6.4245 17.4156Z" fill="black" mask="url(#path-6-inside-3_378_658)"/>
<mask id="path-8-inside-4_378_658" fill="white">
<path d="M61.908 60.345C61.2976 60.9554 61.2976 61.9447 61.908 62.5551L68.5376 69.1847C69.1473 69.7945 70.1367 69.7951 70.7471 69.1847C71.3574 68.5744 71.3574 67.585 70.7471 66.9746L64.1174 60.345C63.5071 59.7353 62.5183 59.7353 61.908 60.345Z"/>
</mask>
<path d="M61.908 60.345C61.2976 60.9554 61.2976 61.9447 61.908 62.5551L68.5376 69.1847C69.1473 69.7945 70.1367 69.7951 70.7471 69.1847C71.3574 68.5744 71.3574 67.585 70.7471 66.9746L64.1174 60.345C63.5071 59.7353 62.5183 59.7353 61.908 60.345Z" fill="black"/>
<path d="M61.908 60.345L59.0809 57.5152L59.0795 57.5166L61.908 60.345ZM70.7471 66.9746L67.9186 69.8031L70.7471 66.9746ZM64.1174 60.345L66.9459 57.5166L66.9444 57.5152L64.1174 60.345ZM59.0795 57.5166C56.9071 59.689 56.9071 63.2111 59.0795 65.3835L64.7364 59.7267C65.6881 60.6784 65.6881 62.2217 64.7364 63.1734L59.0795 57.5166ZM59.0795 65.3835L65.7092 72.0132L71.366 66.3563L64.7364 59.7267L59.0795 65.3835ZM65.7092 72.0132C67.88 74.184 71.402 74.1866 73.5755 72.0132L67.9186 66.3563C68.8714 65.4035 70.4147 65.405 71.366 66.3563L65.7092 72.0132ZM73.5755 72.0132C75.7479 69.8407 75.7479 66.3187 73.5755 64.1462L67.9186 69.8031C66.9669 68.8513 66.9669 67.308 67.9186 66.3563L73.5755 72.0132ZM73.5755 64.1462L66.9459 57.5166L61.289 63.1734L67.9186 69.8031L73.5755 64.1462ZM66.9444 57.5152C64.7723 55.3452 61.2531 55.3452 59.0809 57.5152L64.735 63.1748C63.7835 64.1253 62.2418 64.1253 61.2904 63.1748L66.9444 57.5152Z" fill="black" mask="url(#path-8-inside-4_378_658)"/>
<mask id="path-10-inside-5_378_658" fill="white">
<path d="M64.1174 21.2168L70.7471 14.5872C71.3574 13.9774 71.3574 12.988 70.7471 12.3777C70.1367 11.7673 69.1479 11.7673 68.5376 12.3777L61.908 19.0073C61.2976 19.6177 61.2976 20.6071 61.908 21.2168C62.5183 21.8271 63.5071 21.8271 64.1174 21.2168Z"/>
</mask>
<path d="M64.1174 21.2168L70.7471 14.5872C71.3574 13.9774 71.3574 12.988 70.7471 12.3777C70.1367 11.7673 69.1479 11.7673 68.5376 12.3777L61.908 19.0073C61.2976 19.6177 61.2976 20.6071 61.908 21.2168C62.5183 21.8271 63.5071 21.8271 64.1174 21.2168Z" fill="black"/>
<path d="M70.7471 14.5872L67.9201 11.7573L67.9186 11.7587L70.7471 14.5872ZM61.908 21.2168L64.7364 18.3884L64.735 18.387L61.908 21.2168ZM66.9459 24.0452L73.5755 17.4156L67.9186 11.7587L61.289 18.3884L66.9459 24.0452ZM73.5741 17.417C75.7492 15.2441 75.7472 11.7209 73.5755 9.54926L67.9186 15.2061C66.9677 14.2551 66.9656 12.7108 67.9201 11.7573L73.5741 17.417ZM73.5755 9.54926C71.403 7.37681 67.8816 7.37681 65.7092 9.54926L71.366 15.2061C70.4143 16.1579 68.8704 16.1579 67.9186 15.2061L73.5755 9.54926ZM65.7092 9.54926L59.0795 16.1789L64.7364 21.8358L71.366 15.2061L65.7092 9.54926ZM59.0795 16.1789C56.9079 18.3506 56.9058 21.8737 59.0809 24.0466L64.735 18.387C65.6894 19.3404 65.6873 20.8848 64.7364 21.8358L59.0795 16.1789ZM59.0795 24.0452C61.252 26.2177 64.7734 26.2177 66.9459 24.0452L61.289 18.3884C62.2408 17.4366 63.7846 17.4366 64.7364 18.3884L59.0795 24.0452Z" fill="black" mask="url(#path-10-inside-5_378_658)"/>
<mask id="path-12-inside-6_378_658" fill="white">
<path d="M15.8826 60.3455L9.25293 66.9751C8.64258 67.5848 8.64258 68.5742 9.25293 69.1846C9.86328 69.7949 10.8521 69.7949 11.4624 69.1846L18.0927 62.5549C18.7024 61.9446 18.7024 60.9552 18.0927 60.3455C17.4823 59.7351 16.4929 59.7351 15.8826 60.3455Z"/>
</mask>
<path d="M15.8826 60.3455L9.25293 66.9751C8.64258 67.5848 8.64258 68.5742 9.25293 69.1846C9.86328 69.7949 10.8521 69.7949 11.4624 69.1846L18.0927 62.5549C18.7024 61.9446 18.7024 60.9552 18.0927 60.3455C17.4823 59.7351 16.4929 59.7351 15.8826 60.3455Z" fill="black"/>
<path d="M9.25293 66.9751L12.0799 69.8049L12.0814 69.8035L9.25293 66.9751ZM11.4624 69.1846L8.63411 66.356L8.63398 66.3561L11.4624 69.1846ZM18.0927 62.5549L20.9209 65.3835L20.9225 65.3819L18.0927 62.5549ZM13.0541 57.517L6.4245 64.1467L12.0814 69.8035L18.711 63.1739L13.0541 57.517ZM6.42592 64.1453C4.2508 66.3182 4.25284 69.8413 6.4245 72.013L12.0814 66.3561C13.0323 67.3071 13.0344 68.8515 12.0799 69.8049L6.42592 64.1453ZM6.4245 72.013C8.59695 74.1854 12.1184 74.1854 14.2908 72.013L8.63398 66.3561C9.58572 65.4044 11.1296 65.4044 12.0814 66.3561L6.4245 72.013ZM14.2907 72.0131L20.9209 65.3835L15.2644 59.7264L8.63411 66.356L14.2907 72.0131ZM20.9225 65.3819C23.0917 63.2106 23.0937 59.6897 20.9211 57.517L15.2642 63.1739C14.3111 62.2207 14.3131 60.6786 15.2628 59.7279L20.9225 65.3819ZM20.9211 57.517C18.7486 55.3446 15.2266 55.3446 13.0541 57.517L18.711 63.1739C17.7592 64.1256 16.216 64.1256 15.2642 63.1739L20.9211 57.517Z" fill="black" mask="url(#path-12-inside-6_378_658)"/>
<path d="M74.4255 40.0369L74.4266 40.0352C74.4409 40.0139 74.4409 39.9861 74.4266 39.9648L74.4266 39.9648C74.3244 39.8128 70.9502 34.8322 64.9946 29.7959L65.9631 28.6505L64.9945 29.7959C57.0645 23.0897 48.4188 19.625 40 19.625C31.5818 19.625 22.9355 23.0897 15.0055 29.7958C9.05944 34.8245 5.68631 39.7972 5.57335 39.9648C5.55911 39.986 5.55909 40.0138 5.57327 40.035L74.4255 40.0369ZM74.4255 40.0369C74.3245 40.1875 70.9505 45.1676 64.9946 50.2041L65.9631 51.3495M74.4255 40.0369L65.9631 51.3495M65.9631 51.3495L64.9945 50.2041C57.0645 56.9103 48.4188 60.375 40 60.375C31.5818 60.375 22.9355 56.9103 15.0055 50.2041M65.9631 51.3495L15.0055 50.2041M15.0055 50.2041C9.0594 45.1754 5.68631 40.2028 5.57335 40.0352L15.0055 50.2041ZM15.0861 29.8916L15.0861 29.8916C10.6457 33.6467 7.61569 37.4132 6.35201 39.1L5.67774 40.0001L6.35265 40.8996C7.62488 42.5953 10.689 46.4022 15.1545 50.1661C20.5365 54.7028 29.2915 60.25 40 60.25C50.7412 60.25 59.5188 54.6708 64.9139 50.1084L63.9453 48.963L64.9139 50.1084C69.3543 46.3532 72.3843 42.5868 73.6482 40.9011L74.3232 40.0008L73.6479 39.1009C72.3745 37.4041 69.3111 33.5978 64.8462 29.834L64.8461 29.8339C59.4636 25.2972 50.7085 19.75 40 19.75C29.2588 19.75 20.4812 25.3292 15.0861 29.8916Z" fill="black" stroke="black" stroke-width="3"/>
<path d="M40 54.0625C47.8021 54.0625 54.0625 47.7301 54.0625 40C54.0625 32.2461 47.7539 25.9375 40 25.9375C38.3582 25.9375 36.5759 26.2384 34.967 26.8652C34.1626 27.1777 33.764 28.0835 34.0765 28.8879C34.3707 29.6448 35.1923 30.1257 36.2506 29.7223C37.4408 29.2767 38.7738 29.0625 40 29.0625C46.0309 29.0625 50.9375 33.9691 50.9375 40C50.9375 46.0132 46.062 50.9375 40 50.9375C33.9691 50.9375 29.0625 46.0309 29.0625 40C29.0625 39.2706 29.1272 38.7097 29.2432 38.0054C29.4037 37.1576 28.8464 36.3452 27.9987 36.1835C27.1533 36.0236 26.333 36.5833 26.1713 37.4304C26.0114 38.2788 25.9375 39.1748 25.9375 40C25.9375 47.7539 32.2461 54.0625 40 54.0625Z" fill="#E2251D"/>
<path d="M46.25 40C46.25 36.554 43.446 33.75 40 33.75C36.554 33.75 33.75 36.554 33.75 40C33.75 43.446 36.554 46.25 40 46.25C43.446 46.25 46.25 43.446 46.25 40ZM36.875 40C36.875 38.277 38.277 36.875 40 36.875C41.723 36.875 43.125 38.277 43.125 40C43.125 41.723 41.723 43.125 40 43.125C38.277 43.125 36.875 41.723 36.875 40Z" fill="#E2251D"/>
</svg>
