<svg width="25" height="25" viewBox="0 0 25 25" fill="none" xmlns="http://www.w3.org/2000/svg">
<g clip-path="url(#clip0_220_5336)">
<path d="M12.5 0C5.59643 0 0 5.59643 0 12.5C0 19.4035 5.59643 24.9999 12.5 24.9999C19.4035 24.9999 24.9999 19.4035 24.9999 12.5C24.9926 5.59952 19.4005 0.00737653 12.5 0ZM17.7642 12.8983C17.6777 13.0718 17.537 13.2126 17.3634 13.2991V13.3035L10.2205 16.875C9.77939 17.0954 9.24316 16.9165 9.0227 16.4754C8.96002 16.35 8.92774 16.2116 8.92853 16.0714V8.92858C8.92832 8.43545 9.32786 8.03555 9.82099 8.03529C9.95967 8.03524 10.0965 8.06746 10.2205 8.12946L17.3634 11.7009C17.8047 11.9208 17.9842 12.4569 17.7642 12.8983Z" fill="white"/>
</g>
<defs>
<clipPath id="clip0_220_5336">
<rect width="25" height="25" fill="white"/>
</clipPath>
</defs>
</svg>
