<svg width="40" height="40" viewBox="0 0 40 40" fill="none" xmlns="http://www.w3.org/2000/svg">
<rect width="40" height="40" transform="matrix(-1 0 0 1 40 0)" fill="#E2251D"/>
<path d="M15.2701 27.5366C17.6444 25.1624 20.0187 22.8346 22.3929 20.4604C22.5326 20.3207 22.6257 20.2276 22.7654 20.0879C20.6239 17.9464 18.4824 15.8049 16.2943 13.6168C15.9684 13.291 15.596 12.9185 15.2701 12.5926C14.4321 11.7547 15.7357 10.4046 16.5736 11.2891L23.6965 18.412L24.7207 19.4362C25.0931 19.8086 25.0931 20.4138 24.7207 20.7397C22.3464 23.114 20.0187 25.4882 17.6444 27.8625C17.3185 28.1884 16.9461 28.5608 16.6202 28.8867C15.7822 29.7247 14.4321 28.4212 15.2701 27.5366Z" fill="white"/>
</svg>
