<svg width="35" height="35" viewBox="0 0 35 35" fill="none" xmlns="http://www.w3.org/2000/svg">
<path d="M0.0761719 35L2.53711 26.0107C1.01953 23.3857 0.226562 20.3984 0.226562 17.3428C0.226562 7.7793 8.0127 0 17.5762 0C22.2178 0 26.5723 1.81152 29.8467 5.08594C33.1211 8.36719 34.9258 12.7217 34.9258 17.3564C34.9189 26.9199 27.1397 34.6992 17.5762 34.6992H17.5693C14.6641 34.6992 11.8135 33.9678 9.27734 32.5869L0.0761719 35ZM9.70117 29.4492L10.2275 29.7637C12.4424 31.0762 14.9785 31.7734 17.5693 31.7734H17.5762C25.5264 31.7734 31.9932 25.3066 31.9932 17.3564C31.9932 13.5078 30.4961 9.88477 27.7754 7.15723C25.0547 4.42969 21.4316 2.93262 17.583 2.93262C9.62598 2.93262 3.15918 9.39941 3.15918 17.3496C3.15918 20.0703 3.91797 22.7227 5.36035 25.0195L5.70215 25.5664L4.24609 30.8848L9.70117 29.4492Z" fill="white"/>
<path d="M0.683594 34.3916L3.0625 25.7168C1.59277 23.1807 0.820312 20.2959 0.820312 17.3496C0.827148 8.11426 8.33984 0.608398 17.5684 0.608398C22.0459 0.608398 26.2568 2.35156 29.415 5.5166C32.5801 8.68164 34.3232 12.8857 34.3164 17.3633C34.3096 26.5918 26.7969 34.1045 17.5684 34.1045H17.5615C14.7588 34.1045 12.0039 33.4004 9.55664 32.0674L0.683594 34.3916Z" fill="url(#paint0_linear_194_2904)"/>
<path d="M0.0761719 35L2.53711 26.0107C1.01953 23.3857 0.226562 20.3984 0.226562 17.3428C0.226562 7.7793 8.0127 0 17.5762 0C22.2178 0 26.5723 1.81152 29.8467 5.08594C33.1211 8.36719 34.9258 12.7217 34.9258 17.3564C34.9189 26.9199 27.1397 34.6992 17.5762 34.6992H17.5693C14.6641 34.6992 11.8135 33.9678 9.27734 32.5869L0.0761719 35ZM9.70117 29.4492L10.2275 29.7637C12.4424 31.0762 14.9785 31.7734 17.5693 31.7734H17.5762C25.5264 31.7734 31.9932 25.3066 31.9932 17.3564C31.9932 13.5078 30.4961 9.88477 27.7754 7.15723C25.0547 4.42969 21.4316 2.93262 17.583 2.93262C9.62598 2.93262 3.15918 9.39941 3.15918 17.3496C3.15918 20.0703 3.91797 22.7227 5.36035 25.0195L5.70215 25.5664L4.24609 30.8848L9.70117 29.4492Z" fill="url(#paint1_linear_194_2904)"/>
<path fill-rule="evenodd" clip-rule="evenodd" d="M13.2344 10.0896C12.9063 9.36499 12.5645 9.35132 12.2568 9.33765C12.0039 9.32397 11.7168 9.33081 11.4229 9.33081C11.1357 9.33081 10.6641 9.44018 10.2676 9.87085C9.87109 10.3015 8.75 11.3542 8.75 13.4871C8.75 15.6199 10.3018 17.6843 10.5205 17.9714C10.7393 18.2585 13.5215 22.7771 17.9238 24.5134C21.5879 25.9558 22.333 25.6687 23.126 25.6003C23.9189 25.532 25.6895 24.5544 26.0518 23.5427C26.4141 22.531 26.4141 21.6628 26.3047 21.4851C26.1953 21.3074 25.9082 21.198 25.4707 20.9792C25.04 20.7605 22.9072 19.7146 22.5107 19.571C22.1143 19.4275 21.8271 19.3523 21.5332 19.7898C21.2461 20.2205 20.4121 21.198 20.1592 21.4851C19.9062 21.7722 19.6533 21.8132 19.2227 21.5945C18.792 21.3757 17.3906 20.9177 15.7363 19.4412C14.4443 18.2927 13.5762 16.8708 13.3232 16.4402C13.0703 16.0095 13.2959 15.7703 13.5146 15.5583C13.7061 15.3669 13.9453 15.0525 14.1641 14.7996C14.3828 14.5466 14.4512 14.3689 14.5947 14.075C14.7383 13.7878 14.6699 13.5349 14.5605 13.3162C14.4648 13.0906 13.624 10.9509 13.2344 10.0896Z" fill="white"/>
<defs>
<linearGradient id="paint0_linear_194_2904" x1="17.4999" y1="34.3944" x2="17.4999" y2="0.606074" gradientUnits="userSpaceOnUse">
<stop stop-color="#20B038"/>
<stop offset="1" stop-color="#60D66A"/>
</linearGradient>
<linearGradient id="paint1_linear_194_2904" x1="17.501" y1="35" x2="17.501" y2="0" gradientUnits="userSpaceOnUse">
<stop stop-color="#F9F9F9"/>
<stop offset="1" stop-color="white"/>
</linearGradient>
</defs>
</svg>
