<svg width="239" height="50" viewBox="0 0 239 50" fill="none" xmlns="http://www.w3.org/2000/svg">
<path fill-rule="evenodd" clip-rule="evenodd" d="M48.7388 0H6.12622L18.3334 20.9685H25.4505L17.5226 6.77928L52.5677 6.82432L48.7388 0Z" fill="white"/>
<path fill-rule="evenodd" clip-rule="evenodd" d="M52.9279 9.79736L29.0766 9.88745L25.4729 16.1262L41.4189 16.3739L23.5811 47.1397L31.2612 47.2298L52.9279 9.79736Z" fill="#E2251D"/>
<path fill-rule="evenodd" clip-rule="evenodd" d="M3.8964 2.56738L0 9.32414L21.1261 47.0944L32.8829 25.8782L29.3694 19.5944L21.2162 33.6259L3.8964 2.56738Z" fill="#939598"/>
<path fill-rule="evenodd" clip-rule="evenodd" d="M57.4774 13.1079H56.6215L49.054 34.2565H49.9098L57.4774 13.1079Z" fill="white"/>
<path fill-rule="evenodd" clip-rule="evenodd" d="M62.5676 13.1079H60.563L53.0405 34.2565H55.045L62.5676 13.1079Z" fill="white"/>
<path fill-rule="evenodd" clip-rule="evenodd" d="M66.9818 13.1079H64.8196L57.2971 34.2565H59.4593L66.9818 13.1079Z" fill="white"/>
<path fill-rule="evenodd" clip-rule="evenodd" d="M71.6666 13.1079H68.9639L61.4414 34.2565H64.1441L71.6666 13.1079Z" fill="white"/>
<path fill-rule="evenodd" clip-rule="evenodd" d="M76.9143 13.1079H73.3782L65.8557 34.2565H69.3918L76.9143 13.1079Z" fill="white"/>
<path fill-rule="evenodd" clip-rule="evenodd" d="M152.567 13.1079H151.689L144.144 34.2565H145L152.567 13.1079Z" fill="#E2251D"/>
<path fill-rule="evenodd" clip-rule="evenodd" d="M157.635 13.1079H155.63L148.108 34.2565H150.112L157.635 13.1079Z" fill="#E2251D"/>
<path fill-rule="evenodd" clip-rule="evenodd" d="M162.072 13.1079H159.91L152.387 34.2565H154.527L162.072 13.1079Z" fill="#E2251D"/>
<path fill-rule="evenodd" clip-rule="evenodd" d="M166.757 13.1079H164.031L156.509 34.2565H159.234L166.757 13.1079Z" fill="#E2251D"/>
<path fill-rule="evenodd" clip-rule="evenodd" d="M172.004 13.1079H168.468L160.946 34.2565H164.482L172.004 13.1079Z" fill="#E2251D"/>
<path fill-rule="evenodd" clip-rule="evenodd" d="M83.2207 13.1079H79.9549L71.8918 34.0313V34.0764L71.9144 34.0989L77.7027 34.189L77.7252 34.1665L77.7477 34.0989L80.4279 26.2836L82.5225 34.2565L89.7072 26.6439L87.0945 34.1214V34.1665L87.1171 34.2115H92.9054L92.9279 34.1665L92.9504 34.1214L100.54 13.2656V13.2205L100.518 13.1755H100.473H93.018L86.6441 21.8466L85.563 13.1755L83.2207 13.1079Z" fill="white"/>
<path fill-rule="evenodd" clip-rule="evenodd" d="M220.968 13.1079H217.702L209.639 34.0313V34.0764L209.662 34.0989L215.45 34.189L215.473 34.1665L215.495 34.0989L218.175 26.2836L220.27 34.2565L227.455 26.6439L224.842 34.1214V34.1665L224.865 34.2115H230.653L230.698 34.1665V34.1214L238.288 13.2656V13.2205L238.266 13.1755H238.22H230.788L224.392 21.8466L223.311 13.1755L220.968 13.1079Z" fill="#E2251D"/>
<path fill-rule="evenodd" clip-rule="evenodd" d="M116.193 21.8468L116.171 21.8243L116.126 21.8018H107.297L106.081 25.5405L114.91 25.518L116.193 21.8919V21.8468Z" fill="white"/>
<path fill-rule="evenodd" clip-rule="evenodd" d="M120.675 13.1754L120.653 13.1528H120.585L103.356 13.2204H103.311L103.288 13.2429L95.8782 34.0988V34.1438L95.9007 34.1663H112.905L112.928 34.1438L112.95 34.0763L114.437 30.1799V30.1348L114.414 30.0898H114.369L102.838 29.9321L107.139 17.3871L118.941 17.3645L118.986 17.342V17.2745L120.653 13.2204L120.675 13.1754Z" fill="white"/>
<path fill-rule="evenodd" clip-rule="evenodd" d="M138.513 17.4549L138.491 17.3198L138.446 16.9144L138.288 16.3513L137.658 15.045L135.721 13.4684L132.342 13.2657V18.536L131.959 20.6306L130.112 26.6441L129.167 28.5585L128.13 29.6621L126.734 30.1802L122.77 30.0901L127.23 17.4549L129.302 17.3198H130.833L131.869 17.5901L132.342 18.536V13.2657L123.153 13.2207L123.13 13.2432L123.108 13.2883L115.856 34.054V34.0991L115.878 34.1216H115.923L117.387 34.2117L120.856 34.3919L124.91 34.4369L128.13 34.1892L129.887 33.6937L131.374 32.9504L132.545 32.0495L133.919 30.1802L135 28.0405L135.878 25.4955L136.509 23.7162L137.32 21.3739L138.423 18.4009L138.513 17.9504V17.4549Z" fill="white"/>
<path fill-rule="evenodd" clip-rule="evenodd" d="M148.761 13.3108L148.739 13.2657H148.694L143.063 13.2207H143.018L142.995 13.2432L135.743 34.1892L135.721 34.2342L135.743 34.2567L141.554 34.1666L141.599 34.1216V34.0766L148.761 13.3558V13.3108Z" fill="white"/>
<path fill-rule="evenodd" clip-rule="evenodd" d="M191.104 18.0852L190.991 16.6663L190.045 15.0447L188.671 14.0762L187.094 13.5357L185.608 13.2654L184.099 13.1753L182.59 13.2203L181.081 13.423L179.414 13.8059L177.883 14.369L176.464 15.1122L175.158 16.0582L173.986 17.1618L172.928 18.423L172.004 19.887L171.261 21.2609L170.631 22.7023L170.113 24.1663L169.662 25.6528L169.212 27.86L169.144 28.9861L169.167 30.1122L169.707 31.914L171.058 33.1753L172.342 33.7834L174.775 34.1438L176.689 34.2789L178.491 34.2339L180.248 33.9861L181.959 33.4906L183.626 32.7023L184.865 31.8915L186.171 30.6978L187.455 29.3239L188.558 27.9275L189.414 26.6888L183.04 26.6663L182.297 27.4546L181.531 28.2654L180.113 29.369L178.446 30.0221L177.252 30.0672L176.284 29.6843L175.563 28.9185L175.135 27.7924L175.067 27.342L175.045 26.8915L175.09 26.4411L175.788 24.1212L176.419 22.2519L177.5 20.2023L179.122 18.5807L180.766 17.6573L181.667 17.4546L182.59 17.5221L184.414 17.9501L185.293 18.4456L185.563 19.3465L185.428 20.9681L190.991 20.9456L191.036 20.1798L191.081 19.1212L191.104 18.0852Z" fill="#E2251D"/>
<path fill-rule="evenodd" clip-rule="evenodd" d="M212.658 18.6483L212.635 17.7925L212.567 17.4772L212.455 16.7564L211.441 15.0672L210.135 14.1213L208.401 13.4907L206.779 13.2654L206.329 13.2204V20.3826L206.284 20.9456L205.788 22.8375L205.338 24.1213L204.797 25.36L204.189 26.5763L202.703 28.4682L200.698 29.7294L199.121 30.0898L198.288 29.9997L197.072 29.0537L196.599 27.6123L196.554 27.297L196.509 26.9817L196.554 26.5763L196.599 26.2384L196.644 25.9006L197.14 24.1438L197.635 22.7699L198.243 21.4411L199.009 20.1573L200.676 18.4681L202.838 17.5447L203.491 17.4772L204.121 17.5222L205.63 18.2429L206.306 19.8195L206.329 20.3826V13.2204L205.901 13.1979L205.158 13.1528L203.739 13.1754L201.216 13.6934L198.356 14.8195L196.847 15.788L195.518 16.9817L194.347 18.3555L193.356 19.9321L192.635 21.3736L191.982 22.8375L191.441 24.3691L190.968 25.9006L190.585 27.7699L190.495 29.6844L190.721 31.0132L192.117 32.9952L193.288 33.6483L194.887 34.1213L196.531 34.3916L198.266 34.4366L199.955 34.279L201.644 33.9636L203.311 33.4907L204.955 32.7925L206.396 31.869L207.658 30.7429L208.739 29.4141L209.685 27.8826L210.495 26.2835L211.194 24.6168L211.802 22.9276L212.297 21.1934L212.59 19.5042L212.658 18.6483Z" fill="#E2251D"/>
<path d="M57.2522 41.7791H54.9324V40.9458H60.5855V41.7791H58.2432V48.6035H57.2522V41.7791Z" fill="#7F7F7F"/>
<path d="M64.2793 46.1935L63.4911 48.6035H62.4775L65.0902 40.9458H66.2838L68.8965 48.6035H67.8379L67.0271 46.1935H64.2793ZM66.7793 45.4053L66.0361 43.1981C65.8559 42.7026 65.7433 42.2521 65.6307 41.8017H65.6082C65.4956 42.2521 65.3604 42.7251 65.2253 43.1981L64.482 45.4053H66.7793Z" fill="#7F7F7F"/>
<path d="M73.4234 40.9233V48.581H72.4324V40.9233H73.4234Z" fill="#7F7F7F"/>
<path d="M77.5901 40.9233H78.5811V47.7477H81.8468V48.581H77.5901V40.9233Z" fill="#7F7F7F"/>
<path d="M91.5089 44.6845C91.5089 47.3196 89.9098 48.716 87.9503 48.716C85.9233 48.716 84.5044 47.1394 84.5044 44.8196C84.5044 42.3872 86.0134 40.7881 88.063 40.7881C90.1575 40.8106 91.5089 42.4097 91.5089 44.6845ZM85.5629 44.7971C85.5629 46.4412 86.4413 47.9052 88.0179 47.9052C89.5945 47.9052 90.4729 46.4638 90.4729 44.7295C90.4729 43.198 89.6846 41.6214 88.0179 41.6214C86.3963 41.6214 85.5629 43.1304 85.5629 44.7971Z" fill="#7F7F7F"/>
<path d="M95.2478 41.0356C95.7433 40.923 96.464 40.8779 97.1397 40.8779C98.1983 40.8779 98.8739 41.0806 99.3469 41.5086C99.7298 41.8464 99.955 42.3644 99.955 42.9725C99.955 43.986 99.3244 44.6617 98.5136 44.932V44.977C99.0992 45.1797 99.4595 45.7203 99.6397 46.5311C99.8874 47.5896 100.068 48.3329 100.225 48.6257H99.2118C99.0766 48.4005 98.919 47.7473 98.6938 46.8014C98.4685 45.7428 98.0631 45.3374 97.1622 45.3149H96.2388V48.6257H95.2478V41.0356ZM96.2388 44.5266H97.2523C98.3109 44.5266 98.9865 43.941 98.9865 43.0626C98.9865 42.0716 98.2658 41.6437 97.2298 41.6212C96.7568 41.6212 96.419 41.6662 96.2613 41.7113V44.5266H96.2388Z" fill="#7F7F7F"/>
<path d="M107.77 44.9999H104.797V47.7701H108.108V48.6035H103.806V40.9458H107.951V41.7791H104.797V44.189H107.77V44.9999Z" fill="#7F7F7F"/>
<path d="M111.824 41.0356C112.432 40.9455 113.153 40.8779 113.919 40.8779C115.338 40.8779 116.351 41.2158 117.027 41.8239C117.703 42.4545 118.108 43.3329 118.108 44.5716C118.108 45.8329 117.725 46.8464 117.004 47.5446C116.284 48.2653 115.113 48.6482 113.626 48.6482C112.928 48.6482 112.32 48.6031 111.824 48.5581V41.0356ZM112.815 47.8149C113.063 47.8599 113.423 47.8824 113.806 47.8824C115.923 47.8824 117.072 46.7113 117.072 44.6392C117.094 42.8374 116.058 41.6887 113.964 41.6887C113.446 41.6887 113.063 41.7338 112.815 41.8013V47.8149Z" fill="#7F7F7F"/>
<path d="M120.788 49.9999C121.036 49.3243 121.351 48.1081 121.464 47.2747L122.568 47.1621C122.297 48.1306 121.802 49.3918 121.487 49.9324L120.788 49.9999Z" fill="#7F7F7F"/>
<path d="M131.104 40.9233H135.225V41.7567H132.095V44.3017H135V45.1125H132.095V48.581H131.104V40.9233Z" fill="#7F7F7F"/>
<path d="M139.099 40.9233H140.09V47.7477H143.356V48.581H139.099V40.9233Z" fill="#7F7F7F"/>
<path d="M150.856 44.9999H147.883V47.7701H151.194V48.6035H146.892V40.9458H151.036V41.7791H147.883V44.189H150.856V44.9999Z" fill="#7F7F7F"/>
<path d="M159.122 48.6034L158.153 46.9142C157.748 46.261 157.5 45.8556 157.275 45.4052H157.252C157.027 45.8556 156.824 46.2611 156.419 46.9367L155.496 48.6259H154.369L156.712 44.752L154.459 40.9683H155.608L156.622 42.7701C156.914 43.2656 157.117 43.6484 157.32 44.0764H157.365C157.59 43.6259 157.77 43.2656 158.063 42.7701L159.099 40.9683H160.225L157.883 44.6619L160.27 48.6034H159.122Z" fill="#7F7F7F"/>
<path d="M164.865 40.9233V48.581H163.874V40.9233H164.865Z" fill="#7F7F7F"/>
<path d="M169.032 41.0356C169.46 40.9455 170.135 40.8779 170.833 40.8779C171.824 40.8779 172.455 41.0581 172.928 41.441C173.333 41.7338 173.559 42.1842 173.559 42.7923C173.559 43.5356 173.063 44.1887 172.252 44.4815V44.5041C172.973 44.6842 173.829 45.2923 173.829 46.4185C173.829 47.0716 173.559 47.5671 173.176 47.95C172.635 48.4455 171.779 48.6707 170.518 48.6707C169.842 48.6707 169.324 48.6257 168.987 48.5806V41.0356H169.032ZM170.023 44.1662H170.924C171.96 44.1662 172.59 43.6257 172.59 42.8824C172.59 41.9815 171.915 41.6212 170.901 41.6212C170.451 41.6212 170.18 41.6662 170.023 41.6887V44.1662ZM170.023 47.8374C170.225 47.8824 170.496 47.8824 170.856 47.8824C171.869 47.8824 172.815 47.4996 172.815 46.3959C172.815 45.3599 171.915 44.9095 170.833 44.9095H170.023V47.8374Z" fill="#7F7F7F"/>
<path d="M177.635 40.9233H178.626V47.7477H181.892V48.581H177.635V40.9233Z" fill="#7F7F7F"/>
<path d="M189.414 44.9999H186.441V47.7701H189.752V48.6035H185.45V40.9458H189.595V41.7791H186.441V44.189H189.414V44.9999Z" fill="#7F7F7F"/>
<path d="M192.748 49.9999C192.996 49.3243 193.311 48.1081 193.423 47.2747L194.527 47.1621C194.257 48.1306 193.761 49.3918 193.446 49.9324L192.748 49.9999Z" fill="#7F7F7F"/>
<path d="M203.086 40.9233H207.207V41.7567H204.077V44.3017H206.982V45.1125H204.077V48.581H203.086V40.9233Z" fill="#7F7F7F"/>
<path d="M211.419 46.1935L210.631 48.6035H209.617L212.23 40.9458H213.423L216.036 48.6035H214.978L214.167 46.1935H211.419ZM213.919 45.4053L213.176 43.1981C212.996 42.7026 212.883 42.2521 212.77 41.8017H212.748C212.635 42.2521 212.5 42.7251 212.365 43.1981L211.622 45.4053H213.919Z" fill="#7F7F7F"/>
<path d="M219.437 47.3871C219.887 47.6574 220.518 47.8826 221.216 47.8826C222.23 47.8826 222.815 47.3421 222.815 46.5763C222.815 45.8556 222.41 45.4502 221.374 45.0448C220.113 44.5943 219.347 43.9637 219.347 42.8826C219.347 41.6889 220.338 40.8105 221.824 40.8105C222.613 40.8105 223.176 40.9907 223.514 41.1934L223.243 42.0042C222.996 41.8691 222.477 41.6439 221.779 41.6439C220.743 41.6439 220.338 42.2745 220.338 42.7925C220.338 43.5132 220.811 43.8511 221.869 44.279C223.176 44.7745 223.829 45.4051 223.829 46.5313C223.829 47.7024 222.95 48.7385 221.149 48.7385C220.405 48.7385 219.595 48.5132 219.189 48.243L219.437 47.3871Z" fill="#7F7F7F"/>
<path d="M229.077 41.7791H226.757V40.9458H232.433V41.7791H230.09V48.6035H229.099V41.7791H229.077Z" fill="#7F7F7F"/>
</svg>
