<svg width="50" height="50" viewBox="0 0 50 50" fill="none" xmlns="http://www.w3.org/2000/svg">
<path d="M37.468 44.7666H18.8575C18.4592 44.7666 18.1365 45.0894 18.1365 45.4876C18.1365 45.8858 18.4593 46.2086 18.8575 46.2086H37.468C37.8662 46.2086 38.189 45.8858 38.189 45.4876C38.189 45.0894 37.8662 44.7666 37.468 44.7666Z" fill="white"/>
<path d="M15.503 44.7666H12.532C12.1338 44.7666 11.811 45.0894 11.811 45.4876C11.811 45.8858 12.1339 46.2086 12.532 46.2086H15.503C15.9013 46.2086 16.224 45.8858 16.224 45.4876C16.224 45.0894 15.9011 44.7666 15.503 44.7666Z" fill="white"/>
<path d="M36.6656 14.2256H32.638C32.2398 14.2256 31.917 14.5483 31.917 14.9466C31.917 15.3448 32.2399 15.6676 32.638 15.6676H36.6656C36.7106 15.6676 36.7473 15.7043 36.7473 15.7493V38.0421C35.9813 36.3265 34.6853 35.5446 33.5203 35.2003L31.2182 34.4825L31.2179 34.4824L31.0105 34.4177L29.8082 34.0428C29.7919 34.0378 29.7759 34.0328 29.7598 34.0283C29.7108 34.0139 29.663 34.0035 29.6038 34.0023L29.0123 33.8352C28.9945 33.8302 28.9765 33.8258 28.9584 33.8222C28.7858 33.7875 28.5632 33.47 28.5632 33.1801V32.0732C28.7381 31.95 28.9095 31.8176 29.0766 31.6738C30.0468 30.8384 30.6775 29.6546 30.8616 28.3547C31.6086 28.2051 32.173 27.544 32.173 26.7536V25.7431C32.173 25.2957 31.9917 24.8789 31.6817 24.5765V20.9082C31.6817 19.058 30.1765 17.5529 28.3264 17.5529H21.991C20.1409 17.5529 18.6357 19.0581 18.6357 20.9082V24.5765C18.3258 24.8788 18.1444 25.2956 18.1444 25.7431V26.7536C18.1444 27.544 18.7089 28.2051 19.4559 28.3547C19.6399 29.6546 20.2706 30.8384 21.2408 31.6738C21.4079 31.8176 21.5794 31.95 21.7543 32.0733V33.1802C21.7543 33.4701 21.5316 33.7876 21.3591 33.8223C21.3409 33.8259 21.3229 33.8303 21.3052 33.8353L20.6981 34.0067C20.6976 34.0067 20.6972 34.0067 20.6968 34.0067C20.6954 34.0067 20.694 34.0068 20.6927 34.0068C20.6877 34.0069 20.6828 34.0071 20.678 34.0074C20.677 34.0075 20.6761 34.0075 20.6752 34.0076C20.6701 34.0079 20.6651 34.0082 20.6603 34.0087C20.6597 34.0088 20.659 34.0087 20.6583 34.0088C20.6531 34.0093 20.6481 34.0098 20.6431 34.0105H20.643C20.6016 34.0157 20.5663 34.0254 20.5302 34.0365C20.5232 34.0386 20.5163 34.0408 20.5094 34.0429L20.2516 34.1233L19.0997 34.4824C19.0994 34.4825 19.0991 34.4827 19.0988 34.4827L16.7974 35.2003C15.5621 35.5653 14.5769 36.3087 13.8689 37.4101C13.6321 37.7786 13.427 38.1891 13.2532 38.639V15.7494C13.2532 15.7044 13.2898 15.6677 13.335 15.6677H29.2834C29.6816 15.6677 30.0044 15.3449 30.0044 14.9467C30.0044 14.5484 29.6815 14.2257 29.2834 14.2257H13.3348C12.4945 14.2257 11.811 14.9093 11.811 15.7495V41.2212C11.811 42.0196 12.4286 42.6753 13.211 42.7387C13.2407 42.7424 13.2707 42.745 13.301 42.745H13.3349H36.6656H36.6959C36.726 42.745 36.7555 42.7425 36.7846 42.7389C37.5692 42.6778 38.1893 42.0211 38.1893 41.2212V15.7494C38.1892 14.9091 37.5056 14.2256 36.6656 14.2256ZM29.5766 35.4811L29.6082 35.491L27.8133 37.1751C27.7694 37.2164 27.7037 37.2254 27.6502 37.1981L26.7778 36.7499L26.958 36.6641C28.6833 35.8453 29.3363 35.572 29.5766 35.4811ZM27.7385 34.7006C27.115 34.9854 26.2822 35.3807 25.1586 35.9267C25.1392 35.9173 25.1205 35.9083 25.1013 35.8989C25.0756 35.8864 25.0501 35.874 25.0246 35.8617C24.9867 35.8433 24.9491 35.8251 24.9119 35.807C24.885 35.794 24.8584 35.781 24.8318 35.7682C24.7966 35.7511 24.7617 35.7342 24.727 35.7175C24.6969 35.703 24.6672 35.6886 24.6376 35.6743C24.6108 35.6614 24.5843 35.6485 24.5579 35.6358C24.5222 35.6186 24.4869 35.6016 24.452 35.5847C24.4282 35.5732 24.4046 35.5619 24.381 35.5505C24.346 35.5336 24.3112 35.517 24.2769 35.5004C24.2585 35.4916 24.2401 35.4828 24.2218 35.474C24.18 35.454 24.1386 35.4341 24.0979 35.4146C24.0876 35.4096 24.0773 35.4047 24.0671 35.3999C24.0235 35.379 23.9804 35.3584 23.9381 35.3381C23.9277 35.3332 23.9174 35.3283 23.9071 35.3234C23.8644 35.303 23.8221 35.2829 23.7806 35.2631C23.7716 35.2588 23.7626 35.2545 23.7536 35.2503C23.7137 35.2313 23.6743 35.2126 23.6355 35.1941C23.6221 35.1878 23.6091 35.1815 23.5958 35.1753C23.5589 35.1578 23.5222 35.1404 23.4863 35.1234C23.4779 35.1194 23.4697 35.1156 23.4614 35.1116C23.4208 35.0923 23.3805 35.0734 23.3411 35.0548C23.3384 35.0536 23.3357 35.0523 23.333 35.051C23.2908 35.0312 23.2491 35.0116 23.2083 34.9924C23.2026 34.9898 23.1971 34.9873 23.1916 34.9846C23.1534 34.9668 23.1157 34.9491 23.0787 34.9318C23.0725 34.929 23.0666 34.9261 23.0604 34.9233C23.024 34.9063 22.9879 34.8895 22.9526 34.873C22.9473 34.8706 22.9422 34.8682 22.9369 34.8657C22.9012 34.8491 22.8658 34.8327 22.8312 34.8167C22.8264 34.8144 22.8219 34.8124 22.8172 34.8101C22.7826 34.7941 22.7484 34.7784 22.715 34.763C22.7103 34.7609 22.7059 34.7588 22.7012 34.7567C22.6674 34.7412 22.6339 34.7257 22.6012 34.7108C22.601 34.7107 22.6008 34.7106 22.6006 34.7105C22.5931 34.7071 22.586 34.7039 22.5787 34.7005C22.9398 34.3306 23.1963 33.8013 23.1963 33.1801V32.8255C23.8135 33.0457 24.4659 33.1618 25.1507 33.1694C25.1533 33.1694 25.156 33.1694 25.1587 33.1694C25.1613 33.1694 25.164 33.1694 25.1667 33.1694C25.8515 33.1618 26.504 33.0457 27.1212 32.8255V33.1801C27.1211 33.8014 27.3774 34.3307 27.7385 34.7006ZM21.9908 18.995H28.3262C29.3811 18.995 30.2394 19.8533 30.2394 20.9083V24.2714C30.0909 24.2961 29.931 24.3313 29.7691 24.3805V22.0983C29.7691 21.1093 28.9645 20.3047 27.9755 20.3047H27.3484C26.9264 20.3047 26.514 20.4517 26.1874 20.7188L26.0377 20.8415C25.9214 20.9213 25.4567 21.0322 25.1586 21.0322C24.8604 21.0322 24.3957 20.9214 24.2854 20.8462L24.1299 20.7191C23.8032 20.4519 23.3908 20.3048 22.9687 20.3048H22.3417C21.3526 20.3048 20.548 21.1094 20.548 22.0984V24.3806C20.3861 24.3314 20.2263 24.2961 20.0777 24.2713V20.9083H20.0776C20.0776 19.8533 20.9359 18.995 21.9908 18.995ZM20.8429 27.65C20.8345 27.2579 20.5142 26.9444 20.1221 26.9444H19.7771C19.672 26.9444 19.5863 26.8588 19.5863 26.7537V25.7432C19.5863 25.7148 19.5925 25.6894 19.6023 25.6672C19.8045 25.6858 20.0385 25.7268 20.2255 25.7941C20.2419 25.8001 20.2578 25.8062 20.2734 25.8126C20.2847 25.8171 20.2962 25.8215 20.3069 25.8261C20.3332 25.8379 20.3578 25.8503 20.3809 25.8633C20.3877 25.8671 20.3942 25.8709 20.4007 25.8748C20.4246 25.8892 20.4473 25.9041 20.4668 25.92C20.4983 25.946 20.5315 25.9687 20.5653 25.99C20.572 25.9942 20.5785 25.9985 20.5852 26.0025C20.6182 26.0221 20.6521 26.0397 20.6868 26.0551C20.6933 26.0579 20.6999 26.0603 20.7064 26.0631C20.7403 26.077 20.7748 26.0893 20.8098 26.0991C20.8129 26.1 20.8159 26.1011 20.8189 26.1019C20.8557 26.1118 20.8932 26.1187 20.9308 26.124C20.9388 26.1251 20.9467 26.1261 20.9546 26.1271C20.9884 26.1309 21.0223 26.1335 21.0565 26.1335C21.0596 26.1335 21.0626 26.133 21.0656 26.133C21.0757 26.1329 21.0858 26.1317 21.0959 26.1313C21.1254 26.1301 21.1548 26.1276 21.1843 26.1235C21.1974 26.1217 21.2106 26.1193 21.2238 26.1169C21.2515 26.1118 21.2791 26.1052 21.3064 26.0975C21.3184 26.0942 21.3304 26.0913 21.3423 26.0874C21.3807 26.0749 21.4189 26.0606 21.4564 26.0429C21.7856 25.8875 21.9901 25.5647 21.9901 25.2006V22.0983C21.9901 21.9045 22.1478 21.7468 22.3418 21.7468H22.9688C23.0591 21.7468 23.1473 21.7782 23.2173 21.8354L23.3728 21.9626C23.8836 22.3802 24.8577 22.4741 25.1587 22.4741C25.4596 22.4741 26.4338 22.3802 26.9444 21.9626L27.1002 21.8352C27.1701 21.7781 27.2583 21.7466 27.3485 21.7466H27.9756C28.1695 21.7466 28.3272 21.9043 28.3272 22.0981V25.2004C28.3272 25.5645 28.5317 25.8873 28.8609 26.0427C28.8938 26.0583 28.9276 26.0703 28.9613 26.0818C29.0029 26.096 29.0449 26.1071 29.0874 26.1152C29.3252 26.1608 29.5699 26.1113 29.775 25.9734C29.8006 25.9562 29.8263 25.9395 29.8506 25.9196C29.8706 25.9032 29.8939 25.8878 29.9188 25.8729C29.9236 25.8701 29.9283 25.8673 29.9333 25.8644C30.1293 25.7537 30.45 25.689 30.7144 25.6653C30.7247 25.688 30.7309 25.7138 30.7309 25.7429V26.7534C30.7309 26.8586 30.6454 26.9441 30.5402 26.9441H30.1954C29.8032 26.9441 29.483 27.2576 29.4746 27.6497C29.4498 28.8011 28.9619 29.8696 28.1357 30.5808C27.9268 30.7607 27.7098 30.9191 27.4857 31.057C27.4698 31.0661 27.4539 31.0754 27.4387 31.0856C26.7451 31.5011 25.9815 31.7168 25.1587 31.7272C24.336 31.7168 23.5724 31.5011 22.8788 31.0857C22.8633 31.0753 22.847 31.0657 22.8307 31.0564C22.6069 30.9187 22.3902 30.7605 22.1816 30.5808C21.3555 29.8698 20.8676 28.8014 20.8429 27.65ZM20.7422 35.4807C20.7654 35.4894 20.7918 35.4997 20.8193 35.5106C20.8271 35.5136 20.835 35.5169 20.8431 35.5201C20.8687 35.5303 20.8957 35.5413 20.9245 35.5531C20.9283 35.5546 20.9316 35.556 20.9354 35.5576C20.9671 35.5707 21.0011 35.5849 21.0362 35.5999C21.0478 35.6047 21.0597 35.6098 21.0718 35.6149C21.1017 35.6277 21.1328 35.641 21.1651 35.6549C21.1734 35.6586 21.1812 35.6619 21.1897 35.6656C21.2276 35.682 21.2675 35.6995 21.3081 35.7173C21.3253 35.7249 21.3428 35.7326 21.3604 35.7404C21.3908 35.7539 21.4221 35.7676 21.4538 35.7818C21.4686 35.7884 21.4831 35.7948 21.4982 35.8015C21.5406 35.8205 21.5846 35.8402 21.6292 35.8602C21.6515 35.8703 21.6744 35.8806 21.6972 35.8909C21.7273 35.9044 21.758 35.9183 21.7889 35.9324C21.8124 35.943 21.8357 35.9536 21.8596 35.9645C21.9038 35.9846 21.9489 36.0052 21.9946 36.0261C22.0208 36.0381 22.0475 36.0503 22.0742 36.0627C22.1045 36.0765 22.1351 36.0907 22.166 36.1048C22.1973 36.1193 22.2287 36.1337 22.2606 36.1485C22.3058 36.1694 22.3515 36.1906 22.3978 36.2121C22.4257 36.225 22.4538 36.238 22.4819 36.2511C22.5145 36.2663 22.5474 36.2816 22.5805 36.297C22.6104 36.311 22.6402 36.3249 22.6704 36.339C22.7223 36.3633 22.7748 36.3878 22.8277 36.4127C22.8595 36.4276 22.8916 36.4426 22.9236 36.4578C22.9532 36.4716 22.9829 36.4857 23.0128 36.4998C23.0477 36.5162 23.0826 36.5327 23.1178 36.5493C23.1708 36.5743 23.224 36.5994 23.2774 36.6248C23.3114 36.6409 23.3457 36.6571 23.3799 36.6733C23.4109 36.688 23.442 36.7028 23.4731 36.7176C23.4954 36.7283 23.5178 36.7388 23.54 36.7495L22.667 37.1981C22.6134 37.2254 22.5478 37.2164 22.504 37.1751L20.7091 35.4911L20.7422 35.4807ZM14.0909 41.3029C14.4093 38.685 15.4566 37.0982 17.21 36.582C17.2137 36.5809 17.2174 36.5798 17.221 36.5787L19.1272 35.9843L21.5174 38.2269C21.8175 38.5084 22.2083 38.6553 22.6032 38.6553C22.8496 38.6553 23.0975 38.5982 23.3259 38.4809L23.326 38.4808L25.1584 37.5393L26.991 38.4809C27.2194 38.5982 27.4673 38.6553 27.7136 38.6553C28.1086 38.6553 28.4995 38.5084 28.7997 38.2269L31.1898 35.9843L33.096 36.5788C33.0997 36.5799 33.1033 36.581 33.1069 36.5821C34.9199 37.1159 35.8816 38.7025 35.9712 41.3029H14.0909Z" fill="white"/>
<path d="M41.1183 5.15507H29.6455V1.75683C29.6455 0.788182 28.8574 0 27.8887 0H22.1113C21.1427 0 20.3545 0.788182 20.3545 1.75683V5.15507H8.88178C7.76626 5.15507 6.85864 6.06268 6.85864 7.17821V47.9769C6.85864 49.0924 7.76626 50 8.88178 50H41.1183C42.2339 50 43.1414 49.0924 43.1414 47.9769V7.17811C43.1414 6.06259 42.234 5.15507 41.1183 5.15507ZM21.7967 1.75683C21.7967 1.5832 21.9379 1.44209 22.1114 1.44209H27.8887C28.0623 1.44209 28.2034 1.5833 28.2034 1.75683V6.74188C28.2034 6.83417 28.1632 6.92147 28.0929 6.98133L25.2043 9.44393C25.0861 9.54481 24.9142 9.54481 24.7959 9.44383L21.9072 6.98133C21.8369 6.92147 21.7967 6.83417 21.7967 6.74188V1.75683ZM29.659 9.79197C29.9084 9.79197 30.1114 9.9949 30.1114 10.2444V11.0379C30.1114 11.2873 29.9085 11.4903 29.659 11.4903H20.3413C20.0919 11.4903 19.8889 11.2874 19.8889 11.0379V10.2444C19.8889 9.995 20.0918 9.79197 20.3413 9.79197H22.9815L23.8605 10.5413C24.1907 10.8228 24.5954 10.9636 25.0002 10.9636C25.4049 10.9636 25.8098 10.8228 26.14 10.5414L27.019 9.79197H29.659ZM41.6995 47.9768C41.6994 48.2972 41.4388 48.5578 41.1184 48.5578H8.88178C8.56137 48.5578 8.30073 48.2972 8.30073 47.9768V7.17811C8.30073 6.8577 8.56137 6.59706 8.88178 6.59706H20.3546V6.74178C20.3546 7.25712 20.5795 7.74442 20.9717 8.07879L21.2897 8.34979H20.3412C19.2966 8.34979 18.4468 9.19959 18.4468 10.2442V11.0377C18.4468 12.0823 19.2967 12.9321 20.3412 12.9321H29.6589C30.7035 12.9321 31.5533 12.0823 31.5533 11.0377V10.2442C31.5533 9.19959 30.7034 8.34979 29.6589 8.34979H28.7105L29.0284 8.07879C29.4206 7.74452 29.6456 7.25712 29.6456 6.74178V6.59706H41.1184C41.4389 6.59706 41.6994 6.8577 41.6994 7.17811L41.6995 47.9768Z" fill="white"/>
</svg>
