<svg width="80" height="80" viewBox="0 0 80 80" fill="none" xmlns="http://www.w3.org/2000/svg">
<path d="M44.3514 60.6181V32.0121C45.4181 31.8666 46.2424 30.9697 46.2424 29.8666V27.6606C46.2424 26.4606 45.2727 25.4909 44.0727 25.4909H42.8242V6.21814C42.8242 3.58784 40.6787 1.44238 38.0484 1.44238H25.5878C22.9575 1.44238 20.8121 3.58784 20.8121 6.21814V16.2909H13.4424C12.4121 16.2909 11.5757 17.1272 11.5757 18.1575V21.3575C11.5757 22.3878 12.4121 23.2242 13.4424 23.2242H13.8424V32C7.21205 34.0606 2.42417 39.7575 1.5272 46.6909C1.41811 47.5515 1.36963 48.2788 1.36963 48.9818C1.36963 58.8242 9.36963 66.8242 19.2121 66.8242C24.0848 66.8242 28.6787 64.8121 32.0121 61.3575C32.3878 64.4242 34.9818 66.8242 38.1454 66.8242C41.5636 66.8363 44.3514 64.0484 44.3514 60.6181ZM34.0484 32.0484H42.2302V35.6363H39.8666C39.2848 35.6363 38.7999 36.1091 38.7999 36.703C38.7999 37.2969 39.2727 37.7697 39.8666 37.7697H42.2302V40.7636H39.8666C39.2848 40.7636 38.7999 41.2363 38.7999 41.8303C38.7999 42.4242 39.2727 42.8969 39.8666 42.8969H42.2302V45.8909H39.8666C39.2848 45.8909 38.7999 46.3636 38.7999 46.9575C38.7999 47.5515 39.2727 48.0242 39.8666 48.0242H42.2302V51.503H34.0484V32.0484ZM44.109 27.6606L44.0605 29.9272L32.1696 29.8787L32.2181 27.6121H44.0605L44.109 27.6606ZM22.9333 6.21814C22.9333 4.75147 24.1211 3.5636 25.5878 3.5636H38.0484C39.5151 3.5636 40.703 4.75147 40.703 6.21814V25.4909H32.2302C31.0302 25.4909 30.0605 26.4606 30.0605 27.6606V29.8666C30.0605 30.9697 30.8848 31.8666 31.9514 32.0121V36.4848C29.903 34.4121 27.3818 32.8484 24.5939 31.9757V23.2H24.9939C26.0242 23.2 26.8605 22.3636 26.8605 21.3333V18.1333C26.8605 17.103 26.0242 16.2666 24.9939 16.2666H22.9575V6.21814H22.9333ZM13.6969 18.4121H24.7151V21.0909H23.503H14.8969H13.6848V18.4121H13.6969ZM15.1757 33.806C15.6363 33.6848 15.9636 33.2606 15.9636 32.7757V23.2121H22.4484V32.7757C22.4484 33.2606 22.7757 33.6727 23.2363 33.806C26.7272 34.7272 29.7939 36.8484 31.9272 39.7818V45.1151C30.6181 44.4121 28.9818 43.8666 26.7151 43.8666C22.5696 43.8666 20.4121 45.6727 18.509 47.2727C16.6545 48.8363 15.0424 50.1818 11.6727 50.1818C8.30296 50.1818 6.69084 48.8363 4.8363 47.2727C4.47266 46.9697 4.0969 46.6787 3.72114 46.3878C4.73933 40.303 9.17569 35.406 15.1757 33.806ZM19.2121 64.7151C10.5454 64.7151 3.49084 57.6606 3.49084 48.9939C3.49084 48.9697 3.49084 48.9454 3.49084 48.9212C5.39387 50.5212 7.55145 52.3151 11.6848 52.3151C15.8302 52.3151 17.9878 50.509 19.8908 48.909C21.7454 47.3454 23.3575 46 26.7272 46C29.1757 46 30.703 46.7394 31.9393 47.6121V58.1818C28.9818 62.2666 24.2545 64.7151 19.2121 64.7151ZM38.1454 64.7151C35.8908 64.7151 34.0605 62.8848 34.0605 60.6303V53.6121H42.2424V60.6303C42.2302 62.8727 40.3999 64.7151 38.1454 64.7151Z" fill="black"/>
<path d="M71.3212 71.5514H66.8L65.7455 69.1029C73.1879 67.4544 78.6424 60.7877 78.6424 53.0665C78.6424 47.6605 75.9879 42.6665 71.5394 39.5756C71.2606 37.7211 70.0606 36.1817 68.4121 35.418L69.3091 32.1453C69.5515 31.2726 69.4303 30.3514 68.9818 29.5514C68.5333 28.7635 67.8061 28.1938 66.9212 27.9514L66.497 27.8302L67.0788 25.7089L68.0727 25.9756C68.2667 26.0241 68.4727 26.0605 68.6667 26.0605C69.0424 26.0605 69.4303 25.9635 69.7697 25.7696C70.2909 25.4786 70.6667 24.9938 70.8242 24.4241L71.4061 22.3271C71.5636 21.7574 71.4909 21.1514 71.2 20.6302C70.9091 20.1089 70.4242 19.7332 69.8545 19.5756L60.4364 16.9817C59.2485 16.6544 58.0121 17.3574 57.6849 18.5453L57.103 20.6423C56.7758 21.8302 57.4788 23.0544 58.6667 23.3938L59.6606 23.6605L59.0788 25.7817L58.6545 25.6605C57.7818 25.418 56.8606 25.5392 56.0606 25.9877C55.2727 26.4362 54.703 27.1635 54.4606 28.0483L49.2727 46.9089C48.8242 48.5574 49.6727 50.2423 51.1879 50.9211L51.2606 55.3938C51.2727 55.8665 51.5879 56.2786 52.0364 56.3999L56.897 57.7332C56.9939 57.7574 57.0788 57.7696 57.1758 57.7696C57.5394 57.7696 57.8788 57.5877 58.0727 57.2605L60.4364 53.4423C60.5697 53.4544 60.703 53.4908 60.8364 53.4908C62.3273 53.4908 63.7091 52.4968 64.1212 50.9817L65.5394 45.8423C65.7333 45.8665 65.9152 45.9029 66.1091 45.9029C66.9212 45.9029 67.697 45.7089 68.3879 45.3938C70.703 47.2726 72.0727 50.0726 72.0727 53.0544C72.0727 58.1696 68.0849 62.4362 63.0667 62.8726L62.5212 61.5999C62.3515 61.212 61.9758 60.9574 61.5515 60.9574H50.5455C50.1212 60.9574 49.7333 61.212 49.5758 61.5999L45.2849 71.5392H40.7273C39.4667 71.5392 38.4485 72.5574 38.4485 73.818V76.2544C38.4485 77.515 39.4667 78.5332 40.7273 78.5332H71.3212C72.5818 78.5332 73.6 77.515 73.6 76.2544V73.818C73.6 72.5817 72.5818 71.5514 71.3212 71.5514ZM59.1273 21.212L59.7091 19.115C59.7212 19.0665 59.7697 19.0302 59.8182 19.0302H59.8424L69.2606 21.6241C69.3091 21.6362 69.3576 21.7089 69.3333 21.7574L68.7515 23.8544L68.6182 23.9392L62.7758 22.3392L61.2121 21.9029L59.2 21.3453C59.1515 21.3453 59.1152 21.2726 59.1273 21.212ZM65.0303 25.1514L64.4485 27.2726L61.103 26.3514L61.6849 24.2423L65.0303 25.1514ZM56.6909 55.4786L53.3697 54.5695L53.3212 51.5756L54.7152 51.9635L58.2788 52.9453L56.6909 55.4786ZM62.0727 50.4483C61.8788 51.1271 61.1758 51.5271 60.4849 51.3453L60.1818 51.2605L57.3818 50.4847L52.1939 49.0544C51.5152 48.8605 51.103 48.1574 51.297 47.4665L56.4848 28.6059C56.5818 28.2786 56.7879 27.9999 57.0909 27.8302C57.3939 27.6605 57.7333 27.612 58.0727 27.7089L66.3636 29.9877C66.6909 30.0847 66.9697 30.2908 67.1394 30.5938C67.3091 30.8968 67.3576 31.2362 67.2606 31.5756L66.3394 34.9089C66.2545 34.9089 66.1818 34.8847 66.097 34.8847C63.0545 34.8847 60.5818 37.3574 60.5818 40.3999C60.5818 42.4968 61.7697 44.2908 63.4909 45.2241L62.0727 50.4483ZM65.0667 43.6241C65.0545 43.6241 65.0545 43.612 65.0424 43.612H65.0303C63.6849 43.1635 62.703 41.9029 62.703 40.412C62.703 38.5453 64.2182 37.018 66.097 37.018C66.3394 37.018 66.5818 37.0423 66.8121 37.1029C66.8242 37.1029 66.8242 37.115 66.8364 37.115H66.8485C68.3515 37.4544 69.4788 38.7999 69.4788 40.412C69.4788 41.5999 68.8727 42.6302 67.9515 43.2362C67.9394 43.2362 67.9394 43.2483 67.9273 43.2483C67.3939 43.5877 66.7758 43.7938 66.097 43.7938C65.7455 43.7938 65.3939 43.7211 65.0667 43.6241ZM74.1939 53.0665C74.1939 49.6362 72.703 46.3877 70.1576 44.1211C70.6909 43.5392 71.0909 42.8362 71.3333 42.0726C74.6061 44.7877 76.5212 48.7877 76.5212 53.0786C76.5212 59.9514 71.5636 65.8423 64.8848 67.1271L63.9394 64.9332C69.7091 64.0605 74.1939 59.0423 74.1939 53.0665ZM51.2242 63.1029H60.8364L61.4061 64.4241L64.4849 71.5514H47.5636L51.2242 63.1029ZM71.4788 76.2786C71.4788 76.3635 71.4061 76.4362 71.3212 76.4362H40.7273C40.6424 76.4362 40.5697 76.3635 40.5697 76.2786V73.8423C40.5697 73.7574 40.6424 73.6847 40.7273 73.6847H45.9394H45.9515H66.097H66.1212H71.3212C71.4061 73.6847 71.4788 73.7574 71.4788 73.8423V76.2786Z" fill="black"/>
<path d="M66.0968 39.1875C65.4301 39.1875 64.8726 39.733 64.8726 40.4117C64.8726 41.0905 65.418 41.636 66.0968 41.636C66.7756 41.636 67.321 41.0905 67.321 40.4117C67.321 39.733 66.7756 39.1875 66.0968 39.1875Z" fill="black"/>
<path d="M6.31511 15.8792C8.26663 15.8792 9.85451 14.2913 9.85451 12.3398C9.85451 10.3883 8.26663 8.8125 6.31511 8.8125C4.3636 8.8125 2.78784 10.3883 2.78784 12.3398C2.78784 14.2913 4.37572 15.8792 6.31511 15.8792ZM6.31511 10.9337C7.09087 10.9337 7.7333 11.564 7.7333 12.3519C7.7333 13.1398 7.10299 13.7701 6.31511 13.7701C5.53936 13.7701 4.89693 13.1398 4.89693 12.3519C4.89693 11.564 5.53936 10.9337 6.31511 10.9337Z" fill="#E2251D"/>
<path d="M13.1151 9.68523C15.0666 9.68523 16.6545 8.09735 16.6545 6.14584C16.6545 4.19432 15.0666 2.60645 13.1151 2.60645C11.1636 2.60645 9.57568 4.19432 9.57568 6.14584C9.57568 8.09735 11.1636 9.68523 13.1151 9.68523ZM13.1151 4.73978C13.8908 4.73978 14.5333 5.37008 14.5333 6.15796C14.5333 6.94584 13.903 7.57614 13.1151 7.57614C12.3272 7.57614 11.6969 6.93372 11.6969 6.14584C11.6969 5.35796 12.3272 4.73978 13.1151 4.73978Z" fill="#E2251D"/>
<path d="M34.7393 23.2966C36.6909 23.2966 38.2787 21.7087 38.2787 19.7572C38.2787 17.8057 36.6909 16.2178 34.7393 16.2178C32.7878 16.2178 31.2 17.8057 31.2 19.7572C31.2121 21.7208 32.8 23.2966 34.7393 23.2966ZM34.7393 18.3511C35.5151 18.3511 36.1575 18.9814 36.1575 19.7693C36.1575 20.5572 35.5272 21.1875 34.7393 21.1875C33.9515 21.1875 33.3212 20.5572 33.3212 19.7693C33.3212 18.9814 33.9636 18.3511 34.7393 18.3511Z" fill="#E2251D"/>
</svg>
