<svg width="80" height="80" viewBox="0 0 80 80" fill="none" xmlns="http://www.w3.org/2000/svg">
<g clip-path="url(#clip0_194_293)">
<path d="M2.66667 79.9996H26.6667C28.1394 79.9996 29.3333 78.8057 29.3333 77.3329V75.9996C29.3333 73.7904 27.5425 71.9996 25.3333 71.9996H24V63.9996C23.9936 59.2317 20.3989 55.2331 15.6587 54.7209L10.2667 39.3249C10.7116 38.2724 10.7859 37.0999 10.4773 35.9996L23.3333 10.2662C23.8783 10.0394 24.3819 9.72404 24.824 9.33291H47.0373C47.5099 10.1552 48.3849 10.6634 49.3333 10.6662H49.8093C49.9741 11.1423 50.1844 11.6013 50.4373 12.0369L46.744 14.0102C46.0176 14.3965 45.5102 15.0964 45.3689 15.9069C45.2277 16.7174 45.4684 17.5477 46.0213 18.1569L49.3333 21.8436V23.9996C49.3333 25.4723 50.5272 26.6662 52 26.6662V27.0742C51.9997 27.726 51.5283 28.282 50.8853 28.3889L47.3427 28.9796C45.4113 29.2963 43.9951 30.9677 44 32.9249V57.3329H36C32.575 57.3295 29.7046 59.9219 29.3604 63.3296C29.0162 66.7373 31.3101 69.8514 34.6667 70.5329V77.3329C34.6667 78.8057 35.8606 79.9996 37.3333 79.9996H77.3333C78.8061 79.9996 80 78.8057 80 77.3329V59.9996C80 58.5268 78.8061 57.3329 77.3333 57.3329H70.6667V32.9249C70.6715 30.9677 69.2554 29.2963 67.324 28.9796L63.78 28.3889C63.1376 28.2814 62.6669 27.7256 62.6667 27.0742V26.6662C64.1394 26.6662 65.3333 25.4723 65.3333 23.9996V21.8409L68.6333 18.1676C69.1911 17.5593 69.4358 16.727 69.296 15.9136C69.1561 15.1002 68.6476 14.3974 67.9187 14.0102L64.228 12.0382C64.4813 11.6022 64.6921 11.1427 64.8573 10.6662H65.3333C66.8061 10.6662 68 9.47234 68 7.99958V2.66624C68 1.19348 66.8061 -0.000423133 65.3333 -0.000423133H49.3333C48.3849 0.00243687 47.5099 0.510575 47.0373 1.33291H24.824C23.077 -0.242435 20.4991 -0.473588 18.4998 0.765828C16.5004 2.00524 15.5608 4.41688 16.1947 6.68224L3.33333 32.3996C1.43706 33.1599 0.14583 34.9415 0.0135006 36.9802C-0.118829 39.0189 0.931252 40.9525 2.71333 41.9516L8.10533 57.3716C6.33095 59.1205 5.33237 61.5082 5.33333 63.9996V71.9996H4C1.79086 71.9996 0 73.7904 0 75.9996V77.3329C0 78.8057 1.19391 79.9996 2.66667 79.9996ZM20.2173 10.5449L8.828 33.3329C8.152 32.7323 7.33362 32.3147 6.45067 32.1196L17.848 9.33291C18.5221 9.93141 19.3375 10.3485 20.2173 10.5449ZM37.3333 77.3329V70.6662H77.3333V77.3329H37.3333ZM77.3333 67.9996H36C33.7909 67.9996 32 66.2087 32 63.9996C32 61.7904 33.7909 59.9996 36 59.9996H77.3333V67.9996ZM46.6667 57.3329V38.6662H68V57.3329H46.6667ZM63.3427 31.0196L66.8867 31.6102C67.5291 31.7177 67.9998 32.2736 68 32.9249V35.9996H46.6667V32.9249C46.667 32.2732 47.1384 31.7171 47.7813 31.6102L51.324 31.0196C53.2554 30.7029 54.6715 29.0314 54.6667 27.0742V26.6662H60V27.0742C59.9951 29.0314 61.4113 30.7029 63.3427 31.0196ZM61.3333 23.9996H52V21.3329H62.6667V23.9996H61.3333ZM64.176 19.1382C63.7326 18.8311 63.2061 18.6664 62.6667 18.6662H52C51.4606 18.6663 50.934 18.8309 50.4907 19.1382L48 16.3609L52.1973 14.1196C55.1611 16.6247 59.5002 16.6247 62.464 14.1196L66.6573 16.3729L64.176 19.1382ZM57.3333 13.3329C55.4313 13.3281 53.6753 12.3125 52.7227 10.6662H61.944C60.9913 12.3125 59.2353 13.3281 57.3333 13.3329ZM65.3333 2.66624V7.99958H49.3333V2.66624H65.3333ZM46.6667 6.66624H26.4773C26.5974 6.23177 26.661 5.78364 26.6667 5.33291C26.661 4.88218 26.5974 4.43405 26.4773 3.99958H46.6667V6.66624ZM21.3333 2.66624C22.8061 2.66624 24 3.86015 24 5.33291C24 6.80567 22.8061 7.99958 21.3333 7.99958C19.8606 7.99958 18.6667 6.80567 18.6667 5.33291C18.6667 3.86015 19.8606 2.66624 21.3333 2.66624ZM5.33333 34.6662C6.80609 34.6662 8 35.8602 8 37.3329C8 38.8057 6.80609 39.9996 5.33333 39.9996C3.86057 39.9996 2.66667 38.8057 2.66667 37.3329C2.66667 35.8602 3.86057 34.6662 5.33333 34.6662ZM5.77067 42.6222C6.6749 42.5566 7.54718 42.2601 8.304 41.7609L12.88 54.8422C12.0014 55.0146 11.1525 55.3137 10.36 55.7302L5.77067 42.6222ZM8 63.9996C8 60.3177 10.9848 57.3329 14.6667 57.3329C18.3486 57.3329 21.3333 60.3177 21.3333 63.9996V71.9996H8V63.9996ZM2.66667 75.9996C2.66667 75.2632 3.26362 74.6662 4 74.6662H25.3333C26.0697 74.6662 26.6667 75.2632 26.6667 75.9996V77.3329H2.66667V75.9996Z" fill="black"/>
<path d="M14.6667 60C12.4576 60 10.6667 61.7909 10.6667 64C10.6667 66.2091 12.4576 68 14.6667 68C16.8759 68 18.6667 66.2091 18.6667 64C18.6667 61.7909 16.8759 60 14.6667 60ZM14.6667 65.3333C13.9304 65.3333 13.3334 64.7364 13.3334 64C13.3334 63.2636 13.9304 62.6667 14.6667 62.6667C15.4031 62.6667 16.0001 63.2636 16.0001 64C16.0001 64.7364 15.4031 65.3333 14.6667 65.3333Z" fill="#E2251D"/>
<path d="M38.6667 65.3327C39.4031 65.3327 40 64.7357 40 63.9993C40 63.263 39.4031 62.666 38.6667 62.666C37.9303 62.666 37.3334 63.263 37.3334 63.9993C37.3334 64.7357 37.9303 65.3327 38.6667 65.3327Z" fill="#E2251D"/>
<path d="M46.6667 65.3327C47.4031 65.3327 48 64.7357 48 63.9993C48 63.263 47.4031 62.666 46.6667 62.666C45.9303 62.666 45.3334 63.263 45.3334 63.9993C45.3334 64.7357 45.9303 65.3327 46.6667 65.3327Z" fill="black"/>
<path d="M54.6667 65.3327C55.4031 65.3327 56 64.7357 56 63.9993C56 63.263 55.4031 62.666 54.6667 62.666C53.9303 62.666 53.3334 63.263 53.3334 63.9993C53.3334 64.7357 53.9303 65.3327 54.6667 65.3327Z" fill="#E2251D"/>
<path d="M62.6667 65.3327C63.4031 65.3327 64 64.7357 64 63.9993C64 63.263 63.4031 62.666 62.6667 62.666C61.9303 62.666 61.3334 63.263 61.3334 63.9993C61.3334 64.7357 61.9303 65.3327 62.6667 65.3327Z" fill="black"/>
<path d="M70.6667 65.3327C71.4031 65.3327 72 64.7357 72 63.9993C72 63.263 71.4031 62.666 70.6667 62.666C69.9303 62.666 69.3334 63.263 69.3334 63.9993C69.3334 64.7357 69.9303 65.3327 70.6667 65.3327Z" fill="#E2251D"/>
<path d="M58.2734 42.6447C56.511 40.9531 53.7278 40.9531 51.9654 42.6447C51.1297 43.4787 50.66 44.6108 50.66 45.7914C50.66 46.972 51.1297 48.1041 51.9654 48.9381L54.1694 51.1421L54.1774 51.1541L54.1894 51.1621L56.3881 53.3607C58.1303 55.1023 60.9545 55.1017 62.6961 53.3594C64.4376 51.6171 64.437 48.7929 62.6947 47.0514L58.2734 42.6447ZM53.8507 44.5327C54.1828 44.1941 54.6364 44.0021 55.1107 43.9994C55.5909 43.9999 56.0511 44.1918 56.3894 44.5327L57.6534 45.7941L55.1201 48.3274L53.8494 47.0554C53.5139 46.7214 53.3253 46.2675 53.3253 45.7941C53.3253 45.3207 53.5153 44.8668 53.8507 44.5327ZM60.8094 51.4767C60.1088 52.1737 58.9767 52.1737 58.2761 51.4767L57.0094 50.2114L59.5427 47.6781L60.8041 48.9354C61.4988 49.6382 61.5012 50.7684 60.8094 51.4741V51.4767Z" fill="#E2251D"/>
</g>
<defs>
<clipPath id="clip0_194_293">
<rect width="80" height="80" fill="white"/>
</clipPath>
</defs>
</svg>
