<svg width="50" height="50" viewBox="0 0 50 50" fill="none" xmlns="http://www.w3.org/2000/svg">
<path d="M47.8346 8.33858H34.8583V3.74016C34.8583 1.67717 33.1811 0 31.1181 0H6.10236C4.03937 0 2.3622 1.67717 2.3622 3.74016V8.88189H1.77165C0.795276 8.88189 0 9.67717 0 10.6535V14.2835C0 15.2598 0.795276 16.0551 1.77165 16.0551H2.3622V17.9213H1.77165C0.795276 17.9213 0 18.7165 0 19.6929V23.3228C0 24.2992 0.795276 25.0945 1.77165 25.0945H2.3622V46.2598C2.3622 48.3228 4.03937 50 6.10236 50H31.1181C33.1811 50 34.8583 48.3228 34.8583 46.2598V25.7165C34.8583 25.3937 34.5905 25.126 34.2677 25.126C33.9449 25.126 33.6772 25.3937 33.6772 25.7165V46.2598C33.6772 47.6693 32.5276 48.8189 31.1181 48.8189H6.10236C4.69291 48.8189 3.54331 47.6693 3.54331 46.2598V3.74016C3.54331 2.33071 4.69291 1.1811 6.10236 1.1811H11.378V3.10236C11.378 4.73228 12.7008 6.05512 14.3307 6.05512H22.8819C24.5118 6.05512 25.8346 4.73228 25.8346 3.10236V1.1811H31.1102C32.5197 1.1811 33.6693 2.33071 33.6693 3.74016V8.33858H11.4646C10.2677 8.33858 9.29921 9.30709 9.29921 10.5039V20.9921C9.29921 22.189 10.2677 23.1575 11.4646 23.1575H47.8346C49.0315 23.1575 50 22.189 50 20.9921V10.5039C50 9.30709 49.0315 8.33858 47.8346 8.33858ZM2.3622 14.874H1.77165C1.44882 14.874 1.1811 14.6063 1.1811 14.2835V10.6535C1.1811 10.3307 1.44882 10.063 1.77165 10.063H2.3622V14.874ZM2.3622 23.9134H1.77165C1.44882 23.9134 1.1811 23.6457 1.1811 23.3228V19.6929C1.1811 19.3701 1.44882 19.1024 1.77165 19.1024H2.3622V23.9134ZM24.6614 3.10236C24.6614 4.07874 23.8661 4.87402 22.8898 4.87402H14.3386C13.3622 4.87402 12.5669 4.07874 12.5669 3.10236V1.1811H24.6614V3.10236ZM48.8189 20.9921C48.8189 21.5354 48.378 21.9764 47.8346 21.9764H11.4646C10.9213 21.9764 10.4803 21.5354 10.4803 20.9921V10.5039C10.4803 9.96063 10.9213 9.51968 11.4646 9.51968H47.8346C48.378 9.51968 48.8189 9.96063 48.8189 10.5039V20.9921Z" fill="white"/>
<path d="M45.8743 14.2834L44.5358 14.0944L43.9373 12.8818C43.7877 12.5747 43.4806 12.3857 43.142 12.3857C42.8035 12.3857 42.4964 12.5747 42.3468 12.8818L41.7483 14.0944L40.4019 14.2834C40.0633 14.3306 39.7877 14.559 39.6854 14.8818C39.583 15.2046 39.6617 15.5511 39.9058 15.7873L40.8822 16.7401L40.6539 18.0708C40.5987 18.4015 40.7326 18.7401 41.0082 18.9369C41.2838 19.1338 41.6381 19.1653 41.9373 19.0078L43.1342 18.3779L44.331 19.0078C44.4649 19.0787 44.6066 19.1102 44.7405 19.1102C44.9216 19.1102 45.1027 19.055 45.2602 18.9448C45.5357 18.7479 45.6696 18.4172 45.6145 18.0787L45.3861 16.7401L46.3546 15.7873C46.5987 15.5511 46.6854 15.1968 46.5751 14.8739C46.4885 14.559 46.2129 14.3306 45.8743 14.2834ZM44.457 16.0078C44.2523 16.2125 44.1578 16.5039 44.205 16.7873L44.3546 17.685L43.5436 17.2598C43.4098 17.1889 43.268 17.1574 43.1263 17.1574C42.9846 17.1574 42.8428 17.1889 42.7169 17.2598L41.9058 17.685L42.0633 16.7873C42.1106 16.5039 42.0161 16.2046 41.8113 16.0078L41.1578 15.37L42.0633 15.244C42.3546 15.2046 42.6066 15.0235 42.7326 14.7558L43.1342 13.9369L43.5436 14.7637C43.6775 15.0235 43.9216 15.2046 44.2129 15.244L45.1184 15.37L44.457 16.0078Z" fill="white"/>
<path d="M36.8821 14.2834L35.5436 14.0944L34.9451 12.8818C34.7955 12.5747 34.4884 12.3857 34.1499 12.3857C33.8113 12.3857 33.5042 12.5747 33.3546 12.8818L32.7562 14.0944L31.4097 14.2834C31.0711 14.3306 30.7955 14.559 30.6932 14.8818C30.5908 15.2046 30.6695 15.5511 30.9136 15.7873L31.89 16.7401L31.6617 18.0708C31.6066 18.4015 31.7404 18.7401 32.016 18.9369C32.2916 19.1338 32.6459 19.1653 32.9451 19.0078L34.142 18.3779L35.3388 19.0078C35.4727 19.0787 35.6144 19.1102 35.7483 19.1102C35.9294 19.1102 36.1105 19.055 36.268 18.9369C36.5436 18.7401 36.6774 18.4094 36.6223 18.0708L36.394 16.7322L37.3625 15.7794C37.6066 15.5432 37.6932 15.1968 37.5829 14.8739C37.4963 14.5668 37.2207 14.3306 36.8821 14.2834ZM35.4648 16.0157C35.2601 16.2204 35.1656 16.5117 35.2129 16.7952L35.3625 17.6928L34.5514 17.2676C34.4255 17.1968 34.2837 17.1653 34.142 17.1653C34.0003 17.1653 33.8585 17.1968 33.7325 17.2676L32.9215 17.6928L33.079 16.7952C33.1262 16.5117 33.0318 16.2125 32.827 16.0157L32.1735 15.3779L33.079 15.2519C33.3703 15.2125 33.6223 15.0314 33.7483 14.7637L34.1499 13.9448L34.5593 14.7637C34.6932 15.0235 34.9373 15.2046 35.2286 15.244L36.1341 15.37L35.4648 16.0157Z" fill="white"/>
<path d="M27.8897 14.2834L26.5511 14.0944L25.9527 12.8818C25.8031 12.5747 25.496 12.3857 25.1574 12.3857C24.8188 12.3857 24.5118 12.5747 24.3622 12.8818L23.7637 14.0944L22.4173 14.2834C22.0787 14.3306 21.8031 14.559 21.7007 14.8818C21.5984 15.2046 21.6771 15.5511 21.9212 15.7873L22.8976 16.7401L22.6692 18.0708C22.6141 18.4015 22.748 18.7401 23.0236 18.9369C23.2992 19.1338 23.6535 19.1653 23.9527 19.0078L25.1496 18.3779L26.3543 19.0078C26.4881 19.0787 26.6299 19.1102 26.7637 19.1102C26.9448 19.1102 27.1259 19.055 27.2834 18.9369C27.559 18.7401 27.6929 18.4094 27.6377 18.0708L27.4094 16.7322L28.3779 15.7794C28.622 15.5432 28.7086 15.1968 28.5984 14.8739C28.5039 14.5668 28.2283 14.3306 27.8897 14.2834ZM26.4803 16.0078C26.2755 16.2125 26.1811 16.5039 26.2283 16.7873L26.3779 17.685L25.5669 17.2598C25.4409 17.1889 25.2992 17.1574 25.1574 17.1574C25.0157 17.1574 24.874 17.1889 24.748 17.2598L23.937 17.685L24.0944 16.7873C24.1417 16.5039 24.0472 16.2046 23.8425 16.0078L23.1889 15.37L24.0944 15.244C24.3858 15.2046 24.6377 15.0235 24.7637 14.7558L25.1653 13.9369L25.5748 14.7558C25.7007 15.0157 25.9527 15.1968 26.244 15.2361L27.1496 15.3621L26.4803 16.0078Z" fill="white"/>
<path d="M18.8976 14.2834L17.5591 14.0944L16.9606 12.8818C16.811 12.5747 16.5039 12.3857 16.1654 12.3857C15.8268 12.3857 15.5197 12.5747 15.3701 12.8818L14.7717 14.0944L13.4252 14.2834C13.0866 14.3306 12.811 14.559 12.7087 14.8818C12.6063 15.2046 12.6851 15.5511 12.9291 15.7952L13.9055 16.7479L13.6772 18.0787C13.6221 18.4094 13.7559 18.7479 14.0315 18.9448C14.3071 19.1416 14.6614 19.1731 14.9606 19.0157L16.1575 18.3857L17.3543 19.0157C17.4882 19.0865 17.6299 19.118 17.7638 19.118C17.9449 19.118 18.126 19.0629 18.2835 18.9448C18.5591 18.7479 18.6929 18.4172 18.6378 18.0787L18.4095 16.7401L19.378 15.7873C19.6221 15.5511 19.7087 15.2046 19.5984 14.8818C19.5118 14.5668 19.2362 14.3306 18.8976 14.2834ZM17.4882 16.0078C17.2835 16.2125 17.189 16.5039 17.2362 16.7873L17.3858 17.685L16.5748 17.2598C16.4488 17.1889 16.3071 17.1574 16.1654 17.1574C16.0236 17.1574 15.8819 17.1889 15.7559 17.2598L14.9449 17.685L15.1024 16.7873C15.1496 16.5039 15.0551 16.2125 14.8504 16.0078L14.1969 15.37L15.1024 15.244C15.3937 15.2046 15.6457 15.0235 15.7717 14.7558L16.1732 13.9369L16.5827 14.7558C16.7087 15.0157 16.9606 15.1968 17.252 15.2361L18.1575 15.3621L17.4882 16.0078Z" fill="white"/>
<path d="M14.6218 3.59028H19.7635C20.0864 3.59028 20.3541 3.32257 20.3541 2.99973C20.3541 2.6769 20.0864 2.40918 19.7635 2.40918H14.6218C14.299 2.40918 14.0312 2.6769 14.0312 2.99973C14.0312 3.32257 14.299 3.59028 14.6218 3.59028Z" fill="white"/>
<path d="M22.4409 3.59028H22.5984C22.9212 3.59028 23.1889 3.32257 23.1889 2.99973C23.1889 2.6769 22.9212 2.40918 22.5984 2.40918H22.4409C22.1102 2.40918 21.8503 2.66902 21.8503 2.99973C21.8503 3.33044 22.1102 3.59028 22.4409 3.59028Z" fill="white"/>
<path d="M15.6771 38.1019C15.4488 37.8736 15.0708 37.8736 14.8425 38.1019L13.9054 39.0389C13.5117 38.661 12.9842 38.4248 12.3936 38.4248H8.20466C7.00781 38.4248 6.03931 39.3933 6.03931 40.5901V44.0232C6.03931 45.22 7.00781 46.1885 8.20466 46.1885H12.3936C13.5905 46.1885 14.559 45.22 14.559 44.0232V40.5901C14.559 40.4248 14.5354 40.2673 14.5039 40.1177L15.6771 38.9444C15.9054 38.7082 15.9054 38.3303 15.6771 38.1019ZM13.3779 44.0232C13.3779 44.5665 12.9369 45.0074 12.3936 45.0074H8.20466C7.66135 45.0074 7.22041 44.5665 7.22041 44.0232V40.5901C7.22041 40.0468 7.66135 39.6059 8.20466 39.6059H12.3936C12.6535 39.6059 12.8897 39.7161 13.0708 39.8815L10.6929 42.2594C10.6377 42.3145 10.5432 42.3145 10.4881 42.2594L9.44876 41.22C9.22041 40.9917 8.84246 40.9917 8.61411 41.22C8.38576 41.4484 8.38576 41.8263 8.61411 42.0547L9.65348 43.094C9.91332 43.3539 10.2519 43.4799 10.5905 43.4799C10.9291 43.4799 11.2677 43.3539 11.5275 43.094L13.3858 41.2358V44.0232H13.3779Z" fill="white"/>
<path d="M30.5906 45.0078H17.9607C17.6378 45.0078 17.3701 45.2755 17.3701 45.5984C17.3701 45.9212 17.6378 46.1889 17.9607 46.1889H30.5906C30.9134 46.1889 31.1811 45.9212 31.1811 45.5984C31.1811 45.2755 30.9134 45.0078 30.5906 45.0078Z" fill="white"/>
<path d="M30.5906 41.9844H17.9607C17.6378 41.9844 17.3701 42.2521 17.3701 42.5749C17.3701 42.8978 17.6378 43.1655 17.9607 43.1655H30.5906C30.9134 43.1655 31.1811 42.8978 31.1811 42.5749C31.1811 42.2521 30.9134 41.9844 30.5906 41.9844Z" fill="white"/>
<path d="M17.9607 40.1342H26.2914C26.6142 40.1342 26.8819 39.8665 26.8819 39.5437C26.8819 39.2208 26.6142 38.9531 26.2914 38.9531H17.9607C17.6378 38.9531 17.3701 39.2208 17.3701 39.5437C17.3701 39.8665 17.63 40.1342 17.9607 40.1342Z" fill="white"/>
<path d="M15.6771 26.5902C15.4488 26.3619 15.0708 26.3619 14.8425 26.5902L13.9054 27.5272C13.5117 27.1493 12.9842 26.913 12.3936 26.913H8.20466C7.00781 26.913 6.03931 27.8815 6.03931 29.0784V32.5115C6.03931 33.7083 7.00781 34.6768 8.20466 34.6768H12.3936C13.5905 34.6768 14.559 33.7083 14.559 32.5115V29.0784C14.559 28.913 14.5354 28.7556 14.5039 28.606L15.6771 27.4327C15.9054 27.1965 15.9054 26.8186 15.6771 26.5902ZM13.3779 32.5115C13.3779 33.0548 12.9369 33.4957 12.3936 33.4957H8.20466C7.66135 33.4957 7.22041 33.0548 7.22041 32.5115V29.0784C7.22041 28.5351 7.66135 28.0941 8.20466 28.0941H12.3936C12.6535 28.0941 12.8897 28.2044 13.0708 28.3697L10.6929 30.7477C10.6377 30.8028 10.5432 30.8028 10.4881 30.7477L9.44876 29.7083C9.22041 29.48 8.84246 29.48 8.61411 29.7083C8.38576 29.9367 8.38576 30.3146 8.61411 30.543L9.65348 31.5823C9.91332 31.8422 10.2519 31.9682 10.5905 31.9682C10.9291 31.9682 11.2677 31.8422 11.5275 31.5823L13.3779 29.7241V32.5115Z" fill="white"/>
<path d="M30.5906 33.4961H17.9607C17.6378 33.4961 17.3701 33.7638 17.3701 34.0866C17.3701 34.4095 17.6378 34.6772 17.9607 34.6772H30.5906C30.9134 34.6772 31.1811 34.4095 31.1811 34.0866C31.1811 33.7638 30.9134 33.4961 30.5906 33.4961Z" fill="white"/>
<path d="M30.5906 30.4648H17.9607C17.6378 30.4648 17.3701 30.7326 17.3701 31.0554C17.3701 31.3782 17.6378 31.6459 17.9607 31.6459H30.5906C30.9134 31.6459 31.1811 31.3782 31.1811 31.0554C31.1811 30.7326 30.9134 30.4648 30.5906 30.4648Z" fill="white"/>
<path d="M17.9607 28.6215H26.2914C26.6142 28.6215 26.8819 28.3538 26.8819 28.031C26.8819 27.7081 26.6142 27.4404 26.2914 27.4404H17.9607C17.6378 27.4404 17.3701 27.7081 17.3701 28.031C17.3701 28.3538 17.63 28.6215 17.9607 28.6215Z" fill="white"/>
</svg>
