<svg width="50" height="50" viewBox="0 0 50 50" fill="none" xmlns="http://www.w3.org/2000/svg">
<g clip-path="url(#clip0_194_594)">
<path d="M43.2007 40.9512H31.0669C30.6623 40.9512 30.3345 41.279 30.3345 41.6836C30.3345 42.0882 30.6623 42.416 31.0669 42.416H43.2007C43.6053 42.416 43.9331 42.0882 43.9331 41.6836C43.9331 41.279 43.6053 40.9512 43.2007 40.9512Z" fill="white"/>
<path d="M19.6655 41.6836C19.6655 41.279 19.3376 40.9512 18.9331 40.9512H6.79932C6.39482 40.9512 6.06689 41.279 6.06689 41.6836C6.06689 42.0882 6.39482 42.416 6.79932 42.416H18.9331C19.3376 42.416 19.6655 42.0881 19.6655 41.6836Z" fill="white"/>
<path d="M43.2007 24.2676H29.3945C28.9899 24.2676 28.6621 24.5954 28.6621 25C28.6621 25.4046 28.9899 25.7324 29.3945 25.7324H43.2007C43.6053 25.7324 43.9331 25.4046 43.9331 25C43.9331 24.5954 43.6053 24.2676 43.2007 24.2676Z" fill="white"/>
<path d="M43.2007 28.8174H29.3945C28.9899 28.8174 28.6621 29.1452 28.6621 29.5498C28.6621 29.9544 28.9899 30.2822 29.3945 30.2822H43.2007C43.6053 30.2822 43.9331 29.9544 43.9331 29.5498C43.9331 29.1452 43.6053 28.8174 43.2007 28.8174Z" fill="white"/>
<path d="M40.1672 33.3682H29.3945C28.9899 33.3682 28.6621 33.696 28.6621 34.1006C28.6621 34.5052 28.9899 34.833 29.3945 34.833H40.1672C40.5718 34.833 40.8996 34.5052 40.8996 34.1006C40.8996 33.696 40.5718 33.3682 40.1672 33.3682Z" fill="white"/>
<path d="M6.79932 25.7324H20.6055C21.01 25.7324 21.3379 25.4046 21.3379 25C21.3379 24.5954 21.01 24.2676 20.6055 24.2676H6.79932C6.39482 24.2676 6.06689 24.5954 6.06689 25C6.06689 25.4046 6.39482 25.7324 6.79932 25.7324Z" fill="white"/>
<path d="M6.79932 30.2822H20.6055C21.01 30.2822 21.3379 29.9544 21.3379 29.5498C21.3379 29.1452 21.01 28.8174 20.6055 28.8174H6.79932C6.39482 28.8174 6.06689 29.1452 6.06689 29.5498C6.06689 29.9544 6.39482 30.2822 6.79932 30.2822Z" fill="white"/>
<path d="M20.6055 33.3682H9.83276C9.42827 33.3682 9.10034 33.696 9.10034 34.1006C9.10034 34.5052 9.42827 34.833 9.83276 34.833H20.6055C21.01 34.833 21.3379 34.5052 21.3379 34.1006C21.3379 33.696 21.01 33.3682 20.6055 33.3682Z" fill="white"/>
<path d="M31.5368 9.69453C31.9601 9.28184 32.1095 8.67647 31.9269 8.11436C31.7443 7.55225 31.2674 7.15029 30.6825 7.06533L27.7048 6.63262C27.68 6.629 27.6584 6.61338 27.6473 6.59072L26.3156 3.89248C26.0541 3.3625 25.5244 3.0332 24.9334 3.0332C24.3424 3.0332 23.8127 3.3625 23.5512 3.89248L22.2196 6.59072C22.2084 6.61328 22.1869 6.629 22.1618 6.63262L19.1841 7.06533C18.5992 7.15029 18.1225 7.55225 17.9399 8.11426C17.7573 8.67637 17.9067 9.28184 18.3299 9.69453L20.4845 11.7947C20.5026 11.8124 20.5109 11.8376 20.5066 11.8625L19.998 14.8282C19.8981 15.4106 20.133 15.9883 20.6111 16.3357C21.0892 16.6831 21.7112 16.7282 22.2345 16.4531L24.898 15.0528C24.9201 15.0412 24.9467 15.0412 24.9688 15.0528L24.969 15.0529L27.6323 16.4531C27.86 16.5728 28.1061 16.6317 28.351 16.6317C28.6693 16.6317 28.9855 16.532 29.2557 16.3357C29.7338 15.9884 29.9688 15.4107 29.8688 14.8282L29.3601 11.8624C29.3559 11.8377 29.3642 11.8123 29.3822 11.7948L31.5368 9.69453ZM28.3596 10.7459C27.9962 11.1002 27.8305 11.6103 27.9163 12.1102L28.4249 15.0759C28.4276 15.091 28.433 15.1227 28.3945 15.1508C28.3559 15.1789 28.3275 15.1639 28.3139 15.1566L25.6506 13.7564C25.2014 13.5202 24.6652 13.5202 24.216 13.7564L21.5529 15.1566C21.5392 15.1638 21.5108 15.179 21.4721 15.1508C21.4336 15.1229 21.4391 15.0912 21.4416 15.0759L21.9503 12.1103C22.0361 11.6102 21.8704 11.1002 21.507 10.7458L19.3524 8.64561C19.3413 8.63486 19.3183 8.6123 19.3329 8.56699C19.3477 8.52178 19.3794 8.51709 19.3948 8.51494L22.3723 8.08223C22.8744 8.00938 23.3083 7.69414 23.533 7.23906L24.8647 4.54082C24.8715 4.52686 24.8858 4.49805 24.9333 4.49805C24.9809 4.49805 24.9951 4.52686 25.002 4.54082L26.3337 7.23906C26.5583 7.69414 26.9922 8.00938 27.4943 8.08223L30.472 8.51494C30.4872 8.51709 30.5191 8.52178 30.5338 8.56699C30.5485 8.6123 30.5254 8.63467 30.5144 8.64551L28.3596 10.7459Z" fill="white"/>
<path d="M48.7793 19.7174H46.9666V16.3879C46.9666 15.7147 46.419 15.1672 45.7459 15.1672H39.383V1.2207C39.383 0.547559 38.8354 0 38.1623 0H11.8378C11.1646 0 10.6171 0.547559 10.6171 1.2207V7.20479C10.6171 7.60938 10.945 7.93721 11.3495 7.93721C11.754 7.93721 12.0819 7.60938 12.0819 7.20479V1.46484H37.9181V19.7174H29.7524C29.4264 19.7174 29.1197 19.8444 28.8892 20.0749L25 23.9643L21.111 20.0753C20.8805 19.8446 20.5739 19.7175 20.2476 19.7175H12.0819V10.6229C12.0819 10.2183 11.754 9.89043 11.3495 9.89043C10.945 9.89043 10.6171 10.2183 10.6171 10.6229V15.1673H4.2541C3.58096 15.1673 3.0334 15.7148 3.0334 16.388V19.7175H1.2207C0.547559 19.7175 0 20.265 0 20.9382V47.2626C0 47.9357 0.547559 48.4833 1.2207 48.4833H22.3873C22.9185 49.4143 23.9114 50 25 50C26.0886 50 27.0815 49.4143 27.6126 48.4833H48.7793C49.4524 48.4833 50 47.9357 50 47.2626V20.9381C50 20.265 49.4524 19.7174 48.7793 19.7174ZM25.7324 43.045C25.7324 41.0257 27.3752 39.3829 29.3945 39.3829H45.5018V43.985H25.7324V43.045ZM10.6171 16.632V19.7174H6.79932C6.39482 19.7174 6.06689 20.0452 6.06689 20.4498C6.06689 20.8544 6.39482 21.1822 6.79932 21.1822H20.1464L24.1368 25.1727C24.1782 25.2141 24.222 25.2518 24.2675 25.286V39.4604C23.3362 38.5092 22.0386 37.9181 20.6054 37.9181H4.49824V16.632H10.6171ZM48.5352 47.0185H27.311C26.922 47.0185 26.5708 47.2487 26.4164 47.6052C26.1716 48.1701 25.6156 48.5352 25 48.5352C24.3844 48.5352 23.8284 48.1701 23.5836 47.6053C23.4291 47.2488 23.078 47.0185 22.689 47.0185H1.46484V21.1822H3.0334V44.2291C3.0334 44.9022 3.58096 45.4498 4.2541 45.4498H7.83379C8.23828 45.4498 8.56621 45.122 8.56621 44.7174C8.56621 44.3128 8.23828 43.985 7.83379 43.985H4.49824V39.3829H20.6055C22.6248 39.3829 24.2676 41.0257 24.2676 43.045V43.985H11.2519C10.8474 43.985 10.5194 44.3128 10.5194 44.7174C10.5194 45.122 10.8474 45.4498 11.2519 45.4498H45.7459C46.419 45.4498 46.9666 44.9022 46.9666 44.2291V27.1959C46.9666 26.7913 46.6388 26.4635 46.2342 26.4635C45.8296 26.4635 45.5018 26.7913 45.5018 27.1959V37.9181H29.3945C27.9613 37.9181 26.6637 38.5092 25.7324 39.4604V25.286C25.778 25.2519 25.8218 25.2141 25.8632 25.1727L29.8535 21.1822H43.2007C43.6053 21.1822 43.9331 20.8544 43.9331 20.4498C43.9331 20.0452 43.6053 19.7174 43.2007 19.7174H39.3829V16.632H45.5017V23.7779C45.5017 24.1825 45.8295 24.5104 46.2341 24.5104C46.6387 24.5104 46.9665 24.1825 46.9665 23.7779V21.1822H48.5352V47.0185Z" fill="white"/>
</g>
<defs>
<clipPath id="clip0_194_594">
<rect width="50" height="50" fill="white"/>
</clipPath>
</defs>
</svg>
